<svg width="360" height="640" viewBox="0 0 360 640" fill="none" xmlns="http://www.w3.org/2000/svg">
<rect width="360" height="640" fill="white"/>
<path d="M-95.5045 -31.077L116.995 -31.077C116.995 -31.077 137.995 37.9056 65.0849 43.7123C6.60855 48.3695 21.9265 88.7742 17.4099 102.706C6.69402 135.759 -27.5045 148.406 -66.8995 138.906C-90.9962 133.095 -95.5045 82.2447 -95.5045 82.2447V-31.077Z" fill="#99A4FB"/>
<path d="M-26.5 593.043C-26.5 593.043 15.5823 557.054 59.2167 578.376C174.372 634.647 208.964 603.144 262.724 578.376C318.581 552.642 382.5 571.772 382.5 571.772L363.981 686.934H-26.5V593.043Z" fill="#99A4FB"/>
<path d="M457.115 -73L457.115 109.264C457.115 109.264 308.117 128.745 326.282 71.0196C341.429 22.8843 310.742 29.9207 281.732 29.9207C243.922 29.9207 236.659 -14.2392 247.214 -48.0288C253.669 -68.6968 331.213 -73 331.213 -73L457.115 -73Z" fill="#35F3FF"/>
</svg>
