<svg width="33" height="17" viewBox="0 0 33 17" fill="none" xmlns="http://www.w3.org/2000/svg">
<path d="M10.3255 5.70636H21.8134V11.5349H10.3255V5.70636Z" fill="white"/>
<path d="M30.3587 4.12122H29.5617V12.7163H30.3587C31.2798 12.7151 32.0264 11.9469 32.0272 10.9984V5.83854C32.0261 4.89036 31.2795 4.12209 30.3587 4.12122Z" fill="white"/>
<path d="M26.436 0.486755H23.2708V16.7546H26.436C27.3571 16.7534 28.1037 15.9851 28.1045 15.037V2.20437C28.1037 1.25619 27.3571 0.487927 26.436 0.486755Z" fill="white"/>
<path d="M4.03436 2.20437V15.037C4.03522 15.9851 4.78182 16.7537 5.7029 16.7546H8.86806V0.486755H5.7029C4.78182 0.487927 4.03522 1.25619 4.03436 2.20437Z" fill="white"/>
<path d="M0.111511 5.83883V10.9984C0.112365 11.9469 0.858967 12.7151 1.78005 12.7163H2.57703V4.12122H1.78005C0.858967 4.12209 0.11265 4.89065 0.111511 5.83883Z" fill="white"/>
</svg>
