<svg width="24" height="23" viewBox="0 0 24 23" fill="none" xmlns="http://www.w3.org/2000/svg">
<g clip-path="url(#clip0)">
<path d="M11.8362 11.0792C13.3583 11.0792 14.6763 10.5333 15.7532 9.45625C16.8301 8.37935 17.376 7.0617 17.376 5.53944C17.376 4.01771 16.8301 2.69988 15.753 1.62263C14.6759 0.545907 13.3581 0 11.8362 0C10.3139 0 8.99627 0.545907 7.91937 1.62281C6.84247 2.69971 6.29639 4.01753 6.29639 5.53944C6.29639 7.0617 6.84247 8.37953 7.91954 9.45643C8.99662 10.5332 10.3144 11.0792 11.8362 11.0792Z" fill="white"/>
<path d="M21.5293 17.686C21.4982 17.2378 21.4354 16.7489 21.3429 16.2327C21.2496 15.7126 21.1294 15.2209 20.9855 14.7715C20.8368 14.307 20.6347 13.8483 20.3848 13.4087C20.1255 12.9525 19.8208 12.5552 19.479 12.2283C19.1216 11.8863 18.6839 11.6113 18.1778 11.4108C17.6735 11.2112 17.1146 11.1102 16.5168 11.1102C16.282 11.1102 16.0549 11.2065 15.6164 11.492C15.3465 11.668 15.0309 11.8716 14.6785 12.0967C14.3772 12.2887 13.969 12.4685 13.4649 12.6314C12.973 12.7905 12.4736 12.8712 11.9807 12.8712C11.4878 12.8712 10.9886 12.7905 10.4962 12.6314C9.99257 12.4687 9.58441 12.2888 9.28347 12.0969C8.93445 11.8738 8.61859 11.6703 8.34467 11.4918C7.90668 11.2063 7.67944 11.11 7.44465 11.11C6.84663 11.11 6.28791 11.2112 5.78377 11.4109C5.27804 11.6111 4.84023 11.8861 4.48243 12.2285C4.14078 12.5556 3.83598 12.9527 3.57698 13.4087C3.32727 13.8483 3.12512 14.3068 2.97632 14.7717C2.8326 15.221 2.7124 15.7126 2.61905 16.2327C2.52657 16.7482 2.46375 17.2373 2.43269 17.6865C2.40216 18.1266 2.38672 18.5834 2.38672 19.0447C2.38672 20.2453 2.76838 21.2173 3.521 21.9341C4.26432 22.6414 5.24786 23.0003 6.44391 23.0003H17.5186C18.7146 23.0003 19.6978 22.6416 20.4413 21.9341C21.1941 21.2178 21.5758 20.2456 21.5758 19.0445C21.5756 18.5811 21.56 18.124 21.5293 17.686Z" fill="white"/>
</g>
<defs>
<clipPath id="clip0">
<rect width="23.0001" height="23.0001" fill="white" transform="translate(0.5)"/>
</clipPath>
</defs>
</svg>
