<svg width="33" height="23" viewBox="0 0 33 23" fill="none" xmlns="http://www.w3.org/2000/svg">
<path d="M15.2867 7.46708C15.2867 7.46708 9.76986 6.85418 4.36462 10.5881C-1.04063 14.3221 -0.984844 19.8947 2.1354 21.7334C5.25646 23.5721 12.7235 23.5721 23.2001 20.6467C33.6767 17.7213 33.0929 15.3805 32.5487 13.2071C32.0046 11.0337 24.704 8.47051 24.704 8.47051L15.2867 7.46708Z" fill="#FFFEFE"/>
<path d="M23.1999 18.9115C12.7234 21.8369 5.25628 21.8369 2.13523 19.9982C1.00324 19.3311 0.274722 18.1733 0.0636873 16.7898C-0.239524 18.9123 0.554485 20.8019 2.13523 21.7334C5.25628 23.5721 12.7234 23.5721 23.1999 20.6467C32.7887 17.9687 33.1121 15.7815 32.6811 13.7634C32.2114 15.3053 30.1148 16.9807 23.1999 18.9115Z" fill="#FFFEFE"/>
<path d="M11.7749 0.668684C11.7749 0.668684 7.03913 3.84472 6.70519 5.51683C6.37045 7.18894 5.75755 14.7531 5.75755 14.7531C5.75755 14.7531 5.42281 16.8893 10.6057 17.528C15.7886 18.1668 24.5373 16.105 26.7665 12.8723C26.7665 12.8723 25.4218 3.1922 24.2357 2.00604C23.0495 0.819879 18.5515 0 16.0829 0C13.6152 0 11.7749 0.668684 11.7749 0.668684Z" fill="#FFFEFE"/>
<path d="M32.5487 13.2071C32.0045 11.0337 24.704 8.47052 24.704 8.47052L21.0857 8.08483C20.7137 9.78282 20.1623 11.353 19.3481 12.4414C16.4397 16.3306 9.80054 17.3235 9.80054 17.3235C9.80054 17.3235 21.4616 18.1781 23.5979 18.1781C25.7341 18.1781 26.0599 19.7718 26.0599 19.7718L26.064 19.771C33.5586 17.2467 33.0378 15.1598 32.5487 13.2071Z" fill="#FFFEFE"/>
<path opacity="0.81" d="M13.8516 17.6113C18.8574 17.3469 24.958 15.4953 26.7668 12.8723C26.7668 12.8723 25.4222 3.1922 24.236 2.00604C23.7969 1.56699 22.9051 1.17889 21.8305 0.86274C21.7715 4.0784 21.3672 9.74319 19.349 12.4414C16.4406 16.3306 9.80151 17.3235 9.80151 17.3235C9.80151 17.3235 11.5682 17.4537 13.8516 17.6113Z" fill="#FFFEFE"/>
<path opacity="0.29" d="M19.8006 1.95025C19.8006 1.95025 13.5035 2.89789 10.5498 4.06788C7.59615 5.23787 10.494 1.50473 12.8348 1.05841C15.1748 0.612887 19.8006 1.22578 19.8006 1.95025Z" fill="#E5E5E5"/>
<path opacity="0.17" d="M17.7946 4.29428C16.0537 2.81057 9.82536 4.51422 9.0451 6.96578C8.26484 9.41816 9.93694 8.63789 14.1164 8.35894C18.2959 8.07998 18.8376 5.1829 17.7946 4.29428Z" fill="#E5E5E5"/>
<path d="M16.3319 8.87237L17.1219 15.0862L20.9472 14.8097L21.5164 8.70015L16.3319 8.87237Z" fill="#FFFEFE"/>
<path d="M21.5164 8.70015L16.3319 8.87237L16.716 11.8932L16.4718 8.94919L21.5164 8.70015Z" fill="#FFFEFE"/>
<path d="M15.0496 10.1572L15.8395 15.8479L19.6648 15.5948L20.2341 9.9987L15.0496 10.1572Z" fill="#FFFEFE"/>
<path d="M20.2341 9.9987L15.0496 10.1572L15.6972 14.821L15.1919 10.2962L20.2341 9.9987Z" fill="#FFFEFE"/>
<path d="M15.4712 10.6738C15.4712 10.6738 15.9984 14.3407 16.2515 14.3407C16.5045 14.3407 17.2735 11.5479 17.6422 11.1792C18.0109 10.8105 19.075 10.7369 18.9068 10.5679C18.7378 10.3997 15.6822 10.4628 15.4712 10.6738Z" fill="#FFFEFE"/>
<path d="M10.6057 15.0401C7.3197 14.635 6.25159 13.6284 5.91037 12.9451C5.81739 14.0132 5.75755 14.7531 5.75755 14.7531C5.75755 14.7531 5.42281 16.8893 10.6057 17.5281C15.7886 18.1668 24.5373 16.105 26.7665 12.8723C26.7665 12.8723 26.6476 12.0185 26.4503 10.7871C23.8047 13.786 15.5695 15.6522 10.6057 15.0401Z" fill="#FFFEFE"/>
<path d="M16.6606 14.8266C13.5605 16.7623 9.80151 17.3243 9.80151 17.3243C9.80151 17.3243 9.81607 17.3582 9.84437 17.4181C10.0837 17.4585 10.3376 17.4957 10.606 17.5289C15.7889 18.1676 24.5376 16.1058 26.7668 12.8731C26.7668 12.8731 26.6479 12.0193 26.4507 10.7879C24.7341 12.7333 20.6638 14.2024 16.6606 14.8266Z" fill="#FFFEFE"/>
</svg>
