<svg width="67" height="77" viewBox="0 0 67 77" fill="none" xmlns="http://www.w3.org/2000/svg">
<g filter="url(#filter0_d)">
<path d="M25.3957 20.5408L21.9797 5.7248L23.5893 4.88896C23.5893 4.88896 33.5434 7.11974 41.602 4L45.0422 5.29151L41.842 21.2508L25.3957 20.5408Z" fill="#FFEB33"/>
<path d="M43.5185 4.93089L45.0202 5.38655L45.0391 5.29151L41.5989 4C33.5402 7.11973 23.5861 4.88896 23.5861 4.88896L21.9766 5.7248L22.0278 5.94844C24.9018 6.37335 35.0527 7.58098 43.5185 4.93089Z" fill="#FFEB33"/>
<path d="M13.9803 24.5466L8.11356 24.8038C8.11356 24.8038 7.48806 25.922 9.17312 27.6692C10.8582 29.4163 18.5556 33.3076 18.72 32.5417C18.8845 31.7757 18.1377 29.0445 17.4852 28.368C16.8355 27.6915 13.9803 24.5466 13.9803 24.5466Z" fill="#FFEB33"/>
<path d="M8.11316 24.8038C8.11316 24.8038 17.5334 28.8936 18.7197 32.5388L20.0165 26.4811L20.7849 14.2901L14.7995 9.44553L8.11316 24.8038Z" fill="#FFEB33"/>
<path d="M58.9913 23.5934C59.3202 24.5942 50.1454 32.8436 48.5547 32.1671C48.5547 32.1671 48.6248 30.4506 49.2098 28.5945C49.7949 26.7383 56.0202 23.4396 58.9913 23.5934Z" fill="#FFEB33"/>
<path d="M52.1696 7.9695L58.9908 23.5933C58.9908 23.5933 49.4169 26.7969 48.5542 32.167L47.5054 26.7103V16.8451L52.1696 7.9695Z" fill="#FFEB33"/>
<path d="M15.1581 9.42599C15.1581 9.42599 20.4425 22.1957 20.4425 25.3993C20.4425 28.6029 18.4473 55.0004 16.8297 62.5202C16.8297 62.5202 38.5091 67.2333 50.4798 63.166C50.4798 63.166 46.5704 38.7811 47.8646 26.6852C47.9347 26.0226 52.5288 7.9444 52.5288 7.9444L42.0329 4C42.0329 4 39.6441 13.2921 32.4725 13.2921C26.7433 13.2921 23.7236 4.97841 23.7236 4.97841L15.1581 9.42599Z" fill="#FFEB33"/>
<path opacity="0.54" d="M21.9797 45.4734C23.0123 41.0538 32.9447 42.7646 25.6652 35.2169C19.6502 28.9802 19.235 12.624 19.2728 7.12808L14.7999 9.44832C14.7999 9.44832 20.0843 22.218 20.0843 25.4216C20.0843 28.6252 18.0892 55.0227 16.4715 62.5425C16.4715 62.5425 24.0476 64.1891 32.7156 64.695C32.996 62.5956 32.8342 60.1161 31.3352 57.9971C27.9731 53.2476 20.9471 49.8931 21.9797 45.4734Z" fill="#FFEB33"/>
<path d="M32.2248 14.578C37.4957 14.578 41.1355 7.93321 42.6938 4.41093L41.5992 4C41.5992 4 39.1646 12.9455 31.993 12.9455C26.2638 12.9455 23.5892 4.88896 23.5892 4.88896L22.3787 5.51794C24.2174 8.76067 28.0917 14.578 32.2248 14.578Z" fill="#FFEB33"/>
</g>
<defs>
<filter id="filter0_d" x="0" y="0" width="67" height="76.8202" filterUnits="userSpaceOnUse" color-interpolation-filters="sRGB">
<feFlood flood-opacity="0" result="BackgroundImageFix"/>
<feColorMatrix in="SourceAlpha" type="matrix" values="0 0 0 0 0 0 0 0 0 0 0 0 0 0 0 0 0 0 127 0"/>
<feOffset dy="4"/>
<feGaussianBlur stdDeviation="4"/>
<feColorMatrix type="matrix" values="0 0 0 0 0.5125 0 0 0 0 0.5125 0 0 0 0 0.5125 0 0 0 0.35 0"/>
<feBlend mode="normal" in2="BackgroundImageFix" result="effect1_dropShadow"/>
<feBlend mode="normal" in="SourceGraphic" in2="effect1_dropShadow" result="shape"/>
</filter>
</defs>
</svg>
