<svg width="33" height="32" viewBox="0 0 33 32" fill="none" xmlns="http://www.w3.org/2000/svg">
<path d="M20.6679 0.104421C20.1536 0.271718 19.6211 0.477253 19.6689 1.05371C19.7176 1.63112 20.0599 1.8663 20.0599 1.8663L21.014 1.98962C18.8917 0.794637 21.0044 -0.494025 22.7844 0.776476C22.1621 0.287013 21.0742 -0.027505 20.6679 0.104421Z" fill="#E5E5E5"/>
<path d="M24.1543 2.33281C24.0414 2.0116 23.4984 1.28601 22.7853 0.776474C22.9516 0.906488 23.0845 1.04988 23.1629 1.19997C23.5348 1.91218 23.8531 2.96663 23.8531 2.96663L25.3999 4.15969L24.3053 3.27541C24.3062 3.27446 24.3646 2.93221 24.1543 2.33281Z" fill="#E5E5E5"/>
<path d="M24.3025 3.47138C24.3082 3.12723 24.2566 2.78499 24.1476 2.46378C23.8942 1.66171 22.8025 0.790811 21.9833 0.446657C21.0187 0.0327169 20.5636 0.147434 20.0971 0.431361C19.4203 0.859641 19.7243 1.76591 20.3457 1.98961C19.5866 1.82231 19.1 0.534607 20.4948 0.069043C21.7261 -0.345853 23.9325 1.19328 24.2375 2.43797C24.3197 2.77734 24.3512 3.12914 24.3025 3.47138Z" fill="#E5E5E5"/>
<path d="M17.2981 10.1939C17.2981 10.1939 21.5455 5.29158 20.0599 1.86533L22.8476 4.16543L23.902 7.45401L17.2981 10.1939Z" fill="#E5E5E5"/>
<path d="M33 9.64513C33 9.64513 32.153 12.0752 31.1358 12.8792C30.1187 13.6832 22.1228 20.0739 22.1228 20.0739C22.1228 20.0739 14.2503 26.6186 11.2275 28.433C8.20467 30.2465 5.50881 31.1557 3.16569 31.2828C0.822581 31.41 0.250899 29.7772 0.250899 29.7772C0.250899 29.7772 0.0912531 29.563 0.0272023 29.2103C-0.0292007 28.9043 -0.0148617 28.4942 0.235606 28.0296C0.77478 27.0287 3.29188 25.0756 3.29188 25.0756C3.29188 25.0756 6.4189 22.0289 7.31466 19.5252C8.21041 17.0205 9.37576 13.5838 10.0077 11.3592C10.5096 9.59064 10.0765 7.19877 9.87764 6.29154C9.82793 6.06497 9.95221 5.83554 10.1711 5.7581C10.8088 5.53249 12.1357 5.27629 13.2848 6.43303C14.865 8.02283 20.9269 7.50851 21.793 6.2858C22.6591 5.06215 20.0627 1.86725 20.0627 1.86725C20.8695 1.66076 23.1916 2.2334 24.79 3.66546C26.3884 5.09752 29.5948 6.51715 29.5948 6.51715C31.6645 6.13572 33 9.64513 33 9.64513Z" fill="#FFFEFE"/>
<path d="M10.8088 26.4628C10.8088 26.4628 12.564 21.5299 12.2341 20.6877C11.9043 19.8464 8.45801 17.9698 8.45801 17.9698L9.38244 15.5627L10.4541 16.0091L11.0019 14.7615L10.0172 14.3046L10.9512 11.9089L12.0678 12.2903L12.6443 10.8975L11.6089 10.4969L12.6204 8.2599C12.6204 8.2599 21.1535 11.6269 27.3654 9.88029L27.2058 12.4978L10.8088 26.4628Z" fill="#FFFEFE"/>
<path d="M11.4864 5.71508C11.3105 5.85369 11.5849 8.83062 11.5849 8.83062L10.235 9.10308C10.0525 8.63083 9.89377 7.09074 9.82494 6.33933C9.80008 6.06688 9.91767 5.7992 10.1375 5.63573C10.3737 5.45983 10.6987 5.25047 11.0094 5.16061V5.15965C11.1394 5.12237 11.2656 5.10516 11.3822 5.11854C12.0094 5.19216 12.5839 5.87473 12.6193 5.9187C12.5705 5.90245 11.6576 5.57933 11.4864 5.71508Z" fill="#E5E5E5"/>
<path d="M11.4865 5.71508C11.3106 5.85369 11.585 8.83062 11.585 8.83062C11.585 8.83062 10.4761 6.13762 11.0095 5.16061V5.15965C11.1395 5.12237 11.2657 5.10516 11.3823 5.11854C12.0094 5.19216 12.584 5.87473 12.6194 5.9187C12.5706 5.90245 11.6576 5.57933 11.4865 5.71508Z" fill="#E5E5E5"/>
<path d="M8.45807 17.9708C8.45807 17.9708 8.24966 18.1429 7.81756 18.0922C7.38546 18.0415 7.46767 19.0874 7.46767 19.0874C7.46767 19.0874 8.79553 18.9363 9.36338 18.488L8.45807 17.9708Z" fill="#FFFEFE"/>
<path d="M9.38249 15.5636C9.38249 15.5636 9.10526 14.9843 8.94274 14.7778C8.78022 14.5723 9.25439 13.818 9.25439 13.818C9.25439 13.818 10.3652 15.3198 10.4551 16.0101L9.38249 15.5636Z" fill="#FFFEFE"/>
<path d="M8.58241 15.86C8.58241 15.86 10.4122 15.229 11.002 14.7625L10.0173 14.3055L8.91605 14.8552C8.91701 14.8562 8.20958 15.598 8.58241 15.86Z" fill="#FFFEFE"/>
<path d="M9.80874 12.0322L12.6442 10.8984L11.6089 10.4979L10.0516 11.1824C10.0516 11.1824 9.72652 11.647 9.80874 12.0322Z" fill="#E5E5E5"/>
<path d="M9.96477 10.8506L10.9513 11.9098L12.0679 12.2913L10.2152 10.0973C10.2152 10.0973 9.87778 10.5189 9.96477 10.8506Z" fill="#E5E5E5"/>
<path d="M12.6202 8.26086C12.6202 8.26086 13.8946 6.65959 14.3716 6.62708C14.8486 6.59458 15.3696 7.28862 15.3696 7.28862L13.7875 8.67289L12.6202 8.26086Z" fill="#E5E5E5"/>
<path d="M14.3144 11.2655L11.3298 18.53L12.6434 20.0883C12.6434 20.0883 21.6095 12.9844 22.2166 12.3773C22.8236 11.7703 15.6528 10.539 14.3144 11.2655Z" fill="#FFFEFE"/>
<path d="M33.0001 9.64417C33.0001 9.64417 32.1531 12.0743 31.136 12.8792C30.1188 13.6832 22.123 20.073 22.123 20.073C22.123 20.073 14.2505 26.6186 11.2276 28.4321C9.50878 29.4636 7.89603 30.2016 6.39419 30.67C6.39323 30.67 6.39132 30.671 6.39036 30.671C5.25083 31.0276 4.17631 31.2264 3.16584 31.2819C0.822723 31.4081 0.25104 29.7762 0.25104 29.7762C0.25104 29.7762 0.19655 29.7026 0.138235 29.5707C0.0971279 29.477 0.0541113 29.3546 0.0273438 29.2084C0.0502873 29.2409 1.19651 30.1118 2.92015 29.7083C6.18961 28.9435 10.9255 25.6999 12.7199 24.09C14.4034 22.5796 21.231 15.5713 24.1219 12.4538C24.3131 12.2483 24.4871 12.0599 24.641 11.8907C27.1294 9.15757 29.0644 7.48461 29.593 6.51524C31.4046 6.18352 32.6531 8.82489 32.938 9.49312C32.9791 9.58872 33.0001 9.64417 33.0001 9.64417Z" fill="#FFFEFE"/>
<path d="M33 9.64417C33 9.64417 32.153 12.0743 31.1358 12.8792C30.1187 13.6832 22.1228 20.073 22.1228 20.073C22.1228 20.073 14.2503 26.6186 11.2275 28.4321C9.50863 29.4636 7.89589 30.2016 6.39404 30.6701C13.6213 28.0516 20.0187 19.3292 24.1218 12.4538C24.313 12.2483 24.487 12.0599 24.6409 11.8907C27.1293 9.15758 29.0642 7.48461 29.5929 6.51524C31.4045 6.18352 32.653 8.82489 32.9379 9.49312C32.979 9.58872 33 9.64417 33 9.64417Z" fill="#FFFEFE"/>
<path d="M32.938 9.49312C32.9791 9.58872 33.0001 9.64417 33.0001 9.64417C33.0001 9.64417 32.1531 12.0743 31.1359 12.8783C30.1188 13.6822 22.1229 20.073 22.1229 20.073C22.1229 20.073 14.2504 26.6176 11.2276 28.4321C8.20476 30.2456 5.5089 31.1547 3.16578 31.2819C0.822671 31.409 0.250989 29.7762 0.250989 29.7762C0.250989 29.7762 0.196499 29.7026 0.138184 29.5707C0.598011 30.1204 1.25477 30.7503 1.89432 30.8259C3.05584 30.9616 5.44198 31.1308 11.2305 27.6635C17.0199 24.1961 26.6629 15.4202 28.5337 14.1803C30.1484 13.1106 32.2726 11.015 32.938 9.49312Z" fill="#FFFEFE"/>
<path d="M33 9.64512C32.6396 10.6632 31.9455 12.3037 31.087 12.9643C21.9545 20.376 15.5638 25.6521 11.8928 28.109C9.51911 29.6605 6.4332 31.0419 3.52701 31.2905C2.64559 31.3698 1.77087 31.2847 1.0491 30.7676C0.636119 30.4626 0.370352 30.0879 0.250854 29.7752C0.516618 30.4244 1.23361 31.0438 2.246 31.2044C2.66663 31.2714 3.0949 31.2637 3.52032 31.2188C7.71612 30.7886 11.629 28.0621 11.801 27.9704C15.4443 25.5125 20.3026 21.376 25.9897 16.8915C31.2142 12.6565 31.1721 13.0312 31.8767 11.9509C32.3059 11.2885 32.7246 10.3822 33 9.64512Z" fill="#FFFEFE"/>
<path d="M10.6539 13.1622C10.4292 13.7167 10.4063 14.231 10.6023 14.3103C10.7983 14.3897 11.1395 14.0044 11.3632 13.4499C11.5879 12.8955 11.6108 12.3811 11.4149 12.3018C11.2198 12.2225 10.8786 12.6077 10.6539 13.1622Z" fill="#FFFEFE"/>
<path d="M9.25241 17.0024C9.02776 17.5568 9.00481 18.0711 9.20079 18.1505C9.39677 18.2298 9.73709 17.8446 9.96175 17.2901C10.1864 16.7356 10.2094 16.2213 10.0134 16.142C9.8174 16.0626 9.47707 16.4479 9.25241 17.0024Z" fill="#FFFEFE"/>
<path d="M12.3498 9.34972C12.1252 9.90419 12.1022 10.4185 12.2982 10.4979C12.4942 10.5772 12.8345 10.1919 13.0592 9.63747C13.2838 9.083 13.3068 8.56868 13.1108 8.48934C12.9148 8.40999 12.5745 8.79525 12.3498 9.34972Z" fill="#E5E5E5"/>
<path d="M29.8653 11.6183L27.2918 14.1918C27.0413 14.4422 26.634 14.4422 26.3836 14.1918L25.5461 13.3543C25.2957 13.1039 25.2957 12.6966 25.5461 12.4461L28.1196 9.87264C28.3701 9.62217 28.7774 9.62217 29.0278 9.87264L29.8653 10.7101C30.1167 10.9615 30.1167 11.3678 29.8653 11.6183Z" fill="#FFFEFE"/>
<path d="M29.6741 11.6183L27.1006 14.1918C26.8501 14.4422 26.4429 14.4422 26.1924 14.1918L25.355 13.3543C25.1045 13.1039 25.1045 12.6966 25.355 12.4461L27.9285 9.87264C28.1789 9.62217 28.5862 9.62217 28.8367 9.87264L29.6741 10.7101C29.9255 10.9615 29.9255 11.3678 29.6741 11.6183Z" fill="#FFFEFE"/>
</svg>
