<svg width="28" height="27" viewBox="0 0 28 27" fill="none" xmlns="http://www.w3.org/2000/svg">
<g clip-path="url(#clip0)">
<path d="M26.6462 19.4897L13.5244 9.52429C13.0194 9.14074 12.7228 8.54313 12.7228 7.90896V6.71635C12.7228 5.96541 13.3316 5.35672 14.0825 5.35672C14.8333 5.35672 15.4421 5.96548 15.4421 6.71635V8.05075H18.1466V6.71635C18.1466 4.47178 16.327 2.65222 14.0825 2.65222C11.8379 2.65222 10.0183 4.47178 10.0183 6.71635V7.90896C10.0183 9.38864 10.7103 10.7831 11.8887 11.678L25.0105 21.6434H3.41958L11.2809 15.5382L9.62204 13.4022L1.76071 19.5074C1.10105 20.0198 0.715088 20.8082 0.715088 21.6434C0.715088 23.137 1.92589 24.3479 3.41958 24.3479H25.0105C25.8561 24.3479 26.6529 23.9524 27.1643 23.2791C28.0677 22.0896 27.8357 20.393 26.6462 19.4897Z" fill="white"/>
</g>
<defs>
<clipPath id="clip0">
<rect width="27" height="27" fill="white" transform="translate(0.715088)"/>
</clipPath>
</defs>
</svg>
