<svg width="26" height="23" viewBox="0 0 26 23" fill="none" xmlns="http://www.w3.org/2000/svg">
<path d="M23.3879 2.68924C22.0938 1.28562 20.318 0.512573 18.3874 0.512573C16.9443 0.512573 15.6227 0.968811 14.4592 1.86851C13.8721 2.32265 13.3402 2.87826 12.8712 3.52676C12.4023 2.87845 11.8702 2.32265 11.2829 1.86851C10.1196 0.968811 8.79801 0.512573 7.35491 0.512573C5.42429 0.512573 3.64836 1.28562 2.35423 2.68924C1.07554 4.07645 0.371155 5.9716 0.371155 8.02581C0.371155 10.1401 1.15908 12.0755 2.85071 14.1167C4.364 15.9426 6.53895 17.7962 9.0576 19.9425C9.91763 20.6755 10.8925 21.5064 11.9047 22.3914C12.1721 22.6256 12.5152 22.7545 12.8712 22.7545C13.2269 22.7545 13.5702 22.6256 13.8372 22.3918C14.8495 21.5066 15.8249 20.6753 16.6853 19.942C19.2036 17.796 21.3785 15.9426 22.8918 14.1165C24.5834 12.0755 25.3712 10.1401 25.3712 8.02562C25.3712 5.9716 24.6668 4.07645 23.3879 2.68924Z" fill="white"/>
</svg>
