<svg width="277" height="277" viewBox="0 0 277 277" fill="none" xmlns="http://www.w3.org/2000/svg">
<path d="M138.5 253.917C202.243 253.917 253.917 202.243 253.917 138.5C253.917 74.7573 202.243 23.0835 138.5 23.0835C74.7573 23.0835 23.0835 74.7573 23.0835 138.5C23.0835 202.243 74.7573 253.917 138.5 253.917Z" stroke="white" stroke-width="2" stroke-linecap="round" stroke-linejoin="round"/>
<path d="M104.914 103.874C107.627 96.1608 112.983 89.6564 120.033 85.5132C127.082 81.3701 135.371 79.8556 143.43 81.238C151.49 82.6203 158.8 86.8104 164.066 93.066C169.332 99.3217 172.214 107.239 172.202 115.416C172.202 138.499 137.577 150.041 137.577 150.041" stroke="white" stroke-width="2" stroke-linecap="round" stroke-linejoin="round"/>
<path d="M138.5 196.208H138.61" stroke="white" stroke-width="2" stroke-linecap="round" stroke-linejoin="round"/>
</svg>
