<svg width="36" height="32" viewBox="0 0 36 32" fill="none" xmlns="http://www.w3.org/2000/svg">
<path d="M34.7587 31.0345H1.24146V0.310359C1.24146 0.138938 1.38039 0 1.55181 0H34.4484C34.6198 0 34.7587 0.138938 34.7587 0.310359V31.0345Z" fill="#FFD782"/>
<path d="M34.7587 25.4486H1.24146V30.4141H34.7587V25.4486Z" fill="#FFAF5F"/>
<path d="M34.7587 11.1191C34.6315 11.1507 34.5006 11.1725 34.3636 11.1725C33.4599 11.1725 32.7273 10.4399 32.7273 9.53613C32.7273 10.4398 31.9946 11.1725 31.0909 11.1725C30.1872 11.1725 29.4545 10.4399 29.4545 9.53613C29.4545 10.4398 28.7219 11.1725 27.8181 11.1725C26.9144 11.1725 26.1817 10.4399 26.1817 9.53613C26.1817 10.4398 25.4491 11.1725 24.5453 11.1725C23.6416 11.1725 22.909 10.4399 22.909 9.53613C22.909 10.4398 22.1763 11.1725 21.2726 11.1725C20.3689 11.1725 19.6362 10.4399 19.6362 9.53613C19.6362 10.4398 18.9036 11.1725 17.9998 11.1725C17.096 11.1725 16.3634 10.4399 16.3634 9.53613C16.3634 10.4398 15.6308 11.1725 14.727 11.1725C13.8233 11.1725 13.0907 10.4399 13.0907 9.53613C13.0907 10.4398 12.3581 11.1725 11.4543 11.1725C10.5506 11.1725 9.8179 10.4399 9.8179 9.53613C9.8179 10.4398 9.08524 11.1725 8.18151 11.1725C7.27779 11.1725 6.54513 10.4399 6.54513 9.53613C6.54513 10.4398 5.81248 11.1725 4.90875 11.1725C4.00502 11.1725 3.27237 10.4399 3.27237 9.53613C3.27237 10.4398 2.53978 11.1725 1.63598 11.1725C1.49901 11.1725 1.36816 11.1507 1.24097 11.1191V12.374C1.37133 12.3921 1.5007 12.414 1.63598 12.414C2.24341 12.414 2.80746 12.2248 3.27237 11.9023C3.73741 12.2248 4.30139 12.4139 4.90889 12.4139C5.51632 12.4139 6.08037 12.2247 6.54527 11.9022C7.01018 12.2247 7.57422 12.4139 8.18165 12.4139C8.78908 12.4139 9.35313 12.2247 9.81804 11.9022C10.2829 12.2247 10.847 12.4139 11.4544 12.4139C12.0619 12.4139 12.6259 12.2247 13.0908 11.9022C13.5557 12.2247 14.1198 12.4139 14.7272 12.4139C15.3346 12.4139 15.8987 12.2247 16.3636 11.9022C16.8284 12.2248 17.3925 12.4139 17.9999 12.4139C18.6073 12.4139 19.1714 12.2247 19.6363 11.9022C20.1012 12.2247 20.6652 12.4139 21.2726 12.4139C21.8801 12.4139 22.4441 12.2247 22.909 11.9022C23.3739 12.2247 23.938 12.4139 24.5454 12.4139C25.1528 12.4139 25.7169 12.2247 26.1818 11.9022C26.6467 12.2247 27.2108 12.4139 27.8182 12.4139C28.4256 12.4139 28.9897 12.2247 29.4546 11.9022C29.9195 12.2247 30.4835 12.4139 31.0909 12.4139C31.6984 12.4139 32.2624 12.2247 32.7273 11.9022C33.1922 12.2247 33.7563 12.4139 34.3637 12.4139C34.4989 12.4139 34.6284 12.3921 34.7587 12.3739V11.1191H34.7587Z" fill="#FFAF5F"/>
<path d="M21.724 14.8967H4.34485V27.3104H21.724V14.8967Z" fill="#B4E1FA"/>
<path d="M31.6555 14.8967H24.2073V27.3104H31.6555V14.8967Z" fill="#B4E1FA"/>
<path d="M31.6555 14.8967H24.2073V16.7588H31.6555V14.8967Z" fill="#A0D2F0"/>
<path d="M31.6552 20.6897L27.3103 14.8966H26.069L31.6552 22.3449V20.6897Z" fill="#DAF0FD"/>
<path d="M24.8276 14.8966H24.2069V17.3793L31.6552 27.3103V24L24.8276 14.8966Z" fill="#A0D2F0"/>
<path d="M28.7069 16.7586L27.3103 14.8966H26.069L27.4655 16.7586H28.7069Z" fill="#B4E1FA"/>
<path d="M19.862 27.3103H18.6207L9.3103 14.8966H10.5517L19.862 27.3103Z" fill="#DAF0FD"/>
<path d="M17.3793 27.3103H14.8965L5.58618 14.8966H8.06899L17.3793 27.3103Z" fill="#A0D2F0"/>
<path d="M21.724 14.8975H4.34485V16.7595H21.724V14.8975Z" fill="#A0D2F0"/>
<path d="M11.9482 16.7586L10.5517 14.8966H9.3103L10.7069 16.7586H11.9482Z" fill="#B4E1FA"/>
<path d="M14.7272 11.1724C13.8235 11.1724 13.0908 10.4398 13.0908 9.53604V8.06897H16.3636V9.53604C16.3636 10.4398 15.6309 11.1724 14.7272 11.1724Z" fill="#FF9995"/>
<path d="M21.2727 11.1724C20.369 11.1724 19.6364 10.4398 19.6364 9.53604V8.06897H22.9091V9.53604C22.909 10.4398 22.1765 11.1724 21.2727 11.1724Z" fill="#FF9995"/>
<path d="M8.18191 11.1724C7.27819 11.1724 6.54553 10.4398 6.54553 9.53604V8.06897H9.8183V9.53604C9.81823 10.4398 9.08564 11.1724 8.18191 11.1724Z" fill="#FF9995"/>
<path d="M1.63638 11.1724C0.732656 11.1724 0 10.4398 0 9.53604V8.06897H3.27277V9.53604C3.27277 10.4398 2.54011 11.1724 1.63638 11.1724Z" fill="#FF9995"/>
<path d="M27.8181 11.1724C26.9144 11.1724 26.1818 10.4398 26.1818 9.53604V8.06897H29.4545V9.53604C29.4545 10.4398 28.7219 11.1724 27.8181 11.1724Z" fill="#FF9995"/>
<path d="M11.4545 11.1724C10.5508 11.1724 9.81812 10.4398 9.81812 9.53604V8.06897H13.0909V9.53604C13.0909 10.4398 12.3583 11.1724 11.4545 11.1724Z" fill="#C7CFE2"/>
<path d="M24.5454 11.1724C23.6417 11.1724 22.9091 10.4398 22.9091 9.53604V8.06897H26.1818V9.53604C26.1818 10.4398 25.4492 11.1724 24.5454 11.1724Z" fill="#C7CFE2"/>
<path d="M34.3637 11.1724C33.4599 11.1724 32.7273 10.4398 32.7273 9.53604V8.06897H36.0001V9.53604C36.0001 10.4398 35.2674 11.1724 34.3637 11.1724Z" fill="#FF9995"/>
<path d="M31.091 11.1724C30.1872 11.1724 29.4546 10.4398 29.4546 9.53604V8.06897H32.7274V9.53604C32.7273 10.4398 31.9946 11.1724 31.091 11.1724Z" fill="#C7CFE2"/>
<path d="M4.90909 11.1724C4.00536 11.1724 3.27271 10.4398 3.27271 9.53604V8.06897H6.54547V9.53604C6.54547 10.4398 5.81281 11.1724 4.90909 11.1724Z" fill="#C7CFE2"/>
<path d="M18 11.1724C17.0963 11.1724 16.3636 10.4398 16.3636 9.53604V8.06897H19.6364V9.53604C19.6364 10.4398 18.9038 11.1724 18 11.1724Z" fill="#C7CFE2"/>
<path d="M16.3636 5.06905H13.0909L13.4295 0.103516H16.4766L16.3636 5.06905Z" fill="#FEB137"/>
<path d="M22.909 5.06905H19.6364L19.5234 0.103516H22.5705L22.909 5.06905Z" fill="#FEB137"/>
<path d="M9.81823 5.06905H6.54553L7.33549 0.103516H10.3825L9.81823 5.06905Z" fill="#FEB137"/>
<path d="M3.27277 5.06905H0L1.24137 0.103516H4.28843L3.27277 5.06905Z" fill="#FEB137"/>
<path d="M29.4545 5.06905H26.1818L25.6176 0.103516H28.6645L29.4545 5.06905Z" fill="#FEB137"/>
<path d="M13.0909 5.06905H9.81812L10.3824 0.103516H13.4294L13.0909 5.06905Z" fill="#EFF2FA"/>
<path d="M26.1818 5.06905H22.909L22.5704 0.103516H25.6175L26.1818 5.06905Z" fill="#EFF2FA"/>
<path d="M36 5.06905H32.7272L31.7115 0.103516H34.7586L36 5.06905Z" fill="#FEB137"/>
<path d="M32.7271 5.06905H29.4544L28.6644 0.103516H31.7114L32.7271 5.06905Z" fill="#EFF2FA"/>
<path d="M6.5454 5.06905H3.27271L4.28837 0.103516H7.33536L6.5454 5.06905Z" fill="#EFF2FA"/>
<path d="M19.6363 5.06905H16.3635L16.4764 0.103516H19.5234L19.6363 5.06905Z" fill="#EFF2FA"/>
<path d="M21.1035 15.5172V26.6897H4.96556V15.5172H21.1035ZM21.7242 14.2759H4.34484C4.00207 14.2759 3.72412 14.5538 3.72412 14.8966V27.3104C3.72412 27.6532 4.00207 27.9311 4.34484 27.9311H21.7241C22.0669 27.9311 22.3448 27.6532 22.3448 27.3104V14.8966C22.3448 14.5538 22.067 14.2759 21.7242 14.2759Z" fill="#8F96AC"/>
<path d="M31.6552 14.2759H24.2069C23.8641 14.2759 23.5862 14.5538 23.5862 14.8966V30.4139H32.2758V14.8966C32.2758 14.5538 31.9979 14.2759 31.6552 14.2759ZM31.0345 26.6897H24.8275V15.5172H31.0345V26.6897Z" fill="#8F96AC"/>
<path d="M35.6896 31.6553H0.310359C0.138938 31.6553 0 31.5163 0 31.3449V30.7242C0 30.5528 0.138938 30.4138 0.310359 30.4138H35.6896C35.8611 30.4138 36 30.5528 36 30.7242V31.3449C36 31.5163 35.8611 31.6553 35.6896 31.6553Z" fill="#8F96AC"/>
</svg>
