<svg width="25" height="23" viewBox="0 0 25 23" fill="none" xmlns="http://www.w3.org/2000/svg">
<path d="M24.9544 5.49044L23.1687 0.561876C23.0473 0.226262 22.7059 -9.62304e-05 22.3214 3.06901e-08H2.67857C2.2941 -9.62304e-05 1.95274 0.226262 1.83126 0.561876L0.0455148 5.49044C0.0179966 5.56716 0.00261579 5.64711 0 5.72782C0 5.73605 0 5.74178 0 5.75001V6.57146C0.00324358 7.85847 0.664777 9.06905 1.7857 9.83909C1.7857 9.84568 1.7857 9.85059 1.7857 9.85714V20.5357C1.7857 21.8967 2.98493 23 4.46426 23H20.5357C22.015 23 23.2143 21.8967 23.2143 20.5357V9.85714C23.2143 9.85054 23.2143 9.84563 23.2143 9.83909C24.3352 9.06905 24.9968 7.85847 24.9999 6.57146V5.75001C24.9999 5.74178 24.9999 5.73605 24.9999 5.72782C24.9973 5.64706 24.982 5.56712 24.9544 5.49044ZM18.75 1.64284H21.6777L22.8688 4.92857H18.75V1.64284ZM13.3928 1.64284H16.9643V4.92857H13.3928V1.64284ZM8.03571 1.64284H11.6072V4.92857H8.03571V1.64284ZM3.32232 1.64284H6.25001V4.92857H2.13124L3.32232 1.64284ZM14.2857 21.3571H10.7143V14.7857H14.2857V21.3571ZM21.4286 20.5357C21.4286 20.9894 21.0288 21.3572 20.5357 21.3572H16.0714V13.9643C16.0714 13.5106 15.6717 13.1429 15.1785 13.1429H9.8214C9.32827 13.1429 8.92853 13.5106 8.92853 13.9643V21.3572H4.46426C3.97114 21.3572 3.57139 20.9894 3.57139 20.5357V10.5964C4.82441 10.8331 6.12738 10.558 7.14283 9.84236C8.73669 10.9193 10.9061 10.9193 12.5 9.84236C14.0938 10.9193 16.2633 10.9193 17.8571 9.84236C18.8726 10.558 20.1755 10.8331 21.4286 10.5964V20.5357ZM20.5357 9.03569C19.7636 9.03526 19.0303 8.72366 18.5294 8.18306C18.205 7.84148 17.6409 7.80653 17.2696 8.10504C17.2395 8.12925 17.2111 8.15534 17.1848 8.18306C16.192 9.20246 14.489 9.28838 13.381 8.37505C13.3077 8.3146 13.238 8.25054 13.1723 8.18306C12.8229 7.84148 12.2386 7.82511 11.8673 8.14662C11.8537 8.15842 11.8404 8.17055 11.8277 8.18306C10.8349 9.20246 9.13188 9.28838 8.02383 8.37505C7.95049 8.3146 7.88085 8.25054 7.81515 8.18306C7.46573 7.84148 6.88141 7.82511 6.51013 8.14662C6.49652 8.15842 6.48329 8.17055 6.47052 8.18306C5.9696 8.72366 5.23645 9.03526 4.46426 9.03569C2.98493 9.03569 1.7857 7.9324 1.7857 6.57141H23.2143C23.2143 7.9324 22.015 9.03569 20.5357 9.03569Z" fill="url(#paint0_linear)"/>
<defs>
<linearGradient id="paint0_linear" x1="12.5" y1="0" x2="12.5" y2="23" gradientUnits="userSpaceOnUse">
<stop stop-color="#FEDB41"/>
<stop offset="0.9999" stop-color="#FFB654"/>
<stop offset="1" stop-color="#EBA758"/>
</linearGradient>
</defs>
</svg>
