<svg width="32" height="45" viewBox="0 0 32 45" fill="none" xmlns="http://www.w3.org/2000/svg">
<path d="M7.2944 30.7935L5.55004 30.8785L2.16805 40.5951C2.06029 40.9046 2.31105 41.2211 2.63701 41.1869L7.37758 40.6905C7.51001 40.6767 7.64167 40.7225 7.73689 40.8156L11.1447 44.1481C11.379 44.3772 11.7721 44.2849 11.8798 43.9754L15.2838 34.1953L14.2801 33.2211L7.2944 30.7935Z" fill="#FF4755"/>
<path d="M15.2838 34.1953L15.9717 32.2192L6.23583 28.9083L5.55005 30.8786C8.31466 32.8513 11.6621 34.0589 15.2838 34.1953Z" fill="#FC2B3A"/>
<path d="M24.6489 30.7935L26.3933 30.8785L29.7752 40.5951C29.883 40.9046 29.6322 41.2211 29.3063 41.1869L24.5657 40.6905C24.4333 40.6767 24.3016 40.7225 24.2065 40.8156L20.7986 44.1481C20.5644 44.3772 20.1713 44.2849 20.0636 43.9754L16.6595 34.1953L17.6633 33.2211L24.6489 30.7935Z" fill="#FF4755"/>
<path d="M16.6595 34.1953L15.9717 32.2192L25.7075 28.9083L26.3933 30.8786C23.6287 32.8513 20.2813 34.0589 16.6595 34.1953Z" fill="#FC2B3A"/>
<path d="M15.9708 31.2233C-0.000881677 31.2233 0.00582208 15.7091 0.0190565 15.4425C0.438346 6.99568 7.41982 0.275879 15.9708 0.275879C24.5217 0.275879 31.5032 6.99568 31.9225 15.4426C31.9357 15.7092 31.9424 31.2233 15.9708 31.2233Z" fill="#FFE27A"/>
<path d="M15.9717 30.6092C7.4207 30.6092 0.439484 23.8894 0.0201095 15.4425C0.0068751 15.7092 0 15.9776 0 16.2475C0 25.0684 7.15077 32.2191 15.9717 32.2191C24.7925 32.2191 31.9433 25.0684 31.9433 16.2475C31.9433 15.9775 31.9364 15.7092 31.9232 15.4425C31.5038 23.8894 24.5226 30.6092 15.9717 30.6092Z" fill="#F9CF58"/>
<path d="M15.9716 27.7868C3.41468 27.7868 3.39784 15.4391 3.41468 15.1728C3.82985 8.59897 9.29307 3.39563 15.9716 3.39563C22.6502 3.39563 28.1134 8.59897 28.5286 15.1728C28.5454 15.439 28.5286 27.7868 15.9716 27.7868Z" fill="#FFBA57"/>
<path d="M15.9717 27.2198C9.29322 27.2198 3.83095 22.0163 3.41579 15.4425C3.39894 15.7087 3.3894 15.977 3.3894 16.2475C3.3894 23.1965 9.02269 28.8298 15.9717 28.8298C22.9207 28.8298 28.554 23.1965 28.554 16.2475C28.554 15.977 28.5444 15.7087 28.5276 15.4425C28.1124 22.0163 22.6501 27.2198 15.9717 27.2198Z" fill="#FFAC3E"/>
<path d="M16.6893 23.7213C15.8157 23.7213 15.1075 23.0132 15.1075 22.1395V21.3029V13.275C15.1075 13.275 14.1611 14.2242 13.0287 13.6547C12.1458 13.2106 12.1458 12.0678 12.1458 12.0678L14.0959 8.77583C14.3807 8.2951 14.8981 8.00024 15.4568 8.00024H16.6893C17.5628 8.00024 18.2711 8.70837 18.2711 9.58201V21.3029V22.1395C18.2711 23.0132 17.5628 23.7213 16.6893 23.7213Z" fill="#FFE27A"/>
<path d="M14.8902 12.0321C14.4704 12.7409 13.5777 13.0482 12.8333 12.6954C12.532 12.5527 12.2997 12.3309 12.1452 12.0689C11.706 12.8119 11.9438 13.7678 12.6751 14.2194C13.4293 14.6852 14.4371 14.4071 14.8888 13.6444L15.1076 13.275V12.0915C15.1076 11.9728 14.9508 11.9299 14.8902 12.0321Z" fill="#F9CF58"/>
<path d="M16.6893 22.8847C15.8158 22.8847 15.1075 22.1766 15.1075 21.303V22.913C15.1075 23.7867 15.8158 24.4948 16.6893 24.4948C17.5629 24.4948 18.2711 23.7867 18.2711 22.913V21.303C18.2711 22.1766 17.5629 22.8847 16.6893 22.8847Z" fill="#F9CF58"/>
</svg>
