<svg width="23" height="16" viewBox="0 0 23 16" fill="none" xmlns="http://www.w3.org/2000/svg">
<path d="M23 11.3152V13.9339C23 14.8232 20.6284 15.5644 17.7133 15.5644C14.7981 15.5644 12.4759 14.848 12.4759 13.9586V13.6622L12.4265 11.587H12.4512C12.8465 12.3528 15.0205 12.9457 17.6391 12.9457C20.2577 12.9457 22.9506 12.2046 22.9506 11.3152H23V11.3152Z" fill="#E2A63B"/>
<path d="M17.565 1.58179V4.17574H17.5156C17.5156 5.08983 15.0699 5.80625 12.1794 5.80625C11.0678 5.83094 9.93133 5.70743 8.84433 5.43567L8.79491 5.48509C8.25141 5.04041 7.63381 4.69456 6.9668 4.47223V4.42281L6.8927 1.68061C7.06562 2.52055 9.36315 3.18757 12.1548 3.18757C14.9464 3.18757 17.5156 2.47114 17.5156 1.58179H17.565Z" fill="#F4B844"/>
<path d="M17.565 1.63111C17.565 2.52046 15.1192 3.23689 12.2041 3.23689C9.289 3.23689 7.09031 2.56987 6.91738 1.72994C6.91738 1.70525 6.8927 1.65584 6.8927 1.63111C6.8927 0.741757 9.26432 0.000599199 12.2042 0.000599199C15.1439 -0.024084 17.565 0.717027 17.565 1.63111Z" fill="#FEDB41"/>
<path d="M12.4512 11.587L12.4265 11.0435L12.3771 8.82012C12.55 9.66005 14.8475 10.3271 17.6391 10.3271C20.4307 10.3271 22.9012 9.61064 22.9753 8.74597H23V11.3152H22.9506C22.9506 12.2046 20.5542 12.9458 17.6391 12.9458C14.724 12.9457 12.8465 12.3528 12.4512 11.587Z" fill="#F4B844"/>
<path d="M8.91846 13.2423C9.58547 12.6247 10.1043 11.8341 10.376 10.9695H10.4995C11.043 11.0189 11.5865 11.0436 12.1794 11.0436H12.4264V11.5871L12.4759 13.6623H12.2041C11.1171 13.687 10.0548 13.5634 8.99255 13.3164L8.91846 13.2423Z" fill="#E2A63B"/>
<path d="M12.4512 8.62251V8.74602L12.5006 11.0435H12.2536C11.636 11.0435 11.0677 11.0189 10.5243 10.9694H10.4008C10.5737 10.4507 10.6478 9.90717 10.6478 9.36367C10.6478 8.99309 10.5984 8.64724 10.5243 8.30139H10.6478C11.1666 8.35081 11.6854 8.37549 12.2536 8.37549L12.4759 8.499C12.4512 8.54836 12.4512 8.59778 12.4512 8.62251Z" fill="#F4B844"/>
<path d="M8.84441 5.43559C9.93142 5.70734 11.0678 5.83085 12.1795 5.80617C15.0699 5.80617 17.5157 5.08974 17.5157 4.17566H17.5651V7.09078C14.8723 7.09078 12.6736 7.73311 12.4019 8.54832L12.1795 8.42481C11.636 8.42481 11.1173 8.40012 10.6232 8.35071H10.4997C10.2773 7.21429 9.6844 6.20143 8.79504 5.46027L8.84441 5.43559Z" fill="#E2A63B"/>
<path d="M10.549 8.35071C10.302 7.21429 9.68432 6.17675 8.79497 5.41091C8.25147 4.91682 7.60914 4.57097 6.91744 4.37331C6.42335 4.20039 5.87985 4.12629 5.36108 4.12629C2.42123 4.10152 0.0248761 6.44845 0.000192927 9.38825C-0.0244903 12.3281 2.3224 14.7244 5.26225 14.7491C6.62101 14.7491 7.90562 14.255 8.91848 13.3409C9.61023 12.6986 10.129 11.8834 10.4008 10.994C10.5737 10.4752 10.6478 9.95639 10.6478 9.41289C10.6478 9.06714 10.549 8.69656 10.549 8.35071Z" fill="#FEDB41"/>
<path d="M22.9753 8.69655V8.74597C22.9012 9.61063 20.5048 10.3271 17.6391 10.3271C14.7734 10.3271 12.55 9.66005 12.3771 8.82011V8.6966C12.3771 8.64718 12.3771 8.59777 12.4018 8.54836C12.6735 7.7331 14.8722 7.09082 17.565 7.09082H17.6391C20.5543 7.09077 22.9753 7.8072 22.9753 8.69655Z" fill="#FEDB41"/>
<path d="M5.36113 8.77071C4.91645 8.77071 4.54587 8.40013 4.54587 7.95546C4.54587 7.51078 4.91645 7.1402 5.36113 7.1402C5.8058 7.1402 6.17638 7.51078 6.17638 7.95546C6.17638 8.22721 6.39872 8.44954 6.67047 8.44954C6.94222 8.44954 7.16456 8.22721 7.16456 7.95546C7.16456 7.16493 6.62106 6.44851 5.85521 6.22617V6.02851C5.85521 5.75676 5.63288 5.53442 5.36113 5.53442C5.08937 5.53442 4.86704 5.75676 4.86704 6.02851V6.22617C4.07651 6.42382 3.53301 7.14025 3.55769 7.95546C3.55769 8.94363 4.37295 9.75889 5.36113 9.75889C5.8058 9.75889 6.17638 10.1295 6.17638 10.5741C6.17638 11.0188 5.8058 11.3894 5.36113 11.3894C4.91645 11.3894 4.54587 11.0188 4.54587 10.5741C4.54587 10.3024 4.32353 10.0801 4.05178 10.0801C3.78003 10.0801 3.55769 10.3024 3.55769 10.5741C3.55769 11.3894 4.1012 12.0811 4.86704 12.3034V12.6987C4.86704 12.9704 5.08937 13.1928 5.36113 13.1928C5.63288 13.1928 5.85521 12.9704 5.85521 12.6987V12.3034C6.81866 12.0317 7.36217 11.0188 7.06573 10.0553C6.84339 9.31421 6.15165 8.77071 5.36113 8.77071Z" fill="#E2A63B"/>
</svg>
