<svg width="38" height="39" viewBox="0 0 38 39" fill="none" xmlns="http://www.w3.org/2000/svg">
<path d="M19 38.2759C29.4934 38.2759 38 29.7693 38 19.2759C38 8.78247 29.4934 0.275879 19 0.275879C8.50659 0.275879 0 8.78247 0 19.2759C0 29.7693 8.50659 38.2759 19 38.2759Z" fill="url(#paint0_linear)"/>
<path d="M19.0001 0.275879C18.4983 0.275879 18.0011 0.295699 17.5092 0.333848C27.3056 1.09429 35.0182 9.28426 35.0182 19.2759C35.0182 29.2675 27.3056 37.4575 17.5092 38.2179C18.0011 38.2561 18.4983 38.2759 19.0001 38.2759C29.4935 38.2759 38.0001 29.7693 38.0001 19.2759C38.0001 8.78244 29.4935 0.275879 19.0001 0.275879Z" fill="url(#paint1_linear)"/>
<path d="M19.0002 32.6959C26.4118 32.6959 32.4201 26.6876 32.4201 19.2759C32.4201 11.8643 26.4118 5.85596 19.0002 5.85596C11.5885 5.85596 5.5802 11.8643 5.5802 19.2759C5.5802 26.6876 11.5885 32.6959 19.0002 32.6959Z" fill="url(#paint2_linear)"/>
<path d="M19.0001 5.85596C18.496 5.85596 17.9988 5.88472 17.5092 5.93881C24.219 6.68063 29.4382 12.3683 29.4382 19.2758C29.4382 26.1833 24.219 31.8711 17.5092 32.6129C17.9988 32.667 18.496 32.6957 19.0001 32.6957C26.4117 32.6957 32.4201 26.6874 32.4201 19.2758C32.4201 11.8641 26.4117 5.85596 19.0001 5.85596Z" fill="url(#paint3_linear)"/>
<path d="M20.2339 17.2405V13.5259C21.8878 13.653 22.3711 14.4672 23.2106 14.4672C24.3302 14.4672 24.7881 13.0678 24.7881 12.3809C24.7881 10.6254 21.8112 10.2184 20.2339 10.1675V9.53139C20.2339 9.17523 19.7504 8.84448 19.2671 8.84448C18.7074 8.84448 18.3003 9.17523 18.3003 9.53139V10.2438C15.6035 10.6253 13.2118 12.1774 13.2118 15.4086C13.2118 18.6652 15.9596 19.7592 18.3003 20.6497V24.7713C16.4176 24.4406 15.5525 22.9395 14.4839 22.9395C13.5171 22.9395 12.7539 24.2116 12.7539 25.0766C12.7539 26.7049 15.2472 28.2823 18.3003 28.3841V29.0201C18.3003 29.3763 18.7074 29.7071 19.2671 29.7071C19.7505 29.7071 20.2339 29.3763 20.2339 29.0201V28.2822C23.2105 27.7988 25.246 25.8907 25.246 22.7359C25.2461 19.3013 22.5491 18.1055 20.2339 17.2405ZM18.5547 16.6299C17.588 16.2228 16.9264 15.7648 16.9264 15.027C16.9264 14.4164 17.4099 13.8313 18.5547 13.6022V16.6299ZM19.9795 24.7459V21.3366C20.8954 21.7692 21.5315 22.3034 21.5315 23.1431C21.5315 24.059 20.8446 24.5424 19.9795 24.7459Z" fill="url(#paint4_linear)"/>
<defs>
<linearGradient id="paint0_linear" x1="-0.894118" y1="19.2759" x2="37.5634" y2="19.2759" gradientUnits="userSpaceOnUse">
<stop stop-color="#FFF9DF"/>
<stop offset="0.593" stop-color="#FFE177"/>
<stop offset="1" stop-color="#FEB137"/>
</linearGradient>
<linearGradient id="paint1_linear" x1="3.57657" y1="19.2759" x2="34.5156" y2="19.2759" gradientUnits="userSpaceOnUse">
<stop stop-color="#FFE177"/>
<stop offset="1" stop-color="#FEB137"/>
</linearGradient>
<linearGradient id="paint2_linear" x1="10.1335" y1="19.2759" x2="27.0674" y2="19.2759" gradientUnits="userSpaceOnUse">
<stop stop-color="#FFE177"/>
<stop offset="1" stop-color="#FEB137"/>
</linearGradient>
<linearGradient id="paint3_linear" x1="14.306" y1="19.2759" x2="35.1821" y2="19.2759" gradientUnits="userSpaceOnUse">
<stop stop-color="#FEB137"/>
<stop offset="1" stop-color="#ECA026"/>
</linearGradient>
<linearGradient id="paint4_linear" x1="9.61898" y1="19.2759" x2="27.2801" y2="19.2759" gradientUnits="userSpaceOnUse">
<stop stop-color="#FFF9DF"/>
<stop offset="0.593" stop-color="#FFE177"/>
<stop offset="1" stop-color="#FEB137"/>
</linearGradient>
</defs>
</svg>
