<svg width="27" height="27" viewBox="0 0 27 27" fill="none" xmlns="http://www.w3.org/2000/svg">
<g clip-path="url(#clip0)">
<path d="M26.6789 0.246336C26.4737 0.0650241 26.202 -0.022044 25.9296 0.00620653L8.57251 1.93476C8.08395 1.98883 7.71426 2.40174 7.71432 2.89324V20.0778C6.84036 19.5548 5.83995 19.281 4.82146 19.2861C2.16292 19.2862 0 21.0161 0 23.1433C0 25.2705 2.16292 27.0004 4.82141 27.0004C7.4799 27.0004 9.64281 25.2715 9.64281 23.1433V8.58262L25.0714 6.86425V18.1464C24.1972 17.6244 23.1967 17.3516 22.1785 17.3576C19.52 17.3576 17.3571 19.0875 17.3571 21.2147C17.3571 23.3419 19.52 25.0719 22.1785 25.0719C24.837 25.0719 26.9999 23.3429 26.9999 21.2147V0.964747C26.9999 0.690491 26.8832 0.42923 26.6789 0.246336Z" fill="white"/>
</g>
<defs>
<clipPath id="clip0">
<rect width="27" height="27" fill="white"/>
</clipPath>
</defs>
</svg>
