<svg width="48" height="35" viewBox="0 0 48 35" fill="none" xmlns="http://www.w3.org/2000/svg">
<path d="M40.6789 5.44043C40.4737 5.25912 40.202 5.17205 39.9296 5.2003L22.5725 7.12885C22.0839 7.18292 21.7143 7.59583 21.7143 8.08733V25.2719C20.8404 24.7489 19.84 24.4751 18.8215 24.4802C16.1629 24.4803 14 26.2102 14 28.3374C14 30.4646 16.1629 32.1945 18.8214 32.1945C21.4799 32.1945 23.6428 30.4655 23.6428 28.3374V13.7767L39.0714 12.0583V23.3405C38.1972 22.8185 37.1967 22.5457 36.1785 22.5517C33.52 22.5517 31.3571 24.2816 31.3571 26.4088C31.3571 28.536 33.52 30.266 36.1785 30.266C38.837 30.266 40.9999 28.537 40.9999 26.4088V6.15884C40.9999 5.88458 40.8832 5.62332 40.6789 5.44043Z" fill="white"/>
<rect x="14" y="2.89868" width="3" height="44.2987" transform="rotate(-45 14 2.89868)" fill="white"/>
</svg>
