<svg width="33" height="16" viewBox="0 0 33 16" fill="none" xmlns="http://www.w3.org/2000/svg">
<path d="M30.8228 7.02952H4.56132L8.91164 2.70028C9.39706 2.21716 9.39892 1.43203 8.9158 0.946611C8.43268 0.461134 7.64748 0.459337 7.16207 0.942395L0.682593 7.39062C0.682159 7.39099 0.681849 7.39143 0.681477 7.3918C0.197302 7.87492 0.195752 8.66259 0.681353 9.14733C0.681787 9.1477 0.682097 9.14813 0.682469 9.1485L7.16194 15.5967C7.6473 16.0797 8.43249 16.0781 8.91567 15.5925C9.3988 15.1071 9.39693 14.322 8.91152 13.8388L4.56132 9.5096H30.8228C31.5077 9.5096 32.0629 8.95444 32.0629 8.26956C32.0629 7.58469 31.5077 7.02952 30.8228 7.02952Z" fill="white"/>
</svg>
