<svg width="24" height="24" viewBox="0 0 24 24" fill="none" xmlns="http://www.w3.org/2000/svg">
<g clip-path="url(#clip0)">
<path d="M18.4836 20.1514H5.07183C4.48763 20.1514 4.01404 20.6339 4.01404 21.2291V21.2293C4.01404 21.8245 4.48763 22.3071 5.07183 22.3071H18.4836C19.0678 22.3071 19.5414 21.8245 19.5414 21.2293V21.2291C19.5414 20.6339 19.0678 20.1514 18.4836 20.1514Z" fill="#2D3C6B"/>
<path d="M17.5747 20.1514H5.98096L8.5706 15.1819H14.9851L17.5747 20.1514Z" fill="#FFC839"/>
<path d="M8.42944 18.6514L9.45577 16.6819H14.0999L15.1262 18.6514H8.42944Z" fill="#FF9100"/>
<path d="M6.10168 1.69299V9.20968C6.10213 10.08 6.33136 10.9343 6.76554 11.6838C7.19972 12.4334 7.823 13.0507 8.5706 13.4717H14.9851C15.7327 13.0507 16.356 12.4334 16.7901 11.6838C17.2243 10.9343 17.4535 10.08 17.454 9.20968V1.69299H6.10168Z" fill="#FFC839"/>
<path d="M10.3089 7.5823L9.2334 6.08568L11.0433 6.28612L11.7778 4.58887L12.5122 6.28612L14.3221 6.08568L13.2467 7.5823L14.3221 9.07893L12.5122 8.87849L11.7778 10.5757L11.0433 8.87849L9.2334 9.07893L10.3089 7.5823Z" fill="#FCF9F0"/>
<path d="M8.57056 13.4717H14.9852V15.1819H8.57056V13.4717Z" fill="#FF9100"/>
<path d="M20.6566 3.08875H17.4545V4.58874H20.6566C20.9493 4.58909 21.23 4.70773 21.437 4.91863C21.644 5.12954 21.7604 5.41548 21.7608 5.71374V8.10137C21.7614 8.35453 21.6779 8.60046 21.524 8.79916C21.37 8.99787 21.1546 9.13766 20.9128 9.19581L17.3794 10.0547C17.2758 10.655 17.0623 11.23 16.7499 11.7497L21.2551 10.6547C21.8193 10.5192 22.3219 10.193 22.6811 9.72944C23.0404 9.26584 23.2351 8.69203 23.2335 8.10137V5.71374C23.2328 5.0177 22.961 4.3504 22.4779 3.85827C21.9948 3.36614 21.3398 3.08939 20.6566 3.08875Z" fill="#FF9100"/>
<path d="M2.89903 3.08875H6.10111V4.58874H2.89903C2.60629 4.58909 2.32564 4.70773 2.11864 4.91863C1.91165 5.12954 1.7952 5.41548 1.79486 5.71374V8.10137C1.79424 8.35453 1.8777 8.60046 2.03166 8.79916C2.18562 8.99787 2.40103 9.13766 2.64286 9.19581L6.1762 10.0547C6.27972 10.655 6.4933 11.23 6.80576 11.7497L2.30039 10.6547C1.73628 10.519 1.23382 10.1928 0.874745 9.72925C0.515666 9.26566 0.321083 8.69193 0.322641 8.10137V5.71374C0.32342 5.01779 0.595111 4.35058 1.07811 3.85847C1.56111 3.36636 2.21597 3.08954 2.89903 3.08875Z" fill="#FF9100"/>
</g>
<defs>
<clipPath id="clip0">
<rect width="23.5556" height="24" fill="white"/>
</clipPath>
</defs>
</svg>
