<svg width="23" height="23" viewBox="0 0 23 23" fill="none" xmlns="http://www.w3.org/2000/svg">
<path d="M22.2345 8.83881L20.4929 8.46022C20.3415 7.99658 20.1539 7.54435 19.9325 7.10871L20.8966 5.60905C21.0688 5.34109 21.0309 4.9893 20.8058 4.76422L18.0928 2.05117C17.8677 1.82609 17.5159 1.78823 17.248 1.96041L15.7483 2.92452C15.3127 2.70307 14.8604 2.5155 14.3968 2.36407L14.0182 0.622554C13.9506 0.311384 13.675 0.0894165 13.3566 0.0894165H9.5199C9.20147 0.0894165 8.92591 0.311384 8.85831 0.622554L8.47972 2.36407C8.01608 2.5155 7.56385 2.70307 7.12821 2.92452L5.62855 1.96041C5.3606 1.78823 5.0088 1.82609 4.78372 2.05117L2.07067 4.76422C1.84559 4.9893 1.80773 5.34109 1.97991 5.60905L2.94402 7.10871C2.72257 7.54435 2.535 7.99658 2.38357 8.46022L0.642054 8.83881C0.330885 8.90658 0.108917 9.18196 0.108917 9.50039V13.3371C0.108917 13.6555 0.330885 13.9309 0.642054 13.9987L2.38357 14.3773C2.535 14.8409 2.72257 15.2932 2.94402 15.7288L1.97991 17.2285C1.80773 17.4964 1.84559 17.8482 2.07067 18.0733L4.78372 20.7863C5.0088 21.0114 5.3606 21.0493 5.62855 20.8771L7.12821 19.913C7.56385 20.1344 8.01608 20.322 8.47972 20.4734L8.85831 22.215C8.92591 22.5261 9.20147 22.7481 9.5199 22.7481H13.3566C13.675 22.7481 13.9506 22.5261 14.0182 22.215L14.3968 20.4734C14.8604 20.322 15.3127 20.1344 15.7483 19.913L17.248 20.8771C17.5159 21.0493 17.8677 21.0116 18.0928 20.7863L20.8058 18.0733C21.0309 17.8482 21.0688 17.4964 20.8966 17.2285L19.9325 15.7288C20.1539 15.2932 20.3415 14.8409 20.4929 14.3773L22.2345 13.9987C22.5456 13.9309 22.7676 13.6555 22.7676 13.3371V9.50039C22.7676 9.18196 22.5456 8.90658 22.2345 8.83881ZM15.5006 11.4188C15.5006 13.6587 13.6782 15.4811 11.4383 15.4811C9.19835 15.4811 7.37594 13.6587 7.37594 11.4188C7.37594 9.17885 9.19835 7.35644 11.4383 7.35644C13.6782 7.35644 15.5006 9.17885 15.5006 11.4188Z" fill="#DBD863"/>
</svg>
