<svg width="60" height="63" viewBox="0 0 60 63" fill="none" xmlns="http://www.w3.org/2000/svg">
<path d="M5.4417 26.1806C4.9498 25.9994 4.58327 25.573 4.34291 25.1074C4.10255 24.6419 3.96759 24.1308 3.79671 23.6349C3.69449 23.3402 3.43338 22.9849 3.15309 23.1222C2.88558 23.2532 2.97342 23.6612 2.83687 23.9256C2.67157 23.5311 2.40086 23.1709 2.03274 22.9521C1.66461 22.7333 1.19507 22.6695 0.800591 22.8348C0.228039 23.0743 -0.0762052 23.7619 0.0164253 24.3759C0.108257 24.99 0.532281 25.5171 1.04894 25.8612C1.56559 26.2054 2.17168 26.3891 2.77458 26.5376C3.98596 26.8362 5.2245 27.0111 6.45984 27.1852L5.4417 26.1806Z" fill="black"/>
<path d="M20.9429 59.4254C20.7681 59.4254 20.5924 59.3615 20.4542 59.233C20.2562 59.0485 15.6167 54.6502 16.5805 49.4541C17.439 44.8273 21.442 43.9234 24.0916 43.3253C24.5308 43.2263 24.9452 43.1328 25.3062 43.0322C25.6879 42.926 26.0823 43.1496 26.1885 43.5313C26.2947 43.913 26.0712 44.3075 25.6895 44.4137C25.295 44.5231 24.8638 44.6205 24.407 44.7235C21.8533 45.3001 18.6759 46.0172 17.9899 49.7152C17.1706 54.1311 21.3901 58.1446 21.4324 58.1845C21.7207 58.4552 21.7367 58.908 21.466 59.197C21.3254 59.3488 21.1346 59.4254 20.9429 59.4254Z" fill="black"/>
<path d="M9.54384 28.1059C7.75991 28.1059 5.78272 27.5486 3.62906 26.4362C3.2777 26.2549 3.13956 25.8221 3.32163 25.4708C3.50289 25.1194 3.9357 24.9813 4.28706 25.1625C7.49079 26.8179 10.1867 27.111 12.2988 26.0337C15.9353 24.1795 16.7898 18.8205 16.7978 18.767C16.8577 18.3757 17.2226 18.1066 17.6139 18.1657C18.0052 18.2248 18.2743 18.589 18.216 18.9802C18.1784 19.2294 17.2505 25.113 12.9568 27.3074C11.9155 27.84 10.776 28.1059 9.54384 28.1059Z" fill="black"/>
<path d="M22.6087 59.3806C22.3252 58.4048 21.1394 57.08 21.1394 57.08L17.7472 57.1718C17.7352 57.1151 17.72 57.0584 17.7009 57.0025C17.6082 56.735 17.4206 56.4907 17.1603 56.3805C17.0852 56.3485 16.9974 56.3294 16.9247 56.3653C16.8169 56.4188 16.7953 56.5601 16.7786 56.6791C16.7195 57.092 16.5454 57.4849 16.2875 57.8131C15.5009 58.3433 14.4404 59.1562 13.8088 60.041C13.1843 60.9154 13.4982 61.9679 13.4982 61.9679L22.6606 61.3035C22.6606 61.3043 23.0024 60.7373 22.6087 59.3806Z" fill="#458953"/>
<path d="M13.4223 61.4648C13.4223 61.4648 13.3911 61.6868 13.6538 61.7395C13.9166 61.793 22.734 61.1086 22.734 61.1086C22.734 61.1086 22.8937 61.1925 22.9209 61.4472C22.948 61.702 22.9321 61.8688 22.9321 61.8688C22.9321 61.8688 14.525 62.7401 13.7984 62.6394C13.0725 62.5388 13.1587 62.098 13.15 61.8728C13.138 61.583 13.4223 61.4648 13.4223 61.4648Z" fill="#DBD863"/>
<path d="M21.6089 59.1131C21.6233 59.6537 21.1977 60.1033 20.6571 60.1177C20.1165 60.132 19.6669 59.7064 19.6525 59.1658C19.6381 58.6252 20.0638 58.1756 20.6044 58.1612C21.1442 58.1469 21.5946 58.5733 21.6089 59.1131Z" fill="#DBD863"/>
<path d="M17.3383 61.6197L16.1102 59.6737L16.5438 59.3702L18.1241 61.5079L17.3383 61.6197Z" fill="#DBD863"/>
<path d="M18.6415 61.4935L17.0772 59.1083L17.7504 58.634L19.7132 61.4041L18.6415 61.4935Z" fill="#DBD863"/>
<path d="M15.2653 59.9404L14.5498 59.2624C14.4907 59.2065 14.4883 59.1131 14.5442 59.054L14.5594 59.038C14.6153 58.9789 14.7087 58.9765 14.7678 59.0324L15.4833 59.7104C15.5424 59.7663 15.5448 59.8597 15.4889 59.9188L15.4737 59.9348C15.4186 59.9931 15.3244 59.9955 15.2653 59.9404Z" fill="black"/>
<path d="M15.7572 59.49L15.0417 58.812C14.9826 58.7561 14.9802 58.6627 15.0361 58.6036L15.0513 58.5877C15.1072 58.5286 15.2006 58.5262 15.2597 58.5821L15.9752 59.26C16.0343 59.3159 16.0367 59.4093 15.9808 59.4684L15.9656 59.4844C15.9097 59.5427 15.8155 59.5451 15.7572 59.49Z" fill="black"/>
<path d="M16.2491 59.0875L15.5336 58.4096C15.4745 58.3537 15.4721 58.2602 15.528 58.2012L15.5432 58.1852C15.5991 58.1261 15.6925 58.1237 15.7516 58.1796L16.4671 58.8576C16.5262 58.9135 16.5286 59.0069 16.4727 59.066L16.4575 59.0819C16.4024 59.1402 16.3082 59.1434 16.2491 59.0875Z" fill="black"/>
<path d="M16.7714 58.7162L16.0559 58.0382C15.9968 57.9823 15.9944 57.8889 16.0503 57.8298L16.0654 57.8139C16.1213 57.7548 16.2148 57.7524 16.2739 57.8083L16.9894 58.4862C17.0484 58.5421 17.0508 58.6355 16.9949 58.6946L16.9798 58.7106C16.9239 58.7697 16.8296 58.7721 16.7714 58.7162Z" fill="black"/>
<path d="M40.9343 20.4942C37.7697 16.1549 33.9463 9.14777 31.803 6.51099C28.7311 2.73071 25.3844 2.6844 22.8075 3.27452C22.8075 3.27452 27.2889 46.0786 33.432 44.9095C39.5752 43.7405 43.104 40.6549 44.4599 35.5019C45.6162 31.1084 44.0981 24.8343 40.9343 20.4942Z" fill="#80B24D"/>
<path d="M21.6409 4.13696C21.6409 4.13696 21.779 2.71956 22.0888 1.99927C22.4953 1.0554 23.2611 0.308766 23.2611 0.308766C23.2611 0.308766 23.6157 -0.109668 24.1754 0.0276809C25.0818 0.250473 24.958 0.799868 24.958 0.799868C24.958 0.799868 24.4262 1.74614 24.2585 2.26199C23.8951 3.37915 23.9838 4.0092 24.0876 3.72012L21.6409 4.13696Z" fill="#A55B28"/>
<path d="M39.834 28.1466C38.8597 23.5773 34.0597 19.4066 32.9785 15.1599C31.0908 7.7455 27.907 2.53504 22.8083 3.27369C17.7895 4.00116 16.8408 9.80813 16.7754 17.2178C16.737 21.589 13.6371 27.0893 13.9996 31.7472C14.7958 41.9669 19.9839 47.2572 29.548 45.8717C39.1121 44.4863 41.9701 38.1722 39.834 28.1466Z" fill="#458953"/>
<path d="M38.3631 28.0612C37.4447 23.7171 33.0775 19.7667 32.0618 15.7285C30.2883 8.67744 27.6938 3.75525 22.9768 4.438C18.3341 5.11037 17.4773 10.6243 17.4437 17.6634C17.4238 21.8166 14.5746 27.0303 14.9276 31.4566C15.7013 41.1676 20.5221 46.2128 29.3699 44.9311C38.2177 43.6494 40.377 37.5925 38.3631 28.0612Z" fill="#DBD863"/>
<path d="M36.4098 27.3872C35.6153 23.5686 31.9356 20.0758 31.0604 16.5255C29.5328 10.3264 27.3321 5.99036 23.3873 6.56211C19.504 7.12428 18.8204 11.9586 18.834 18.1361C18.842 21.7807 16.4879 26.3395 16.8097 30.2268C17.5156 38.7544 21.5818 43.211 28.981 42.1394C36.3811 41.067 38.153 35.7647 36.4098 27.3872Z" fill="#CCCC5A"/>
<path d="M20.7481 34.9892C20.7481 34.9892 22.3124 39.7781 26.9048 39.9657C31.4964 40.1534 33.6597 36.734 34.0342 34.122C34.4782 31.0221 32.8851 25.1536 29.5584 21.8788C26.7292 19.0935 25.1177 30.1157 25.1177 30.1157L20.7481 34.9892Z" fill="#B2AF50"/>
<path d="M23.4352 18.5745C19.9567 19.0608 18.1928 24.7848 19.0328 30.1142C19.8729 35.4436 22.6023 38.32 27.0909 37.6851C32.1065 36.976 32.7414 32.3677 32.1712 28.47C31.6002 24.5691 28.5299 17.8622 23.4352 18.5745Z" fill="#C76C2F"/>
<path d="M26.5686 19.1095C28.5746 21.264 29.7971 24.5739 30.1357 26.8929C30.7059 30.7905 30.071 35.3989 25.0554 36.108C23.5965 36.314 22.3228 36.1487 21.24 35.6496C22.6263 37.2994 24.5835 38.0405 27.0893 37.6859C32.1049 36.9768 32.7397 32.3684 32.1696 28.4708C31.7288 25.4491 29.7875 20.7473 26.5686 19.1095Z" fill="#A55B28"/>
<path d="M22.0529 21.6896C21.0707 22.75 20.4207 24.2441 20.2426 25.85C20.1603 26.5894 20.1859 27.3919 20.5125 28.0539C20.8391 28.7159 21.5394 29.1703 22.1144 28.9148C22.5176 28.7359 22.7747 28.2615 22.9033 27.7665C23.0319 27.2714 23.0574 26.7403 23.1437 26.2301C23.2946 25.3381 23.6356 24.506 24.1259 23.8328C24.399 23.4583 24.7352 23.0862 24.7647 22.5775C24.8086 21.8157 24.1642 21.1977 23.6052 20.9988C22.9808 20.7768 22.4961 21.2112 22.0529 21.6896Z" fill="#DD7936"/>
<path d="M30.6061 7.61541C30.959 8.10731 31.276 8.62077 31.5571 9.15659C31.609 9.25481 31.7575 9.16777 31.7056 9.06955C31.4238 8.53373 31.1067 8.02027 30.7546 7.52837C30.6907 7.43973 30.5414 7.52518 30.6061 7.61541Z" fill="#458953"/>
<path d="M32.057 10.4199C32.2159 10.8224 32.3756 11.2248 32.5345 11.6273C32.5745 11.7287 32.7414 11.6848 32.7006 11.5818C32.5417 11.1793 32.382 10.7769 32.2231 10.3744C32.1832 10.2722 32.0163 10.3169 32.057 10.4199Z" fill="#458953"/>
<path d="M32.9562 13.5214C33.1247 13.8168 33.2453 14.1283 33.3195 14.4596C33.3435 14.5674 33.5096 14.5219 33.4856 14.4141C33.4074 14.0684 33.2804 13.7426 33.1047 13.4343C33.0496 13.3385 32.9011 13.4247 32.9562 13.5214Z" fill="#458953"/>
<path d="M33.3898 12.1279C33.5351 12.3707 33.6501 12.6246 33.7347 12.8945C33.7683 12.9999 33.9344 12.9544 33.9008 12.849C33.8114 12.5655 33.6908 12.2964 33.5383 12.0417C33.4816 11.9467 33.3323 12.0329 33.3898 12.1279Z" fill="#458953"/>
<path d="M32.7949 9.98066C32.9482 10.1196 33.068 10.2865 33.1438 10.4797C33.1837 10.582 33.3506 10.5372 33.3099 10.4342C33.2229 10.213 33.0927 10.019 32.9162 9.85928C32.834 9.78502 32.7126 9.9056 32.7949 9.98066Z" fill="#458953"/>
<path d="M31.6489 7.38861C31.8286 7.58984 32.0091 7.79187 32.1887 7.9931C32.263 8.07615 32.3836 7.95398 32.3101 7.87173C32.1304 7.67049 31.95 7.46846 31.7703 7.26723C31.696 7.18418 31.5747 7.30636 31.6489 7.38861Z" fill="#458953"/>
<path d="M29.1959 5.17346C29.4211 5.32837 29.6454 5.48329 29.8706 5.63821C29.9617 5.70129 30.0479 5.55197 29.9577 5.48968C29.7325 5.33476 29.5081 5.17985 29.2829 5.02493C29.1911 4.96185 29.1048 5.11037 29.1959 5.17346Z" fill="#458953"/>
<path d="M30.4519 5.99513C30.5725 6.13567 30.6931 6.27621 30.8144 6.41676C30.8863 6.5006 31.0077 6.37843 30.9358 6.29538C30.8152 6.15484 30.6947 6.01429 30.5733 5.87375C30.5014 5.7891 30.38 5.91128 30.4519 5.99513Z" fill="#458953"/>
<path d="M29.7844 6.50707C29.8954 6.50707 29.8954 6.33539 29.7844 6.33539C29.6734 6.33539 29.6734 6.50707 29.7844 6.50707Z" fill="#458953"/>
<path d="M29.7468 6.48306C29.9265 6.5693 30.0782 6.69068 30.202 6.84639C30.2706 6.93263 30.392 6.81046 30.3233 6.72502C30.1916 6.55892 30.0247 6.42636 29.833 6.33453C29.734 6.28662 29.6462 6.43515 29.7468 6.48306Z" fill="#458953"/>
<path d="M27.5923 3.8455C27.8327 3.89022 28.0731 3.93414 28.3134 3.97886C28.422 3.99882 28.4683 3.83272 28.3589 3.81276C28.1186 3.76804 27.8782 3.72412 27.6379 3.6794C27.5301 3.65944 27.4837 3.82474 27.5923 3.8455Z" fill="#458953"/>
<path d="M26.1478 3.47496C26.369 3.51568 26.5894 3.5572 26.8106 3.59873C26.9184 3.61869 26.9655 3.45339 26.8561 3.43263C26.6349 3.39111 26.4145 3.35038 26.1933 3.30886C26.0855 3.2889 26.0392 3.45419 26.1478 3.47496Z" fill="#458953"/>
<path d="M34.7784 12.5161C35.0882 12.8674 35.3709 13.2379 35.6288 13.6292C35.6895 13.721 35.8388 13.6356 35.7774 13.5422C35.5122 13.1389 35.2192 12.7564 34.9006 12.3947C34.8263 12.3116 34.7049 12.4338 34.7784 12.5161Z" fill="#458953"/>
<path d="M35.0755 14.962C35.2216 15.2199 35.3677 15.4778 35.5147 15.7358C35.569 15.8324 35.7183 15.7453 35.6632 15.6487C35.5171 15.3908 35.3709 15.1329 35.224 14.8749C35.1697 14.7791 35.0204 14.8654 35.0755 14.962Z" fill="#458953"/>
<path d="M34.0501 16.8306C34.193 17.1308 34.3368 17.4311 34.4797 17.7305C34.5276 17.8303 34.6762 17.7433 34.6282 17.6435C34.4853 17.3432 34.3416 17.043 34.1986 16.7435C34.1507 16.6445 34.003 16.7315 34.0501 16.8306Z" fill="#458953"/>
<path d="M35.4356 17.3736C35.5163 17.4942 35.5961 17.6147 35.6768 17.7353C35.7383 17.8271 35.8868 17.7409 35.8253 17.6483C35.7447 17.5277 35.6648 17.4071 35.5842 17.2865C35.5227 17.1955 35.3742 17.2809 35.4356 17.3736Z" fill="#458953"/>
<path d="M39.8355 20.4479C40.0783 20.7881 40.3203 21.129 40.563 21.4692C40.6269 21.5587 40.7762 21.4732 40.7115 21.3822C40.4688 21.042 40.2268 20.701 39.9841 20.3608C39.9202 20.2714 39.7709 20.3569 39.8355 20.4479Z" fill="#458953"/>
<path d="M36.417 20.7634C36.6398 20.9997 36.8163 21.2696 36.9385 21.5707C36.98 21.6721 37.1461 21.6274 37.1046 21.5252C36.9704 21.1954 36.7836 20.9007 36.5392 20.642C36.4626 20.5605 36.3404 20.6827 36.417 20.7634Z" fill="#458953"/>
<path d="M37.622 18.1705C37.7817 18.3118 37.9422 18.4531 38.1019 18.5953C38.1849 18.6688 38.3063 18.5474 38.2233 18.4739C38.0636 18.3326 37.9031 18.1912 37.7433 18.0491C37.6611 17.9756 37.5389 18.097 37.622 18.1705Z" fill="#458953"/>
<path d="M36.1775 43.9154C36.6829 43.5177 37.1884 43.12 37.6939 42.7224C37.7809 42.6537 37.658 42.5331 37.5725 42.601C37.067 42.9987 36.5616 43.3963 36.0561 43.794C35.9691 43.8627 36.0912 43.9833 36.1775 43.9154Z" fill="#458953"/>
<path d="M37.9773 43.2191C38.2353 43.0338 38.494 42.8493 38.7519 42.6641C38.8414 42.6002 38.7551 42.4509 38.6649 42.5155C38.407 42.7008 38.1482 42.8853 37.8903 43.0705C37.8017 43.1344 37.8871 43.2837 37.9773 43.2191Z" fill="#458953"/>
<path d="M35.0731 44.4703C35.3534 44.3282 35.6345 44.1861 35.9148 44.0439C36.0138 43.9936 35.9267 43.8451 35.8277 43.8954C35.5474 44.0375 35.2663 44.1797 34.9861 44.3218C34.8878 44.3721 34.9749 44.5206 35.0731 44.4703Z" fill="#458953"/>
<path d="M38.8813 41.9782C39.0634 41.7586 39.2455 41.5382 39.4275 41.3186C39.4978 41.2339 39.3764 41.1117 39.3062 41.1972C39.1241 41.4168 38.942 41.6372 38.76 41.8568C38.6897 41.9414 38.8103 42.0636 38.8813 41.9782Z" fill="#458953"/>
<path d="M39.8939 41.9366C40.3075 41.6403 40.6748 41.293 40.9902 40.8937C41.0581 40.8075 40.9375 40.6853 40.8689 40.7723C40.5622 41.1604 40.2085 41.5006 39.8068 41.7889C39.7182 41.852 39.8036 42.0013 39.8939 41.9366Z" fill="#458953"/>
<path d="M42.0914 39.8532C42.3134 39.5529 42.5354 39.2519 42.7574 38.9516C42.8237 38.8622 42.6744 38.7768 42.6089 38.8646C42.3869 39.1649 42.1649 39.4659 41.9421 39.7662C41.8774 39.8556 42.0268 39.9418 42.0914 39.8532Z" fill="#458953"/>
<path d="M40.8257 40.0345C41.0437 39.7311 41.2617 39.4276 41.4797 39.1242C41.5444 39.034 41.3951 38.9485 41.3312 39.0372C41.1132 39.3406 40.8952 39.6441 40.6772 39.9475C40.6125 40.0377 40.7619 40.1232 40.8257 40.0345Z" fill="#458953"/>
<path d="M39.9872 40.3387C40.0479 40.2181 40.1086 40.0984 40.1693 39.9778C40.2188 39.8788 40.0703 39.7917 40.0208 39.8907C39.9601 40.0113 39.8994 40.1319 39.8387 40.2517C39.7892 40.3507 39.9377 40.4377 39.9872 40.3387Z" fill="#458953"/>
<path d="M40.4768 38.7496C40.5774 38.3679 40.678 37.9862 40.7787 37.6045C40.8066 37.4975 40.6413 37.4519 40.6126 37.5589C40.5119 37.9406 40.4113 38.3224 40.3107 38.7041C40.2828 38.8111 40.4489 38.8574 40.4768 38.7496Z" fill="#458953"/>
<path d="M41.5372 38.0892C41.6482 38.0892 41.6482 37.9175 41.5372 37.9175C41.4262 37.9175 41.4262 38.0892 41.5372 38.0892Z" fill="#458953"/>
<path d="M41.6252 38.027C41.6819 37.7651 41.7386 37.5032 41.7952 37.2412C41.8184 37.1334 41.6531 37.0871 41.6291 37.1957C41.5724 37.4577 41.5158 37.7196 41.4591 37.9815C41.4359 38.0893 41.602 38.1356 41.6252 38.027Z" fill="#458953"/>
<path d="M42.9147 37.1933C43.0432 36.8954 43.1726 36.5976 43.3012 36.3005C43.3451 36.1999 43.1966 36.1121 43.1526 36.2135C43.0241 36.5113 42.8947 36.8092 42.7661 37.1062C42.7222 37.2069 42.8708 37.2947 42.9147 37.1933Z" fill="#458953"/>
<path d="M43.9129 35.4956C44.0566 35.1187 44.1165 34.7298 44.0933 34.3265C44.0869 34.2163 43.9153 34.2155 43.9217 34.3265C43.9432 34.7146 43.8857 35.0867 43.7468 35.4501C43.7076 35.5539 43.8737 35.5986 43.9129 35.4956Z" fill="#458953"/>
<path d="M40.96 36.0746C40.96 35.7527 40.96 35.4317 40.96 35.1099C40.96 34.9989 40.7883 34.9989 40.7883 35.1099C40.7883 35.4317 40.7883 35.7527 40.7883 36.0746C40.7883 36.1856 40.96 36.1856 40.96 36.0746Z" fill="#458953"/>
<path d="M41.9869 35.7375C42.0499 35.5124 42.0691 35.2832 42.042 35.0508C42.0292 34.9422 41.8575 34.9406 41.8703 35.0508C41.8958 35.2688 41.8806 35.4804 41.8216 35.692C41.7912 35.7982 41.9573 35.8437 41.9869 35.7375Z" fill="#458953"/>
<path d="M41.3169 33.5423C41.3584 33.1183 41.3009 32.7086 41.1436 32.3117C41.1036 32.2103 40.9368 32.2542 40.9775 32.3573C41.1292 32.7398 41.1843 33.1326 41.1444 33.5415C41.1348 33.6525 41.3065 33.6517 41.3169 33.5423Z" fill="#458953"/>
<path d="M42.8285 33.4832C42.8285 33.2421 42.8285 33.0009 42.8285 32.7598C42.8285 32.6488 42.6568 32.6488 42.6568 32.7598C42.6568 33.0009 42.6568 33.2421 42.6568 33.4832C42.656 33.5934 42.8285 33.5934 42.8285 33.4832Z" fill="#458953"/>
<path d="M44.2691 31.7952C44.301 31.4023 44.2842 31.015 44.2243 30.6253C44.2076 30.5159 44.0415 30.5622 44.0583 30.6708C44.1158 31.0446 44.1269 31.4183 44.0966 31.7944C44.0878 31.9054 44.2603 31.9046 44.2691 31.7952Z" fill="#458953"/>
<path d="M40.9424 30.7515C40.8881 30.5087 40.8346 30.2668 40.7803 30.024C40.7563 29.9162 40.5902 29.9617 40.6142 30.0695C40.6685 30.3123 40.722 30.5542 40.7763 30.797C40.8002 30.9048 40.9663 30.8593 40.9424 30.7515Z" fill="#458953"/>
<path d="M42.7598 29.7853C42.6472 29.481 42.5338 29.1768 42.4212 28.8725C42.3829 28.7695 42.2168 28.8142 42.2552 28.918C42.3677 29.2223 42.4811 29.5265 42.5937 29.8308C42.6329 29.9338 42.799 29.8891 42.7598 29.7853Z" fill="#458953"/>
<path d="M42.9547 26.1894C42.9331 25.9099 42.8717 25.6424 42.7646 25.3837C42.7231 25.2831 42.5562 25.327 42.5986 25.4292C42.6992 25.6735 42.7623 25.9251 42.7822 26.1894C42.791 26.2996 42.9635 26.3004 42.9547 26.1894Z" fill="#458953"/>
<path d="M44.0368 28.4565C44.0048 28.2385 43.9385 28.0316 43.8403 27.8344C43.7908 27.7354 43.6431 27.8224 43.6918 27.9214C43.7828 28.1059 43.8411 28.2992 43.8707 28.5028C43.8866 28.6114 44.0527 28.5651 44.0368 28.4565Z" fill="#458953"/>
<path d="M36.5784 14.9636C36.774 15.3461 37.0184 15.6958 37.309 16.0129C37.3841 16.0943 37.5055 15.9729 37.4304 15.8915C37.1493 15.5856 36.9161 15.2471 36.7269 14.8773C36.6766 14.7783 36.5281 14.8654 36.5784 14.9636Z" fill="#458953"/>
<path d="M39.9545 22.7381C40.0551 22.9186 40.1557 23.0999 40.2563 23.2804C40.3098 23.377 40.4592 23.2907 40.4049 23.1933C40.3043 23.0128 40.2036 22.8316 40.103 22.6511C40.0495 22.5545 39.901 22.6415 39.9545 22.7381Z" fill="#458953"/>
<path d="M41.483 22.7501C41.7186 23.0552 41.9549 23.361 42.1905 23.6661C42.2584 23.7539 42.3789 23.6309 42.3119 23.5447C42.0763 23.2396 41.8399 22.9338 41.6044 22.6288C41.5365 22.5409 41.4159 22.6639 41.483 22.7501Z" fill="#458953"/>
<path d="M29.2653 10.3496C29.4003 10.9557 29.1311 11.5306 28.6656 11.6336C28.2 11.7374 27.7129 11.3302 27.5788 10.7241C27.4438 10.118 27.7129 9.54306 28.1785 9.44005C28.644 9.33624 29.1303 9.74349 29.2653 10.3496Z" fill="black"/>
<path d="M28.2703 10.2011C28.3134 10.3952 28.2272 10.5796 28.0778 10.6132C27.9285 10.6467 27.772 10.5157 27.7289 10.3217C27.6858 10.1276 27.772 9.94318 27.9213 9.90964C28.0715 9.8769 28.2272 10.0071 28.2703 10.2011Z" fill="white"/>
<path d="M20.1676 11.8125C20.3017 12.4186 20.0334 12.9935 19.5679 13.0965C19.1023 13.2004 18.6152 12.7931 18.4811 12.187C18.3461 11.5809 18.6152 11.006 19.0808 10.903C19.5463 10.7999 20.0334 11.2072 20.1676 11.8125Z" fill="black"/>
<path d="M19.1734 11.6648C19.2165 11.8589 19.1302 12.0433 18.9809 12.0769C18.8316 12.1104 18.6751 11.9795 18.632 11.7854C18.5888 11.5914 18.6751 11.4069 18.8244 11.3734C18.9737 11.3398 19.1302 11.47 19.1734 11.6648Z" fill="white"/>
<path d="M29.0976 7.85819C29.0417 7.95242 28.9164 7.98276 28.807 7.97318C28.652 7.9604 28.5091 7.89013 28.363 7.83583C28.1106 7.74161 27.8407 7.69449 27.5716 7.69769C27.447 7.69928 27.2897 7.6913 27.2458 7.57471C27.2163 7.49885 27.2594 7.40941 27.3257 7.3615C27.3919 7.31359 27.4758 7.29842 27.5564 7.28963C27.7545 7.26647 29.4122 7.32637 29.0976 7.85819Z" fill="black"/>
<path d="M18.3604 9.28915C18.4219 9.3754 18.5281 9.38897 18.616 9.36581C18.7405 9.33307 18.846 9.24603 18.9554 9.17337C19.1462 9.0488 19.3586 8.96814 19.579 8.937C19.6804 8.92263 19.8074 8.89468 19.825 8.7749C19.8361 8.69584 19.7866 8.61359 19.7251 8.57446C19.6637 8.53533 19.5926 8.53134 19.5247 8.53294C19.3602 8.53613 18.0171 8.80444 18.3604 9.28915Z" fill="black"/>
<path d="M24.9412 15.7102C25.0275 16.3786 24.8622 16.9511 24.5723 16.9879C24.2824 17.0254 23.9782 16.5135 23.8919 15.8452C23.8057 15.1768 23.971 14.6042 24.2609 14.5675C24.5499 14.53 24.855 15.0418 24.9412 15.7102Z" fill="black"/>
<path d="M21.4787 14.3663C21.7255 14.9244 21.581 15.58 21.1561 15.8308C20.7313 16.0815 20.1867 15.8332 19.94 15.275C19.6932 14.7168 19.8377 14.0612 20.2626 13.8105C20.6874 13.5597 21.232 13.8081 21.4787 14.3663Z" fill="#DB928D"/>
<path d="M28.1969 13.214C28.4436 13.7722 28.2991 14.4278 27.8743 14.6785C27.4494 14.9292 26.9048 14.6809 26.6581 14.1227C26.4113 13.5645 26.5559 12.9089 26.9807 12.6582C27.4055 12.4075 27.9501 12.6558 28.1969 13.214Z" fill="#DB928D"/>
<path d="M45.3135 51.4448C44.8927 51.4448 44.4639 51.412 44.0287 51.3394C42.0235 51.008 40.4321 49.9954 39.4259 48.4119C38.0668 46.2718 38.0947 43.7069 38.5323 42.161C38.6401 41.7801 39.0362 41.5589 39.4171 41.6659C39.798 41.7737 40.02 42.1697 39.9122 42.5506C39.5273 43.9122 39.6024 46.0147 40.6365 47.6437C41.4286 48.8902 42.648 49.6584 44.2626 49.9252C44.6108 49.9826 44.9558 50.009 45.296 50.009C49.2878 50.009 52.6273 46.3573 52.6633 46.3173C52.9284 46.0235 53.3812 45.9995 53.675 46.2638C53.9689 46.5282 53.9936 46.9809 53.7301 47.2748C53.564 47.4601 49.9323 51.444 45.3135 51.4448Z" fill="black"/>
<path d="M50.6702 44.4527C50.1136 45.3024 49.8796 47.0656 49.8796 47.0656L52.1571 49.581C52.1219 49.6273 52.0884 49.6752 52.0588 49.7263C51.9159 49.9706 51.852 50.2725 51.9383 50.5416C51.963 50.6191 52.0053 50.6989 52.0804 50.7309C52.1914 50.778 52.312 50.7029 52.4142 50.6374C52.7656 50.413 53.1776 50.2901 53.5944 50.2717C54.5096 50.5232 55.8168 50.7995 56.8996 50.7029C57.9696 50.6071 58.5645 49.684 58.5645 49.684L52.0964 43.1607C52.0964 43.1615 51.4432 43.2709 50.6702 44.4527Z" fill="#458953"/>
<path d="M58.2315 50.0705C58.2315 50.0705 58.42 49.9491 58.289 49.7152C58.158 49.4812 51.8999 43.2326 51.8999 43.2326C51.8999 43.2326 51.8592 43.0561 52.0349 42.8701C52.2105 42.684 52.3479 42.5866 52.3479 42.5866C52.3479 42.5866 58.4815 48.4016 58.8783 49.0188C59.2744 49.6361 58.8831 49.8565 58.7186 50.0098C58.5062 50.2095 58.2315 50.0705 58.2315 50.0705Z" fill="#DBD863"/>
<path d="M51.1173 45.3863C51.5182 45.0237 52.137 45.0541 52.4996 45.4549C52.8621 45.8558 52.8318 46.4747 52.4309 46.8372C52.03 47.1997 51.4112 47.1694 51.0486 46.7685C50.6861 46.3677 50.7172 45.7488 51.1173 45.3863Z" fill="#DBD863"/>
<path d="M55.8 46.9961L55.122 49.1961L54.6094 49.0635L55.2035 46.4731L55.8 46.9961Z" fill="#DBD863"/>
<path d="M54.8561 46.089L54.0632 48.8304L53.2654 48.6275L54.0911 45.3336L54.8561 46.089Z" fill="#DBD863"/>
<path d="M55.8742 49.6632L55.8255 50.6478C55.8215 50.7285 55.752 50.7916 55.6706 50.7876L55.649 50.7868C55.5684 50.7828 55.5053 50.7133 55.5093 50.6318L55.558 49.6472C55.562 49.5666 55.6314 49.5035 55.7129 49.5075L55.7345 49.5083C55.8151 49.5131 55.8782 49.5826 55.8742 49.6632Z" fill="black"/>
<path d="M55.2122 49.5834L55.1635 50.568C55.1595 50.6486 55.09 50.7117 55.0086 50.7077L54.987 50.7069C54.9064 50.7029 54.8433 50.6335 54.8473 50.5528L54.896 49.5682C54.9 49.4876 54.9695 49.4245 55.0509 49.4285L55.0725 49.4293C55.1531 49.4333 55.2162 49.5027 55.2122 49.5834Z" fill="black"/>
<path d="M54.5862 49.4716L54.5375 50.4562C54.5335 50.5368 54.464 50.5999 54.3826 50.5959L54.361 50.5951C54.2803 50.5911 54.2173 50.5216 54.2212 50.4402L54.27 49.4556C54.274 49.3749 54.3434 49.3119 54.4249 49.3159L54.4464 49.3167C54.5271 49.3214 54.5902 49.3909 54.5862 49.4716Z" fill="black"/>
<path d="M53.965 49.3167L53.9163 50.3013C53.9123 50.3819 53.8428 50.445 53.7613 50.441L53.7398 50.4402C53.6591 50.4362 53.596 50.3667 53.6 50.2853L53.6487 49.3007C53.6527 49.22 53.7222 49.157 53.8037 49.1609L53.8252 49.1617C53.9067 49.1665 53.969 49.236 53.965 49.3167Z" fill="black"/>
<path d="M42.7422 27.6906C42.4396 27.6906 42.1577 27.4974 42.0603 27.1931C41.9389 26.8162 42.1457 26.4122 42.5226 26.2908C42.5817 26.2716 48.4206 24.3032 47.7099 21.6944C47.4552 20.7577 46.0114 19.7915 43.9432 19.1718C41.8726 18.5521 39.5017 18.3852 37.9023 18.747C37.5166 18.834 37.1325 18.5921 37.0446 18.2064C36.9576 17.8199 37.1996 17.4366 37.5852 17.3487C39.4355 16.9303 42.0291 17.1028 44.3537 17.7983C45.8908 18.2591 48.5508 19.3283 49.0922 21.3175C49.4164 22.5073 49.1936 24.304 46.2909 26.1039C44.7058 27.0869 43.0321 27.6315 42.961 27.6547C42.8891 27.6794 42.8149 27.6906 42.7422 27.6906Z" fill="black"/>
<path d="M43.6334 26.3978C43.1511 26.6039 42.5921 26.5456 42.0978 26.3731C41.6028 26.2006 41.154 25.9211 40.6892 25.6792C40.4121 25.5346 39.9785 25.4572 39.8691 25.7494C39.7645 26.0281 40.1087 26.2637 40.1917 26.5504C39.8004 26.3771 39.3565 26.302 38.9388 26.3962C38.5212 26.4897 38.1355 26.766 37.9622 27.1572C37.7107 27.725 37.963 28.4333 38.4517 28.8158C38.9404 29.1983 39.6104 29.2901 40.2221 29.1855C40.8338 29.0801 41.3999 28.7974 41.9405 28.4916C43.0257 27.8759 44.0455 27.1525 45.0628 26.4298L43.6334 26.3978Z" fill="black"/>
</svg>
