<svg width="134" height="185" viewBox="0 0 134 185" fill="none" xmlns="http://www.w3.org/2000/svg">
<path d="M119.684 116.999C117.466 117.448 115.114 116.883 113.175 115.717C110.64 114.192 108.66 111.212 109.417 108.351C110.04 105.988 112.264 104.445 114.383 103.229C116.503 102.01 118.818 100.767 119.906 98.5767L123.551 92.0436C123.152 96.5695 123.423 101.154 124.35 105.602C124.854 108.013 125.542 110.561 124.703 112.875C123.934 115.005 121.902 116.551 119.684 116.999Z" fill="black"/>
<path d="M15.1222 117.576C17.4652 118.05 19.9501 117.453 21.9986 116.222C24.6763 114.611 26.7673 111.463 25.9686 108.441C25.31 105.944 22.9605 104.315 20.722 103.03C18.4824 101.742 16.0375 100.43 14.8881 98.1156L11.0381 91.2143C11.459 95.9952 11.173 100.838 10.1931 105.536C9.66098 108.083 8.93491 110.775 9.82113 113.22C10.633 115.469 12.7793 117.102 15.1222 117.576Z" fill="black"/>
<path d="M101.467 59.3511C101.439 59.3378 101.419 59.3279 101.405 59.3212C100.459 58.861 99.3162 59.2558 98.856 60.2021C98.3968 61.146 98.7871 62.2809 99.7254 62.7458C99.7277 62.7469 99.7323 62.7491 99.7345 62.7502C99.8687 62.8098 113.761 69.6964 118.233 80.9316C122.15 90.7656 117.457 100.465 117.41 100.563C116.943 101.506 117.331 102.651 118.274 103.118C119.216 103.585 120.362 103.197 120.829 102.254C121.054 101.796 126.314 90.9181 121.777 79.5218C116.865 67.1783 102.676 59.9476 101.467 59.3511Z" fill="black"/>
<path d="M34.3665 56.6795C34.3954 56.6655 34.417 56.655 34.4314 56.6479C35.431 56.1618 36.6381 56.5789 37.1243 57.5784C37.6093 58.5755 37.1971 59.7744 36.2059 60.2654C36.2035 60.2666 36.1986 60.2689 36.1962 60.2701C36.0545 60.3331 21.3795 67.6078 16.655 79.4761C12.5179 89.8642 17.4749 100.11 17.5252 100.214C18.0186 101.21 17.6086 102.419 16.6126 102.913C15.6165 103.406 14.4069 102.996 13.9135 102C13.675 101.516 8.11852 90.0253 12.9118 77.9868C18.1008 64.9478 33.0894 57.3096 34.3665 56.6795Z" fill="black"/>
<path d="M46.3969 178.965C45.3522 178.965 44.4341 178.274 44.1382 177.28L44.1204 177.232C42.7875 173.261 36.3932 152.26 41.5759 128.565C41.8541 127.29 43.1138 126.483 44.386 126.764C45.6608 127.042 46.4677 128.302 46.1869 129.574C41.2698 152.055 47.3302 171.966 48.5949 175.73C48.6581 175.917 48.7113 176.079 48.7416 176.322C48.8984 177.617 47.9778 178.793 46.6827 178.95C46.5891 178.96 46.493 178.965 46.3969 178.965ZM44.0547 176.888V176.891C44.0572 176.891 44.0572 176.891 44.0547 176.888Z" fill="black"/>
<path d="M91.1039 178.957C89.8038 178.851 88.8351 177.713 88.9413 176.413C88.9616 176.167 89.0096 176.005 89.0653 175.816C90.1782 172.004 95.4317 151.868 89.6142 129.602C89.2853 128.339 90.0391 127.049 91.3012 126.721C92.5634 126.392 93.8534 127.146 94.1822 128.408C100.313 151.875 94.7716 173.119 93.5979 177.139L93.5827 177.189C93.3273 178.193 92.437 178.922 91.3923 178.962C91.2987 178.967 91.2026 178.965 91.1039 178.957ZM93.6485 176.797V176.795V176.797Z" fill="black"/>
<path d="M63.2981 11.9503C63.2981 11.9503 64.6058 7.56941 66.1816 5.45232C68.2481 2.6776 71.5742 0.684452 71.5742 0.684452C71.5742 0.684452 73.155 -0.466413 75.2089 0.216518C78.5375 1.32691 77.761 2.99377 77.761 2.99377C77.761 2.99377 75.2165 5.72044 74.2933 7.2583C72.2951 10.5945 72.2824 12.6105 72.8389 11.7505L63.2981 11.9503Z" fill="#A55B28"/>
<path d="M117.437 95.0326C116.248 80.2661 100.634 65.1531 98.8614 51.3503C95.7654 27.2479 88.0255 9.77499 68.213 9.77499C48.709 9.77499 41.8999 27.5489 37.5646 50.7458C35.0074 64.4322 20.1777 80.2661 18.9914 95.0326C16.3861 127.429 33.2166 146.371 70.3806 146.371C107.547 146.369 120.042 127.429 117.437 95.0326Z" fill="#458953"/>
<path d="M113.749 94.5368C112.651 80.5013 98.2063 66.1345 96.5672 53.0146C93.704 30.1061 86.5458 13.4982 68.218 13.4982C50.176 13.4982 43.8778 30.3944 39.8687 52.443C37.5038 65.4515 23.7845 80.5038 22.6867 94.5393C20.2762 125.334 35.8445 143.339 70.2238 143.339C104.6 143.336 116.16 125.332 113.749 94.5368Z" fill="#DBD863"/>
<path d="M106.24 92.0211C105.322 79.6904 93.2419 67.0689 91.871 55.5425C89.4757 35.4163 83.4886 20.8243 68.1606 20.8243C53.0729 20.8243 47.8042 35.6667 44.4503 55.0392C42.4723 66.4669 30.9991 79.6904 30.0809 92.0211C28.065 119.075 41.0862 134.892 69.8376 134.892C98.589 134.892 108.256 119.075 106.24 92.0211Z" fill="#CCCC5A"/>
<path d="M46.6403 108.259C46.6403 108.259 49.9537 123.981 67.328 126.655C84.6998 129.328 94.8198 119.59 97.683 111.572C101.08 102.057 98.2547 82.9346 87.4012 71.1604C78.1689 61.144 65.9597 94.9643 65.9597 94.9643L46.6403 108.259Z" fill="#B2AF50"/>
<path d="M65.9139 58.0228C52.4071 57.9672 42.5375 75.1088 42.798 92.1972C43.0585 109.283 51.8582 119.54 69.2907 119.59C88.7719 119.646 93.7244 105.487 93.7067 93.0091C93.6865 80.5216 85.6962 58.1038 65.9139 58.0228Z" fill="#C76C2F"/>
<path d="M77.5464 61.1214C83.9938 68.7854 86.8216 79.7174 86.8318 87.1385C86.852 99.6159 81.8969 113.775 62.4157 113.72C56.7474 113.705 51.9946 112.607 48.1475 110.55C52.5157 116.353 59.555 119.563 69.288 119.59C88.7692 119.646 93.7217 105.487 93.704 93.0092C93.6914 83.3394 88.8957 67.718 77.5464 61.1214Z" fill="#A55B28"/>
<path d="M58.9355 67.159C54.6103 70.0374 51.3145 74.4259 49.7513 79.3809C49.0305 81.6624 48.684 84.1893 49.5642 86.4126C50.4444 88.6359 52.8574 90.3787 55.187 89.8374C56.8209 89.458 58.0604 88.0896 58.8242 86.5947C59.5881 85.1024 59.9751 83.4482 60.5847 81.8875C61.6495 79.1609 63.4049 76.7049 65.6434 74.8179C66.8904 73.7683 68.3751 72.7565 68.7646 71.1731C69.3514 68.8056 67.2394 66.5747 65.2235 65.697C62.9724 64.7182 60.8857 65.8614 58.9355 67.159Z" fill="#DD7936"/>
<path d="M57.0758 37.5597C58.4656 36.1699 58.4657 33.9166 57.0759 32.5268C55.6861 31.137 53.4327 31.137 52.0429 32.5268C50.6532 33.9166 50.6531 36.1699 52.0429 37.5597C53.4327 38.9495 55.6861 38.9495 57.0758 37.5597Z" fill="black"/>
<path d="M54.2583 33.8977C54.2583 34.5275 53.7474 35.0385 53.1176 35.0385C52.4877 35.0385 51.9768 34.5275 51.9768 33.8977C51.9768 33.2679 52.4877 32.757 53.1176 32.757C53.7474 32.757 54.2583 33.2679 54.2583 33.8977Z" fill="white"/>
<path d="M87.9776 35.0384C87.9776 37.0038 86.384 38.5973 84.4187 38.5973C82.4534 38.5973 80.8599 37.0038 80.8599 35.0384C80.8599 33.0731 82.4534 31.4796 84.4187 31.4796C86.384 31.4796 87.9776 33.0731 87.9776 35.0384Z" fill="black"/>
<path d="M84.1126 33.8977C84.1126 34.5275 83.6016 35.0385 82.9718 35.0385C82.342 35.0385 81.8311 34.5275 81.8311 33.8977C81.8311 33.2679 82.342 32.757 82.9718 32.757C83.6016 32.757 84.1126 33.2679 84.1126 33.8977Z" fill="white"/>
<path d="M50.8615 28.2774C51.0309 28.581 51.4255 28.6847 51.772 28.6644C52.2627 28.6366 52.7231 28.4241 53.1885 28.2648C53.9954 27.9891 54.8528 27.8601 55.7077 27.893C56.0998 27.9082 56.6006 27.8955 56.7498 27.5313C56.8485 27.2935 56.7195 27.0077 56.5146 26.8509C56.3097 26.694 56.0442 26.6384 55.7887 26.603C55.1639 26.5145 49.9104 26.5676 50.8615 28.2774Z" fill="black"/>
<path d="M87.7145 27.9182C87.5349 28.2166 87.1377 28.3052 86.7912 28.2748C86.3005 28.2293 85.8503 28.0016 85.3899 27.8246C84.5932 27.5185 83.7408 27.3617 82.8859 27.3642C82.4938 27.3642 81.9955 27.3339 81.8564 26.9646C81.7653 26.7218 81.9045 26.441 82.1144 26.2918C82.3243 26.1426 82.59 26.097 82.848 26.0692C83.4778 26.006 88.7262 26.2437 87.7145 27.9182Z" fill="black"/>
<path d="M69.1086 52.8502C61.652 52.8502 60.1293 47.2097 60.1293 45.6997C60.1293 45.4493 60.3316 45.2444 60.582 45.2444C60.8324 45.2444 61.0348 45.4442 61.0348 45.6947C61.0399 45.8009 61.4698 51.9397 69.106 51.9397C77.071 51.9397 77.6907 46.9669 77.6907 45.4442C77.6907 45.1938 77.8931 44.989 78.1435 44.989C78.3939 44.989 78.5962 45.1913 78.5962 45.4442C78.6013 49.0258 76.1073 52.8502 69.1086 52.8502Z" fill="black"/>
<path d="M84.8359 48.9878C86.7916 48.9878 88.377 47.4024 88.377 45.4467C88.377 43.491 86.7916 41.9056 84.8359 41.9056C82.8802 41.9056 81.2948 43.491 81.2948 45.4467C81.2948 47.4024 82.8802 48.9878 84.8359 48.9878Z" fill="#DB928D"/>
<path d="M54.5646 48.9878C56.5203 48.9878 58.1057 47.4024 58.1057 45.4467C58.1057 43.491 56.5203 41.9056 54.5646 41.9056C52.6089 41.9056 51.0234 43.491 51.0234 45.4467C51.0234 47.4024 52.6089 48.9878 54.5646 48.9878Z" fill="#DB928D"/>
<path d="M54.4557 175.373C53.6438 172.26 50.0015 167.962 50.0015 167.962H39.2542C39.2213 167.78 39.1783 167.601 39.1226 167.423C38.8545 166.569 38.2803 165.777 37.4634 165.408C37.2281 165.301 36.9524 165.233 36.7172 165.339C36.3707 165.499 36.2897 165.944 36.2265 166.321C36.0039 167.623 35.4171 168.853 34.5748 169.869C32.0379 171.481 28.6106 173.964 26.5365 176.711C24.4851 179.428 25.3881 182.787 25.3881 182.787L54.4583 181.472C54.4557 181.469 55.5864 179.704 54.4557 175.373Z" fill="#458953"/>
<path d="M25.1906 181.183C25.1906 181.183 25.0743 181.884 25.9014 182.074C26.7285 182.263 54.7059 180.857 54.7059 180.857C54.7059 180.857 55.2067 181.135 55.27 181.945C55.3332 182.754 55.27 183.28 55.27 183.28C55.27 183.28 28.5749 185.316 26.2833 184.934C23.9917 184.552 24.3054 183.164 24.2953 182.453C24.2826 181.532 25.1906 181.183 25.1906 181.183Z" fill="#DBD863"/>
<path d="M51.314 174.442C51.314 176.155 49.9254 177.541 48.2155 177.541C46.5032 177.541 45.1171 176.152 45.1171 174.442C45.1171 172.73 46.5057 171.344 48.2155 171.344C49.9279 171.341 51.314 172.73 51.314 174.442Z" fill="#DBD863"/>
<path d="M37.5771 182.01L33.8563 175.742L35.2551 174.819L40.0735 181.724L37.5771 182.01Z" fill="#DBD863"/>
<path d="M41.7149 181.724L36.9647 174.035L39.1375 172.591L45.1144 181.532L41.7149 181.724Z" fill="#DBD863"/>
<path d="M31.1575 176.514L28.9493 174.306C28.7672 174.124 28.7672 173.828 28.9493 173.646L28.9974 173.598C29.1795 173.416 29.4755 173.416 29.6576 173.598L31.8657 175.806C32.0478 175.988 32.0478 176.284 31.8657 176.466L31.8177 176.514C31.6381 176.696 31.3396 176.696 31.1575 176.514Z" fill="black"/>
<path d="M32.7534 175.13L30.5453 172.922C30.3632 172.74 30.3632 172.444 30.5453 172.262L30.5933 172.214C30.7754 172.032 31.0714 172.032 31.2535 172.214L33.4617 174.422C33.6438 174.604 33.6438 174.9 33.4617 175.082L33.4135 175.13C33.2314 175.313 32.933 175.313 32.7534 175.13Z" fill="black"/>
<path d="M34.3472 173.899L32.139 171.69C31.9569 171.508 31.9569 171.212 32.139 171.03L32.1871 170.982C32.3692 170.8 32.6651 170.8 32.8472 170.982L35.0553 173.19C35.2375 173.373 35.2375 173.668 35.0553 173.851L35.0073 173.899C34.8252 174.081 34.5293 174.081 34.3472 173.899Z" fill="black"/>
<path d="M36.0317 172.77L33.8236 170.562C33.6415 170.38 33.6415 170.084 33.8236 169.902L33.8716 169.854C34.0538 169.672 34.3497 169.672 34.5318 169.854L36.74 172.062C36.9221 172.244 36.9221 172.54 36.74 172.722L36.6919 172.77C36.5098 172.95 36.2113 172.95 36.0317 172.77Z" fill="black"/>
<path d="M82.9137 175.808C83.6548 172.677 87.1934 168.296 87.1934 168.296L97.9381 168.046C97.9685 167.863 98.0039 167.681 98.057 167.504C98.3049 166.642 98.8614 165.84 99.6683 165.45C99.901 165.339 100.177 165.263 100.412 165.364C100.763 165.516 100.852 165.959 100.925 166.333C101.178 167.631 101.793 168.845 102.658 169.841C105.23 171.394 108.716 173.795 110.856 176.494C112.97 179.16 112.146 182.541 112.146 182.541L83.0528 181.904C83.0553 181.904 81.8842 180.164 82.9137 175.808Z" fill="#458953"/>
<path d="M112.308 180.935C112.308 180.935 112.442 181.633 111.617 181.843C110.795 182.053 82.7923 181.299 82.7923 181.299C82.7923 181.299 82.2991 181.59 82.2536 182.4C82.208 183.212 82.2839 183.735 82.2839 183.735C82.2839 183.735 109.019 185.149 111.301 184.714C113.582 184.279 113.236 182.898 113.231 182.187C113.226 181.264 112.308 180.935 112.308 180.935Z" fill="#DBD863"/>
<path d="M86.0348 174.804C86.0753 176.516 87.4943 177.87 89.2067 177.832C90.919 177.791 92.2723 176.372 92.2318 174.66C92.1913 172.947 90.7723 171.594 89.0599 171.632C87.3501 171.673 85.9943 173.092 86.0348 174.804Z" fill="#DBD863"/>
<path d="M99.9438 182.051L103.518 175.697L102.096 174.807L97.4397 181.823L99.9438 182.051Z" fill="#DBD863"/>
<path d="M95.801 181.861L100.372 174.063L98.1659 172.672L92.3965 181.75L95.801 181.861Z" fill="#DBD863"/>
<path d="M106.232 176.405L108.387 174.146C108.564 173.962 108.557 173.663 108.372 173.486L108.322 173.438C108.137 173.261 107.838 173.269 107.661 173.453L105.506 175.712C105.329 175.897 105.337 176.195 105.522 176.372L105.572 176.42C105.759 176.6 106.055 176.592 106.232 176.405Z" fill="black"/>
<path d="M104.608 175.059L106.763 172.801C106.94 172.616 106.933 172.317 106.748 172.14L106.698 172.092C106.513 171.915 106.214 171.923 106.037 172.108L103.882 174.366C103.705 174.551 103.713 174.849 103.898 175.026L103.948 175.074C104.133 175.252 104.429 175.246 104.608 175.059Z" fill="black"/>
<path d="M102.984 173.866L105.139 171.607C105.316 171.422 105.309 171.124 105.124 170.947L105.073 170.899C104.886 170.721 104.59 170.729 104.413 170.914L102.258 173.172C102.081 173.357 102.089 173.656 102.273 173.833L102.324 173.881C102.511 174.058 102.807 174.053 102.984 173.866Z" fill="black"/>
<path d="M101.275 172.775L103.43 170.517C103.607 170.332 103.599 170.034 103.414 169.856L103.366 169.808C103.179 169.631 102.883 169.639 102.706 169.824L100.551 172.082C100.374 172.267 100.382 172.565 100.566 172.742L100.617 172.791C100.802 172.968 101.097 172.963 101.275 172.775Z" fill="black"/>
</svg>
