<svg width="62" height="58" viewBox="0 0 62 58" fill="none" xmlns="http://www.w3.org/2000/svg">
<path d="M19.6868 53.8479C19.5295 53.8479 19.3714 53.7959 19.2471 53.6914C19.2025 53.6539 18.1461 52.7549 17.1868 51.3418C15.8918 49.4341 15.3989 47.4925 15.7611 45.7268C16.5336 41.9583 20.136 41.2222 22.5203 40.7348C22.9156 40.6541 23.2885 40.5776 23.6133 40.4962C23.9568 40.4097 24.3118 40.5921 24.4074 40.9028C24.5023 41.2135 24.3018 41.5351 23.9583 41.6216C23.6033 41.711 23.2152 41.7903 22.8042 41.8739C20.5061 42.3433 17.6467 42.928 17.0294 45.9402C16.2921 49.5372 20.0893 52.8061 20.1274 52.8385C20.3868 53.0591 20.4011 53.4283 20.1575 53.6633C20.0311 53.7859 19.8593 53.8479 19.6868 53.8479Z" fill="black"/>
<path d="M21.8378 54.615C21.6072 53.8147 20.5724 52.7094 20.5724 52.7094H17.519C17.5096 52.6626 17.4974 52.6164 17.4816 52.571C17.4054 52.3511 17.2423 52.1478 17.0102 52.0526C16.9434 52.0252 16.865 52.0072 16.7982 52.0353C16.6998 52.0764 16.6768 52.1911 16.6588 52.2877C16.5956 52.6222 16.4288 52.9387 16.1895 53.1997C15.4688 53.6143 14.4951 54.2523 13.9058 54.9589C13.323 55.6575 13.5796 56.5212 13.5796 56.5212L21.8386 56.1831C21.8378 56.1824 22.1591 55.7281 21.8378 54.615Z" fill="#458953"/>
<path d="M13.5219 56.1088C13.5219 56.1088 13.4888 56.2891 13.7238 56.3381C13.9588 56.3871 21.9074 56.0252 21.9074 56.0252C21.9074 56.0252 22.0496 56.0973 22.0676 56.3049C22.0856 56.5133 22.0676 56.6488 22.0676 56.6488C22.0676 56.6488 14.4834 57.1723 13.8323 57.0742C13.1813 56.9762 13.2704 56.6193 13.2675 56.4362C13.2639 56.199 13.5219 56.1088 13.5219 56.1088Z" fill="#DBD863"/>
<path d="M20.0634 55.1723C20.5496 55.1723 20.9437 54.8153 20.9437 54.3749C20.9437 53.9345 20.5496 53.5775 20.0634 53.5775C19.5772 53.5775 19.1831 53.9345 19.1831 54.3749C19.1831 54.8153 19.5772 55.1723 20.0634 55.1723Z" fill="#DBD863"/>
<path d="M17.0417 56.3215L15.9839 54.7094L16.3813 54.4722L17.751 56.248L17.0417 56.3215Z" fill="#DBD863"/>
<path d="M18.2166 56.248L16.867 54.2704L17.4843 53.8998L19.1824 56.199L18.2166 56.248Z" fill="#DBD863"/>
<path d="M15.2171 54.9084L14.5897 54.341C14.538 54.2942 14.538 54.2177 14.5897 54.1709L14.6034 54.1586C14.6551 54.1118 14.7392 54.1118 14.7909 54.1586L15.4183 54.726C15.47 54.7729 15.47 54.8493 15.4183 54.8962L15.4046 54.9084C15.3536 54.9546 15.2688 54.9546 15.2171 54.9084Z" fill="black"/>
<path d="M15.6705 54.5522L15.0432 53.9848C14.9915 53.938 14.9915 53.8615 15.0432 53.8147L15.0568 53.8024C15.1086 53.7556 15.1927 53.7556 15.2444 53.8024L15.8718 54.3698C15.9235 54.4167 15.9235 54.4931 15.8718 54.54L15.8581 54.5522C15.8064 54.5991 15.7223 54.5991 15.6705 54.5522Z" fill="black"/>
<path d="M16.1232 54.2357L15.4959 53.6683C15.4442 53.6214 15.4442 53.545 15.4959 53.4982L15.5095 53.4859C15.5613 53.439 15.6454 53.439 15.6971 53.4859L16.3245 54.0533C16.3762 54.1002 16.3762 54.1766 16.3245 54.2234L16.3108 54.2357C16.2591 54.2818 16.175 54.2818 16.1232 54.2357Z" fill="black"/>
<path d="M16.6018 53.9451L15.9745 53.3777C15.9227 53.3308 15.9227 53.2544 15.9745 53.2076L15.9881 53.1953C16.0399 53.1484 16.1239 53.1484 16.1757 53.1953L16.803 53.7627C16.8548 53.8096 16.8548 53.886 16.803 53.9329L16.7894 53.9451C16.7376 53.992 16.6536 53.992 16.6018 53.9451Z" fill="black"/>
<path d="M43.4665 54.9135C43.289 54.9135 43.1129 54.8407 42.985 54.6973C42.7479 54.4305 42.7709 54.0217 43.036 53.7838C43.0748 53.7492 46.9481 50.2078 46.2956 46.2056C45.7495 42.8546 42.9045 42.1458 40.6179 41.5763C40.209 41.4746 39.8231 41.378 39.4703 41.272C39.1289 41.1689 38.9356 40.8084 39.0384 40.466C39.1411 40.1235 39.5004 39.9296 39.8418 40.0327C40.1644 40.13 40.536 40.2223 40.929 40.3203C43.3012 40.9115 46.8856 41.8041 47.569 45.9973C47.8895 47.9619 47.3506 50.1032 46.0111 52.1897C45.0187 53.7355 43.9415 54.7088 43.8955 54.7499C43.7733 54.8595 43.6195 54.9135 43.4665 54.9135Z" fill="black"/>
<path d="M42.2763 54.4211C42.4869 53.5286 43.4922 52.2798 43.4922 52.2798L46.5449 52.2085C46.5535 52.1566 46.5636 52.1046 46.5786 52.0542C46.6491 51.8083 46.8072 51.5798 47.0364 51.4687C47.1025 51.437 47.1808 51.4154 47.2477 51.4442C47.3468 51.4875 47.3727 51.6137 47.3936 51.7204C47.4654 52.0902 47.64 52.4363 47.8858 52.7204C48.6166 53.163 49.6069 53.8472 50.2148 54.6165C50.8156 55.3764 50.5813 56.3404 50.5813 56.3404L42.3158 56.1587C42.3173 56.158 41.9846 55.6627 42.2763 54.4211Z" fill="#458953"/>
<path d="M50.6267 55.8818C50.6267 55.8818 50.6648 56.0808 50.4305 56.1406C50.197 56.2005 42.2412 55.9856 42.2412 55.9856C42.2412 55.9856 42.1011 56.0685 42.0882 56.2992C42.0752 56.5307 42.0968 56.6799 42.0968 56.6799C42.0968 56.6799 49.6925 57.0829 50.3407 56.9589C50.9889 56.8349 50.8905 56.4413 50.889 56.2387C50.8876 55.9755 50.6267 55.8818 50.6267 55.8818Z" fill="#DBD863"/>
<path d="M43.1625 54.1348C43.174 54.6229 43.5771 55.0087 44.0636 54.9979C44.5501 54.9863 44.9346 54.5819 44.9238 54.0938C44.9123 53.6057 44.5092 53.2199 44.0227 53.2308C43.5362 53.2423 43.151 53.6467 43.1625 54.1348Z" fill="#DBD863"/>
<path d="M47.1141 56.1997L48.1302 54.3893L47.7264 54.1356L46.4027 56.1348L47.1141 56.1997Z" fill="#DBD863"/>
<path d="M45.937 56.1457L47.2356 53.9236L46.6089 53.5264L44.9698 56.1139L45.937 56.1457Z" fill="#DBD863"/>
<path d="M48.9014 54.5913L49.5136 53.9475C49.5639 53.8948 49.5618 53.8098 49.5093 53.7593L49.4949 53.7456C49.4425 53.6951 49.3577 53.6973 49.3074 53.7499L48.6951 54.3937C48.6448 54.4464 48.647 54.5314 48.6994 54.5819L48.7138 54.5956C48.7663 54.6461 48.8503 54.6439 48.9014 54.5913Z" fill="black"/>
<path d="M48.4393 54.2077L49.0515 53.5639C49.1018 53.5113 49.0997 53.4262 49.0472 53.3757L49.0328 53.362C48.9804 53.3116 48.8956 53.3137 48.8453 53.3664L48.233 54.0102C48.1827 54.0635 48.1849 54.1479 48.2373 54.1984L48.2517 54.2121C48.3042 54.2625 48.3889 54.2604 48.4393 54.2077Z" fill="black"/>
<path d="M47.9779 53.8673L48.5901 53.2235C48.6404 53.1702 48.6383 53.0858 48.5858 53.0353L48.5715 53.0216C48.519 52.9712 48.4342 52.9733 48.3839 53.026L47.7716 53.6698C47.7213 53.7224 47.7235 53.8075 47.776 53.858L47.7903 53.8717C47.8435 53.9221 47.9276 53.92 47.9779 53.8673Z" fill="black"/>
<path d="M47.4921 53.5567L48.1044 52.9128C48.1547 52.8602 48.1525 52.7751 48.1001 52.7247L48.0857 52.711C48.0332 52.6605 47.9484 52.6627 47.8981 52.7153L47.2859 53.3591C47.2356 53.4118 47.2377 53.4968 47.2902 53.5473L47.3046 53.561C47.3577 53.6115 47.4418 53.6093 47.4921 53.5567Z" fill="black"/>
<path d="M50.1395 9.04375C50.2789 8.58882 50.3206 8.24346 49.8937 8.03582C49.4338 7.8116 48.9365 7.66452 48.4285 7.60396L47.4131 7.68183C46.7965 7.41435 46.0606 7.15264 45.4857 7.50087C45.4261 7.53692 45.3629 7.59604 45.3765 7.66453C45.3859 7.70995 45.4268 7.74167 45.4649 7.76762C45.9564 8.10216 46.5795 8.32783 46.8396 8.86423C47.0157 9.22832 46.984 9.67172 47.1809 10.025C47.4547 10.5167 48.0957 10.5347 48.6563 10.5686C49.2678 10.6054 49.9217 9.75391 50.1395 9.04375Z" fill="black"/>
<path d="M12.978 9.35384C12.8091 8.93135 12.8587 8.48363 13.2474 8.24931C13.6664 7.99625 14.1285 7.81456 14.6071 7.71362L15.6081 7.61485C16.1736 7.30772 16.8254 7.08278 17.4025 7.36684C17.4628 7.3964 17.5275 7.44686 17.5203 7.51391C17.5153 7.55861 17.4786 7.59178 17.4441 7.6199C17.0036 7.97967 16.4287 8.24787 16.2268 8.78067C16.0896 9.14259 16.1571 9.5622 15.9997 9.91548C15.7806 10.4072 15.1726 10.6249 14.6394 10.5579C14.1069 10.4908 13.4638 10.5701 12.978 9.35384Z" fill="black"/>
<path d="M9.48399 10.6372L8.67627 9.1635C8.77544 9.10871 11.1433 7.81312 15.1431 6.50672C18.8231 5.30414 24.6374 3.87085 31.434 3.87085C36.8344 3.87085 41.4155 4.36616 45.4383 5.38561C49.5207 6.42021 52.5267 7.87729 54.6897 9.03229L53.9021 10.5168C49.0716 7.93857 43.0065 5.55288 31.434 5.55288C24.8565 5.55288 19.2269 6.94147 15.6619 8.10584C11.8109 9.36394 9.50627 10.6249 9.48399 10.6372Z" fill="#60634F"/>
<path d="M38.4814 20.4798C38.4721 20.4812 38.4642 20.4827 38.4592 20.4834C38.1236 20.5317 37.8124 20.2981 37.7636 19.9614C37.7154 19.6262 37.9461 19.3147 38.2795 19.2642C38.281 19.2642 38.2817 19.2642 38.2831 19.2635C38.3305 19.2585 43.2652 18.5043 45.7366 15.4871C47.9003 12.8454 47.4109 9.40061 47.4059 9.366C47.3549 9.02931 47.5863 8.71568 47.9211 8.66522C48.2567 8.61403 48.5693 8.84617 48.6196 9.18215C48.6441 9.34509 49.1924 13.2088 46.6844 16.2693C43.9702 19.5836 38.9112 20.4142 38.4814 20.4798Z" fill="black"/>
<path d="M24.0489 22.0848C24.0583 22.0862 24.0662 22.0876 24.0705 22.0884C24.4046 22.146 24.7223 21.9204 24.7798 21.5851C24.8365 21.2513 24.6145 20.9341 24.2825 20.8742C24.281 20.8742 24.2803 20.8735 24.2789 20.8735C24.2315 20.867 19.319 19.9824 16.9275 16.901C14.8334 14.2031 15.4134 10.772 15.4198 10.7381C15.4795 10.4028 15.2567 10.0834 14.9233 10.0236C14.5891 9.96377 14.2708 10.1873 14.2111 10.5218C14.1824 10.684 13.5328 14.5318 15.9588 17.658C18.586 21.0437 23.6214 22.0083 24.0489 22.0848Z" fill="black"/>
<path d="M29.7453 10.2348C29.7453 10.2348 30.1168 8.98605 30.5645 8.38259C31.1516 7.59168 32.0966 7.02356 32.0966 7.02356C32.0966 7.02356 32.5457 6.69552 33.1292 6.8909C34.0749 7.20669 33.8543 7.68253 33.8543 7.68253C33.8543 7.68253 33.1314 8.45974 32.8691 8.89809C32.3014 9.84905 32.2978 10.4237 32.4559 10.1785L29.7453 10.2348Z" fill="#A55B28"/>
<path d="M45.1272 33.9166C44.7902 29.7075 40.3534 25.3997 39.8497 21.4654C38.9701 14.5952 36.7712 9.61475 31.1423 9.61475C25.6011 9.61475 23.6665 14.681 22.4348 21.2931C21.7083 25.1942 17.4951 29.7075 17.1581 33.9158C16.4179 43.1501 21.1996 48.5494 31.7581 48.5494C42.3167 48.5501 45.8674 43.1515 45.1272 33.9166Z" fill="#458953"/>
<path d="M44.0787 33.776C43.7668 29.7754 39.6635 25.6802 39.1972 21.9406C38.3837 15.4107 36.3493 10.6761 31.143 10.6761C26.0171 10.6761 24.2277 15.4922 23.0887 21.7769C22.4168 25.4849 18.5191 29.7754 18.2072 33.776C17.5224 42.5539 21.9454 47.6858 31.7128 47.6858C41.4802 47.6858 44.7635 42.5539 44.0787 33.776Z" fill="#DBD863"/>
<path d="M42.073 32.9209C41.8122 29.4062 38.3801 25.8086 37.9906 22.5231C37.3101 16.7863 35.6091 12.627 31.2543 12.627C26.9678 12.627 25.4709 16.8577 24.5181 22.3796C23.9561 25.637 20.6965 29.4062 20.4356 32.9209C19.8629 40.6325 23.5623 45.1407 31.7308 45.1407C39.8992 45.1407 42.6458 40.6325 42.073 32.9209Z" fill="#CCCC5A"/>
<path d="M25.0132 37.6866C25.0132 37.6866 25.9546 42.1681 30.8908 42.9302C35.8262 43.6923 38.7014 40.9165 39.5148 38.631C40.4807 35.9187 39.6772 30.4689 36.5937 27.1121C33.9707 24.257 30.502 33.8971 30.502 33.8971L25.0132 37.6866Z" fill="#B2AF50"/>
<path d="M30.4891 23.3673C26.6517 23.3514 23.8477 28.2375 23.9217 33.1083C23.9957 37.9785 26.4958 40.9021 31.4485 40.9165C36.9832 40.9323 38.391 36.8963 38.3852 33.3405C38.3787 29.7803 36.1094 23.3904 30.4891 23.3673Z" fill="#C76C2F"/>
<path d="M33.794 24.2505C35.6258 26.435 36.4292 29.5511 36.432 31.6664C36.4378 35.223 35.03 39.259 29.4953 39.2431C27.8849 39.2388 26.5346 38.9259 25.4416 38.3397C26.6826 39.9936 28.6825 40.9086 31.4478 40.9165C36.9825 40.9324 38.3895 36.8964 38.3845 33.3405C38.3802 30.5842 37.0177 26.1308 33.794 24.2505Z" fill="#A55B28"/>
<path d="M28.5064 25.9722C27.2775 26.7927 26.3412 28.0436 25.8971 29.456C25.6923 30.1063 25.5938 30.8265 25.8439 31.4603C26.094 32.094 26.7795 32.5907 27.4414 32.4365C27.9056 32.3283 28.2577 31.9383 28.4747 31.5122C28.6918 31.0861 28.8017 30.6153 28.9749 30.1697C29.2774 29.3925 29.7769 28.6924 30.4128 28.1546C30.7671 27.8554 31.1889 27.567 31.2996 27.1157C31.4663 26.4408 30.8663 25.805 30.2936 25.5548C29.6533 25.2765 29.0604 25.6024 28.5064 25.9722Z" fill="#DD7936"/>
<path d="M27.2646 17.8302C27.823 17.8302 28.2757 17.376 28.2757 16.8158C28.2757 16.2556 27.823 15.8014 27.2646 15.8014C26.7062 15.8014 26.2535 16.2556 26.2535 16.8158C26.2535 17.376 26.7062 17.8302 27.2646 17.8302Z" fill="black"/>
<path d="M27.1785 16.4907C27.1785 16.6703 27.0334 16.8159 26.8544 16.8159C26.6755 16.8159 26.5303 16.6703 26.5303 16.4907C26.5303 16.3112 26.6755 16.1656 26.8544 16.1656C27.0334 16.1656 27.1785 16.3112 27.1785 16.4907Z" fill="white"/>
<path d="M35.7464 17.8302C36.3048 17.8302 36.7575 17.376 36.7575 16.8158C36.7575 16.2556 36.3048 15.8014 35.7464 15.8014C35.188 15.8014 34.7354 16.2556 34.7354 16.8158C34.7354 17.376 35.188 17.8302 35.7464 17.8302Z" fill="black"/>
<path d="M35.6597 16.4907C35.6597 16.6703 35.5145 16.8159 35.3356 16.8159C35.1566 16.8159 35.0115 16.6703 35.0115 16.4907C35.0115 16.3112 35.1566 16.1656 35.3356 16.1656C35.5145 16.1656 35.6597 16.3112 35.6597 16.4907Z" fill="white"/>
<path d="M27.5089 14.6889C27.4888 14.7862 27.5542 14.8821 27.6325 14.942C27.7432 15.0278 27.8812 15.0674 28.0112 15.12C28.2362 15.2109 28.4438 15.3435 28.6213 15.5094C28.7033 15.5858 28.8125 15.6759 28.9124 15.6254C28.9778 15.5923 29.0036 15.5072 28.9885 15.4351C28.9735 15.363 28.9268 15.3017 28.8786 15.2462C28.7608 15.1107 27.6218 14.1424 27.5089 14.6889Z" fill="black"/>
<path d="M35.4446 14.7265C35.4569 14.8281 35.3828 14.9182 35.2988 14.9701C35.1795 15.0437 35.0365 15.0668 34.9006 15.1042C34.6657 15.1684 34.4443 15.2773 34.251 15.4244C34.1619 15.4921 34.0433 15.5707 33.947 15.5058C33.8838 15.4633 33.8644 15.3732 33.886 15.3011C33.9075 15.229 33.9593 15.1727 34.0124 15.1223C34.1432 14.9983 35.3756 14.1533 35.4446 14.7265Z" fill="black"/>
<path d="M37.0227 19.7827C37.0227 20.34 36.5721 20.7921 36.0166 20.7921C35.4611 20.7921 35.0106 20.34 35.0106 19.7827C35.0106 19.2254 35.4611 18.7734 36.0166 18.7734C36.5721 18.7734 37.0227 19.2254 37.0227 19.7827Z" fill="#DB928D"/>
<path d="M28.2707 19.7827C28.2707 20.34 27.8201 20.7921 27.2647 20.7921C26.7092 20.7921 26.2586 20.34 26.2586 19.7827C26.2586 19.2254 26.7092 18.7734 27.2647 18.7734C27.8201 18.7734 28.2707 19.2254 28.2707 19.7827Z" fill="#DB928D"/>
<path d="M30.9181 21.4229C30.5415 21.4229 30.3518 21.0999 30.1837 20.8151C30.0098 20.5202 29.8452 20.2412 29.5031 20.2412C29.5003 20.2412 29.4967 20.2412 29.4938 20.2412C28.9426 20.2491 28.6293 21.2022 28.6264 21.2116C28.6049 21.2794 28.5316 21.3169 28.464 21.2953C28.3965 21.2736 28.3591 21.2008 28.3807 21.1323C28.3958 21.0862 28.7544 19.9932 29.4902 19.9824C29.4945 19.9824 29.4996 19.9824 29.5039 19.9824C29.9932 19.9824 30.2218 20.371 30.4064 20.6831C30.5825 20.9823 30.7047 21.1633 30.9188 21.1633C31.36 21.1633 31.5081 20.8966 31.6791 20.588C31.8322 20.3111 32.0061 19.9975 32.4257 19.9888C32.9482 19.9766 33.1343 20.3126 33.2845 20.5822C33.4239 20.8331 33.5338 21.0307 33.8594 21.0465C34.3006 21.0667 34.5715 20.4171 34.6527 20.0703C34.6693 20.0004 34.7382 19.9578 34.8079 19.9737C34.8777 19.9903 34.92 20.0595 34.9042 20.1294C34.7986 20.5801 34.4558 21.3356 33.8464 21.3046C33.3779 21.2816 33.2011 20.9636 33.0588 20.7077C32.9137 20.4459 32.7994 20.2412 32.4308 20.247C32.1728 20.2527 32.0628 20.4279 31.9048 20.7134C31.7287 21.0299 31.511 21.4229 30.9181 21.4229Z" fill="black"/>
<path d="M13.8949 7.9356C14.5948 7.88081 15.2078 7.4511 15.5075 6.91181C15.6382 6.67678 15.7036 6.36892 15.4945 6.1793C15.3429 6.0416 15.0979 6.01564 14.8758 6.01708C14.1299 6.02069 12.9363 6.27736 12.4886 6.84549C11.9748 7.49725 13.2683 7.98463 13.8949 7.9356Z" fill="black"/>
<path d="M47.7673 7.24282C47.9822 7.47137 48.2761 7.60619 48.5686 7.71794C48.9128 7.84988 49.2657 7.95875 49.6242 8.04238C49.7888 8.08059 49.9677 8.11304 50.1215 8.04455C50.2193 8.00129 50.2961 7.92126 50.3544 7.83185C50.6332 7.39999 50.4427 6.785 50.0525 6.45119C49.6623 6.11738 49.1306 6.00636 48.6196 5.96166C48.4285 5.94435 48.233 5.93569 48.0469 5.98184C47.4138 6.13829 47.3498 6.7987 47.7673 7.24282Z" fill="black"/>
<path d="M12.7005 19.6348L12.0114 19.9412C11.3689 20.2267 10.6108 19.9333 10.3262 19.2894L3.2752 3.3307C2.99063 2.68615 3.28311 1.92552 3.92483 1.64002L4.61398 1.33361C5.25642 1.0481 6.01455 1.34154 6.29912 1.98537L13.3501 17.9441C13.6347 18.5879 13.3422 19.3493 12.7005 19.6348Z" fill="#60634F"/>
<path d="M8.88615 18.7625L7.9189 19.1922C7.35336 19.4438 6.68504 19.185 6.43425 18.6176L1.12802 6.60762C0.877225 6.04022 1.1352 5.36971 1.70075 5.11809L2.66801 4.68839C3.23356 4.43678 3.90186 4.6956 4.15266 5.26301L9.45889 17.273C9.70969 17.8404 9.4517 18.5109 8.88615 18.7625Z" fill="#60634F"/>
<path d="M5.1709 17.4769L4.12676 17.9412C3.72074 18.1215 3.24143 17.9362 3.06178 17.5289L0.0687558 10.7546C-0.110897 10.3473 0.0737839 9.86636 0.4798 9.68612L1.52394 9.22181C1.92996 9.04157 2.40927 9.22686 2.58892 9.63421L5.58194 16.4085C5.7616 16.8158 5.5762 17.296 5.1709 17.4769Z" fill="#60634F"/>
<path d="M3.73943 15.2664L3.45558 15.3926C3.20694 15.5029 2.91375 15.3897 2.80308 15.1402L0.785213 10.5736C0.675265 10.3242 0.788087 10.03 1.03673 9.91897L1.32058 9.7928C1.56922 9.68249 1.86241 9.79568 1.97308 10.0451L3.99094 14.6118C4.10089 14.862 3.98807 15.1561 3.73943 15.2664Z" fill="#7A7C63"/>
<path d="M5.32321 12.7078L5.11912 12.7986C4.84893 12.919 4.52914 12.795 4.40913 12.5239L1.95435 6.96812C1.83435 6.69703 1.95795 6.3762 2.22815 6.2558L2.43151 6.16495C2.70243 6.04455 3.02149 6.16856 3.1415 6.43965L5.59628 11.9955C5.71701 12.2665 5.59341 12.5874 5.32321 12.7078Z" fill="#7A7C63"/>
<path d="M7.51358 9.0611L7.30949 9.15195C7.03929 9.27235 6.71951 9.14834 6.5995 8.87725L4.14472 3.32144C4.02471 3.05036 4.14832 2.72952 4.41852 2.60912L4.6226 2.51827C4.8928 2.39787 5.21258 2.52116 5.33259 2.79296L7.78737 8.34878C7.90738 8.61987 7.78449 8.9407 7.51358 9.0611Z" fill="#7A7C63"/>
<path d="M48.887 18.3991L49.5618 18.7373C50.1898 19.0523 50.9609 18.7942 51.2749 18.1641L59.0539 2.54998C59.3679 1.91985 59.1107 1.14624 58.4826 0.83118L57.8078 0.493044C57.1798 0.177979 56.4087 0.436088 56.0947 1.06622L48.3157 16.6803C48.0009 17.3104 48.2582 18.0841 48.887 18.3991Z" fill="#60634F"/>
<path d="M52.7365 17.7048L53.6829 18.1792C54.2362 18.4568 54.916 18.2297 55.1927 17.6745L61.0472 5.92414C61.3239 5.36899 61.0975 4.68695 60.5435 4.40938L59.5978 3.93498C59.0444 3.6574 58.3646 3.8845 58.088 4.44037L52.2334 16.1908C51.9568 16.7459 52.1831 17.4273 52.7365 17.7048Z" fill="#60634F"/>
<path d="M56.5078 16.593L57.5297 17.1057C57.9271 17.3046 58.4143 17.1417 58.6126 16.7437L61.9154 10.1151C62.1137 9.71641 61.9513 9.22759 61.5546 9.0286L60.5328 8.51599C60.1354 8.317 59.6482 8.47994 59.4498 8.87792L56.1471 15.5065C55.948 15.9052 56.1104 16.3941 56.5078 16.593Z" fill="#60634F"/>
<path d="M58.0392 14.4518L58.3165 14.591C58.5594 14.7128 58.8584 14.6133 58.9798 14.3689L61.2061 9.90033C61.3275 9.65665 61.2284 9.35671 60.9847 9.23487L60.7074 9.09573C60.4645 8.97388 60.1655 9.07337 60.0441 9.31778L57.8178 13.7864C57.6971 14.0301 57.7963 14.33 58.0392 14.4518Z" fill="#7A7C63"/>
<path d="M56.5754 11.8217L56.7744 11.9219C57.0389 12.0546 57.3637 11.9457 57.4959 11.6804L60.2043 6.24427C60.3366 5.97895 60.2281 5.65307 59.9636 5.52042L59.7646 5.4202C59.5001 5.28754 59.1753 5.39641 59.0431 5.66172L56.3346 11.0979C56.2024 11.3632 56.3109 11.689 56.5754 11.8217Z" fill="#7A7C63"/>
<path d="M54.5553 8.0769L54.7544 8.17712C55.0189 8.30978 55.3437 8.20091 55.4759 7.9356L58.1843 2.49946C58.3166 2.23414 58.2081 1.90826 57.9436 1.7756L57.7445 1.67539C57.4801 1.54273 57.1553 1.6516 57.0231 1.91691L54.3146 7.35304C54.1824 7.61836 54.2902 7.94424 54.5553 8.0769Z" fill="#7A7C63"/>
</svg>
