<svg width="37" height="59" viewBox="0 0 37 59" fill="none" xmlns="http://www.w3.org/2000/svg">
<path d="M30.806 34.9536C30.2342 34.9536 29.8494 34.8982 29.8063 34.8917C29.4661 34.84 29.2316 34.5228 29.2827 34.1819C29.3345 33.8417 29.6516 33.6072 29.9925 33.6583C30.0156 33.6619 32.4444 34.0021 34.0777 32.7765C34.8847 32.171 35.3773 31.2619 35.5413 30.0737C35.9692 26.9724 31.5691 24.9601 30.1227 24.2984C29.7236 24.1157 29.5891 24.0539 29.4747 23.9481C29.2223 23.7137 29.2079 23.3188 29.4423 23.0671C29.6603 22.8326 30.0163 22.8039 30.268 22.9894C30.3284 23.0218 30.4938 23.0973 30.6406 23.1649C32.2948 23.9215 37.33 26.2252 36.7755 30.2449C36.564 31.7775 35.9052 32.9671 34.8178 33.7798C33.4937 34.7709 31.8431 34.9536 30.806 34.9536Z" fill="black"/>
<path d="M12.1431 16.3691C12.1467 16.3784 12.1489 16.3856 12.151 16.3899C12.2697 16.7129 12.6847 16.8589 13.0781 16.715C13.4701 16.5726 13.6923 16.1965 13.5772 15.875C13.5765 15.8735 13.5765 15.8728 13.5758 15.8714C13.5571 15.8268 11.8569 11.0562 13.8937 7.20841C15.6766 3.83959 19.6985 2.36807 19.7388 2.35369C20.1329 2.21272 20.358 1.83585 20.2422 1.51149C20.1264 1.18784 19.7129 1.03968 19.3188 1.18064C19.1274 1.24897 14.6179 2.9003 12.5523 6.80421C10.3134 11.031 11.9942 15.9541 12.1431 16.3691Z" fill="black"/>
<path d="M27.1934 54.7673C27.0272 54.7673 26.8611 54.7069 26.7309 54.5847C24.5474 52.5435 22.7616 49.6113 21.4238 45.8706C20.4809 43.2347 20.0782 41.049 19.9768 40.442L19.9753 40.4348C19.971 40.4125 19.9681 40.3902 19.966 40.3679C19.9322 40.0047 20.1918 39.6796 20.5536 39.6328C20.8679 39.5918 21.2411 39.7839 21.3138 40.2197C21.4641 41.1223 22.9191 49.1661 27.6566 53.595C27.9299 53.8503 27.9442 54.2797 27.6889 54.553C27.5551 54.6954 27.3739 54.7673 27.1934 54.7673Z" fill="black"/>
<path d="M8.50821 54.3624C8.2011 54.3624 7.92277 54.1524 7.84941 53.8403C6.71952 49.046 5.67089 40.9605 5.37601 38.5965L5.36523 38.5109C5.36379 38.4994 5.36235 38.4879 5.36091 38.4757C5.32711 38.1074 5.59466 37.7795 5.9629 37.7392C6.28439 37.7039 6.65551 37.9082 6.7116 38.3534L6.72095 38.4282C7.01367 40.775 8.05438 48.8007 9.16844 53.5289C9.25403 53.8935 9.0282 54.2582 8.66427 54.3437C8.61177 54.3567 8.55927 54.3624 8.50821 54.3624Z" fill="black"/>
<path d="M32.2136 8.36842C32.2136 8.36842 32.6329 7.06951 32.6034 6.28197C32.5646 5.24989 32.0834 4.19696 32.0834 4.19696C32.0834 4.19696 31.8899 3.64675 31.2685 3.46767C30.2623 3.17782 30.1717 3.71868 30.1717 3.71868C30.1717 3.71868 30.3371 4.8198 30.3033 5.35417C30.2307 6.51283 29.8927 7.01053 29.9013 6.70559L32.2136 8.36842Z" fill="#A55B28"/>
<path d="M4.84588 19.648C7.635 16.2166 14.0317 15.1399 16.8029 12.0444C21.6403 6.63949 26.4993 3.65114 31.3728 7.00197C36.1699 10.3003 34.8394 15.8246 31.9819 22.263C30.2961 26.0619 31.2663 32.4644 29.0605 36.2971C24.2223 44.7062 16.8791 46.5186 7.73786 40.2334C-1.40412 33.9482 -1.27466 27.176 4.84588 19.648Z" fill="#458953"/>
<path d="M5.83631 20.1499C8.48016 16.8832 14.4626 15.7922 17.0849 12.8427C21.6641 7.69235 26.234 4.81764 30.7414 7.91747C35.1789 10.9684 33.8707 16.1899 31.1276 22.2917C29.5094 25.8914 30.3379 31.9134 28.2342 35.552C23.619 43.5338 16.7447 45.3297 8.28812 39.5156C-0.168436 33.7014 0.0351053 27.3169 5.83631 20.1499Z" fill="#DBD863"/>
<path d="M8.0802 20.6067C10.3918 17.7291 15.4975 16.6675 17.7846 14.064C21.7777 9.5185 25.7183 6.94227 29.4884 9.53433C33.1996 12.0861 31.9856 16.628 29.5337 21.9602C28.0874 25.1061 28.6728 30.2989 26.8137 33.4871C22.7335 40.4823 16.8561 42.171 9.78402 37.3083C2.71124 32.4457 3.009 26.9207 8.0802 20.6067Z" fill="#CCCC5A"/>
<path d="M20.0229 34.8745C20.0229 34.8745 16.5483 38.1815 11.8231 35.9001C7.09782 33.6195 6.25561 29.5135 6.90794 27.0566C7.6811 24.1416 11.6102 19.9162 16.2721 18.8554C20.2365 17.9535 17.52 28.3368 17.52 28.3368L20.0229 34.8745Z" fill="#B2AF50"/>
<path d="M23.7778 19.2581C27.1092 21.5287 26.6374 27.4148 23.6836 31.5733C20.7298 35.7325 16.8309 36.7667 12.5343 33.8309C7.73351 30.5498 8.90943 26.2295 11.0246 23.1635C13.1413 20.096 18.8986 15.9324 23.7778 19.2581Z" fill="#C76C2F"/>
<path d="M20.3925 18.0534C17.5105 18.8482 14.9667 21.059 13.7081 22.8822C11.5928 25.9476 10.4169 30.2686 15.2177 33.5497C16.6144 34.5041 17.9694 35.0385 19.2633 35.183C17.2078 35.8713 14.9329 35.4707 12.5343 33.8316C7.73351 30.5505 8.90943 26.2302 11.0246 23.1642C12.6637 20.7879 16.4857 17.7571 20.3925 18.0534Z" fill="#A55B28"/>
<path d="M23.949 22.6866C24.5259 24.1258 24.5949 25.7634 24.1411 27.2457C23.9325 27.9283 23.5902 28.6086 22.9982 29.0071C22.4063 29.4055 21.5174 29.4257 21.0355 28.8992C20.6975 28.5295 20.6241 27.9829 20.6896 27.4867C20.755 26.9904 20.9384 26.5179 21.0528 26.0302C21.252 25.1794 21.2354 24.2782 21.0039 23.4353C20.8751 22.9664 20.6809 22.4658 20.8521 22.0105C21.1081 21.3294 22.005 21.1374 22.6494 21.2626C23.3686 21.4028 23.6887 22.0372 23.949 22.6866Z" fill="#DD7936"/>
<path d="M29.5812 14.9227C29.2489 15.406 29.3712 16.0677 29.8545 16.4C30.3378 16.7323 30.9995 16.61 31.3318 16.1267C31.664 15.6434 31.5418 14.9817 31.0585 14.6494C30.5751 14.3171 29.9135 14.4394 29.5812 14.9227Z" fill="black"/>
<path d="M30.7254 15.2959C30.619 15.4513 30.6578 15.6634 30.8131 15.7699C30.9685 15.8763 31.1807 15.8375 31.2871 15.6821C31.3936 15.5268 31.3547 15.3146 31.1994 15.2082C31.044 15.1017 30.8318 15.1406 30.7254 15.2959Z" fill="white"/>
<path d="M22.2379 9.87378C21.9056 10.3571 22.0279 11.0188 22.5112 11.3511C22.9945 11.6833 23.6562 11.5611 23.9885 11.0777C24.3208 10.5944 24.1985 9.93276 23.7152 9.60048C23.2319 9.26749 22.5702 9.39047 22.2379 9.87378Z" fill="black"/>
<path d="M23.3824 10.2471C23.2759 10.4025 23.3148 10.6139 23.4701 10.7211C23.6255 10.8282 23.8376 10.7887 23.9441 10.6333C24.0505 10.478 24.0117 10.2665 23.8563 10.1594C23.701 10.0522 23.4888 10.0918 23.3824 10.2471Z" fill="white"/>
<path d="M32.5114 14.4876C32.4186 14.5336 32.3043 14.4926 32.2215 14.4293C32.1057 14.3394 32.0281 14.2092 31.9403 14.0913C31.7886 13.887 31.5987 13.7101 31.3837 13.5742C31.2844 13.5109 31.1643 13.4239 31.1888 13.3088C31.2046 13.2333 31.2844 13.1851 31.3621 13.1808C31.439 13.1772 31.5131 13.2081 31.5822 13.2426C31.7512 13.3268 33.0343 14.2287 32.5114 14.4876Z" fill="black"/>
<path d="M23.5066 8.16711C23.5009 8.27068 23.5829 8.35986 23.6735 8.41093C23.8022 8.48285 23.9511 8.50299 24.0942 8.53751C24.3416 8.5972 24.5783 8.70292 24.7883 8.84749C24.8847 8.91437 25.0127 8.99061 25.1091 8.92301C25.1723 8.87842 25.186 8.78635 25.1594 8.71371C25.1328 8.64107 25.0752 8.58498 25.0163 8.53535C24.8724 8.41308 23.5412 7.58383 23.5066 8.16711Z" fill="black"/>
<path d="M20.3795 12.3658C20.0487 12.847 20.1702 13.5051 20.6514 13.8359C21.1325 14.1668 21.7906 14.0452 22.1215 13.5641C22.4523 13.0829 22.3307 12.4248 21.8496 12.094C21.3684 11.7631 20.7104 11.8854 20.3795 12.3658Z" fill="#DB928D"/>
<path d="M27.8256 17.486C27.4947 17.9671 27.6163 18.6252 28.0974 18.9561C28.5786 19.2869 29.2367 19.1653 29.5675 18.6842C29.8983 18.203 29.7761 17.5449 29.2956 17.2141C28.8145 16.8833 28.1564 17.0048 27.8256 17.486Z" fill="#DB928D"/>
<path d="M22.4911 53.8028C22.7371 52.8743 23.8282 51.5948 23.8282 51.5948L27.0366 51.6056C27.0467 51.5517 27.0596 51.4977 27.0761 51.4445C27.1574 51.1892 27.3293 50.954 27.5739 50.844C27.6443 50.8123 27.727 50.7922 27.7968 50.8246C27.9004 50.8727 27.9234 51.0058 27.9421 51.118C28.0068 51.5071 28.1809 51.8746 28.4312 52.1789C29.1863 52.6629 30.2076 53.4073 30.824 54.2293C31.4339 55.042 31.1606 56.0439 31.1606 56.0439L22.4847 55.6217C22.4854 55.6225 22.1495 55.0946 22.4911 53.8028Z" fill="#458953"/>
<path d="M31.2216 55.5671C31.2216 55.5671 31.2554 55.7764 31.0087 55.8325C30.7613 55.8886 22.4119 55.4405 22.4119 55.4405C22.4119 55.4405 22.2623 55.5232 22.2429 55.7649C22.2235 56.0065 22.2415 56.164 22.2415 56.164C22.2415 56.164 30.2082 56.7991 30.8922 56.6869C31.5762 56.5747 31.4841 56.1604 31.4884 55.9483C31.492 55.6721 31.2216 55.5671 31.2216 55.5671Z" fill="#DBD863"/>
<path d="M23.4297 53.5281C23.4283 54.0395 23.8411 54.4545 24.3517 54.4566C24.8631 54.4581 25.2781 54.0452 25.2802 53.5346C25.2817 53.024 24.8688 52.6082 24.3582 52.6061C23.8476 52.6046 23.4318 53.0175 23.4297 53.5281Z" fill="#DBD863"/>
<path d="M27.5228 55.8009L28.6405 53.9338L28.2233 53.6569L26.7777 55.7131L27.5228 55.8009Z" fill="#DBD863"/>
<path d="M26.2886 55.7117L27.7141 53.421L27.0668 52.988L25.2731 55.6513L26.2886 55.7117Z" fill="#DBD863"/>
<path d="M29.4446 54.1668L30.1055 53.5102C30.1602 53.4562 30.1602 53.367 30.1063 53.3131L30.0919 53.2987C30.0379 53.2441 29.9495 53.2441 29.8948 53.298L29.2338 53.9546C29.1792 54.0086 29.1792 54.097 29.2331 54.1517L29.2475 54.1661C29.3015 54.2207 29.3906 54.2207 29.4446 54.1668Z" fill="black"/>
<path d="M28.9698 53.7525L29.6308 53.0959C29.6854 53.0419 29.6854 52.9527 29.6315 52.8988L29.6171 52.8844C29.5632 52.8297 29.4747 52.8297 29.4201 52.8837L28.7591 53.5403C28.7044 53.5943 28.7044 53.6835 28.7584 53.7374L28.7728 53.7518C28.8274 53.8057 28.9159 53.8064 28.9698 53.7525Z" fill="black"/>
<path d="M28.4958 53.3828L29.1568 52.7262C29.2115 52.6722 29.2115 52.5838 29.1575 52.5291L29.1431 52.5147C29.0892 52.4601 29.0007 52.4601 28.9461 52.514L28.2851 53.1706C28.2304 53.2246 28.2304 53.313 28.2844 53.3677L28.2988 53.3821C28.3527 53.4368 28.4412 53.4368 28.4958 53.3828Z" fill="black"/>
<path d="M27.9939 53.0441L28.6549 52.3874C28.7095 52.3335 28.7095 52.245 28.6556 52.1904L28.6412 52.176C28.5872 52.1213 28.498 52.1213 28.4441 52.1753L27.7832 52.8319C27.7285 52.8858 27.7285 52.9743 27.7824 53.029L27.7968 53.0433C27.8508 53.098 27.9399 53.098 27.9939 53.0441Z" fill="black"/>
<path d="M26.0829 16.7854C25.9578 16.7559 24.8185 17.4996 23.616 16.5603C22.7695 15.8994 23.0255 14.6666 23.0255 14.6666C23.0255 14.6666 22.9831 15.0262 24.0195 15.8519C25.0558 16.6776 26.0829 16.7854 26.0829 16.7854Z" fill="black"/>
<path d="M11.4943 55.5751C11.4907 56.5676 11.0714 57.112 10.0817 57.5838C8.73178 58.2275 6.81292 58.1045 5.75135 57.3796C4.95302 56.8337 4.82644 55.6391 4.82644 55.6391C4.82644 55.6391 4.79407 54.6876 5.19252 54.7221C5.51545 54.7501 9.72646 54.1438 11.2045 54.7947C11.3843 54.8731 11.495 55.2334 11.4943 55.5751Z" fill="#DBD863"/>
<path d="M11.2282 55.4024C11.2145 55.6901 10.8427 57.1307 7.87878 57.1206C5.11986 57.1113 5.12561 55.3815 5.12561 55.3815C5.12561 55.3815 5.29103 52.819 5.98795 52.422C6.49716 52.1321 9.42581 51.9667 10.2313 52.4745C10.9362 52.919 11.2677 54.5703 11.2282 55.4024Z" fill="#458953"/>
<path d="M9.62291 52.7953C9.62291 52.7385 9.55314 50.9541 8.19382 50.9476C6.34255 50.939 6.64032 52.7852 6.64032 52.7852L9.62291 52.7953Z" fill="#458953"/>
<path d="M7.23006 53.1865L9.14174 53.1929C9.22374 53.1929 9.29133 53.126 9.29205 53.0441C9.29205 52.9621 9.22518 52.8945 9.14318 52.8937L7.2315 52.8873C7.14951 52.8873 7.0819 52.9542 7.08118 53.0361C7.08118 53.1189 7.14807 53.1857 7.23006 53.1865Z" fill="black"/>
<path d="M7.22787 53.8711L9.13955 53.8776C9.22154 53.8776 9.28916 53.8107 9.28988 53.7287C9.28988 53.6468 9.22298 53.5792 9.14099 53.5784L7.22931 53.572C7.14732 53.572 7.0797 53.6388 7.07899 53.7208C7.07827 53.8035 7.14588 53.8711 7.22787 53.8711Z" fill="black"/>
<path d="M7.22504 54.635L9.13672 54.6415C9.21871 54.6415 9.28633 54.5746 9.28705 54.4926C9.28705 54.4106 9.22015 54.343 9.13816 54.3423L7.22648 54.3358C7.14449 54.3358 7.07689 54.4027 7.07617 54.4847C7.07617 54.5674 7.14305 54.635 7.22504 54.635Z" fill="black"/>
<path d="M7.20418 55.3995L9.11585 55.406C9.19784 55.406 9.26545 55.3391 9.26617 55.2571C9.26617 55.1751 9.19928 55.1075 9.11729 55.1068L7.2056 55.1003C7.12361 55.1003 7.05602 55.1672 7.0553 55.2492C7.0553 55.3312 7.12219 55.3988 7.20418 55.3995Z" fill="black"/>
<path d="M10.3501 54.1862C10.4256 54.5804 10.609 54.876 10.76 54.8472C10.9104 54.8184 10.9715 54.4754 10.896 54.0812C10.8204 53.6871 10.637 53.3915 10.486 53.4203C10.335 53.449 10.2739 53.7921 10.3501 54.1862Z" fill="#DBD863"/>
<path d="M6.10374 54.082C6.01096 54.4725 5.81461 54.7595 5.66502 54.7242C5.51542 54.689 5.47011 54.3438 5.56289 53.9532C5.65567 53.5634 5.85202 53.2757 6.00161 53.311C6.15121 53.3462 6.19723 53.6914 6.10374 54.082Z" fill="#DBD863"/>
<path d="M23.2636 0.583661C23.0335 0.443413 22.7724 0.361421 22.5091 0.308199C21.2865 0.0600692 20.0027 0.416084 18.9195 1.03461C17.8357 1.65314 16.9187 2.52051 16.0132 3.37854L16.367 3.92802C16.9546 3.3958 17.758 3.16709 18.5455 3.07647C19.3331 2.98585 20.1307 3.01749 20.9175 2.92399C21.1685 2.8945 21.4203 2.85063 21.6518 2.75066C21.8093 2.68234 21.9791 2.52986 21.9179 2.36876C21.8964 2.31194 21.8489 2.26879 21.8 2.23139C21.6288 2.10049 21.4253 2.01275 21.2124 1.97822C21.7784 1.89408 22.3423 1.79123 22.9011 1.66824C23.0601 1.63372 23.2219 1.5956 23.3614 1.51073C23.5002 1.42587 23.6153 1.2849 23.6268 1.12235C23.6434 0.8958 23.4585 0.702331 23.2636 0.583661Z" fill="black"/>
<path d="M31.8424 33.764C31.6223 33.7496 31.1634 33.5979 31.0901 33.3893C30.8628 32.7391 31.1037 32.0314 31.1714 31.346C31.1821 31.2367 31.1879 31.1216 31.1462 31.0202C31.1045 30.9181 31.0016 30.8332 30.8923 30.8462C30.7758 30.8598 30.6995 30.9706 30.6427 31.0734C30.5003 31.3324 30.3852 31.6064 30.3018 31.8897C30.1997 31.6833 28.9784 31.0569 28.4088 33.3224C27.8673 35.4765 29.4301 35.3916 29.7904 35.4168C31.0728 35.5053 31.5568 35.3147 33.0471 34.5904L31.8424 33.764Z" fill="black"/>
</svg>
