<svg width="49" height="58" viewBox="0 0 49 58" fill="none" xmlns="http://www.w3.org/2000/svg">
<path d="M1.73688 9.93462L9.78357 9.93091L9.78251 7.6342L1.73582 7.63792L1.73688 9.93462Z" fill="#C76C2F"/>
<path d="M9.59282 11.0083L10.5378 11.0075C10.892 11.0075 11.1812 10.7176 11.1812 10.3634L11.1796 7.1993C11.1796 6.84511 10.8897 6.55597 10.5355 6.55597L9.59047 6.55675C9.23629 6.55675 8.94714 6.84668 8.94714 7.20086L8.94871 10.365C8.9495 10.7192 9.23864 11.0083 9.59282 11.0083Z" fill="#C76C2F"/>
<path d="M10.1507 10.3267H10.3701C10.5723 10.3267 10.7368 10.1613 10.7368 9.95915L10.7352 7.30434C10.7352 7.10218 10.5699 6.93762 10.3677 6.93762H10.1483C9.94616 6.93762 9.78162 7.10296 9.78162 7.30513L9.78317 9.95993C9.78317 10.1613 9.94852 10.3267 10.1507 10.3267Z" fill="#DD7936"/>
<path d="M1.10576 11.0138L2.05078 11.013C2.40496 11.013 2.6941 10.7231 2.6941 10.3689L2.69253 7.20479C2.69253 6.85061 2.40261 6.56146 2.04842 6.56146L1.10343 6.56225C0.749244 6.56225 0.460083 6.85217 0.460083 7.20636L0.461652 10.3705C0.461652 10.7247 0.751578 11.0138 1.10576 11.0138Z" fill="#C76C2F"/>
<path d="M1.67852 10.3682H1.89793C2.10009 10.3682 2.26464 10.2028 2.26464 10.0007L2.26307 7.34585C2.26307 7.14368 2.09774 6.97913 1.89557 6.97913H1.67616C1.474 6.97913 1.30945 7.14446 1.30945 7.34663L1.31102 10.0014C1.31102 10.2036 1.47635 10.3682 1.67852 10.3682Z" fill="#DD7936"/>
<path d="M4.2112 7.22283C4.76834 6.79734 5.5002 6.63592 6.19838 6.69782C7.11126 6.77931 8.06646 7.34115 8.24356 8.24071C8.39009 8.98356 7.97948 9.71465 7.55399 10.3407C7.1285 10.9676 6.65209 11.6274 6.64582 12.3851L6.51574 14.6991C6.01345 13.3842 5.31684 12.1438 4.45567 11.0303C3.98865 10.4269 3.45191 9.81024 3.37198 9.05173C3.29754 8.35433 3.65407 7.64832 4.2112 7.22283Z" fill="black"/>
<path d="M47.3447 7.62402H39.298V9.92073H47.3447V7.62402Z" fill="#C76C2F"/>
<path d="M39.4892 10.9982H38.5442C38.19 10.9982 37.9009 10.7082 37.9009 10.3548V7.19069C37.9009 6.83651 38.1908 6.54736 38.5442 6.54736H39.4892C39.8434 6.54736 40.1325 6.83729 40.1325 7.19069V10.3548C40.1325 10.7082 39.8434 10.9982 39.4892 10.9982Z" fill="#C76C2F"/>
<path d="M38.9306 10.3165H38.7112C38.509 10.3165 38.3445 10.1511 38.3445 9.94975V7.29494C38.3445 7.09278 38.5098 6.92822 38.7112 6.92822H38.9306C39.1328 6.92822 39.2973 7.09356 39.2973 7.29494V9.94975C39.2981 10.1511 39.1328 10.3165 38.9306 10.3165Z" fill="#DD7936"/>
<path d="M47.9763 10.9982H47.0313C46.6771 10.9982 46.3879 10.7082 46.3879 10.3548V7.19069C46.3879 6.83651 46.6779 6.54736 47.0313 6.54736H47.9763C48.3305 6.54736 48.6196 6.83729 48.6196 7.19069V10.3548C48.6196 10.7082 48.3305 10.9982 47.9763 10.9982Z" fill="#C76C2F"/>
<path d="M47.4035 10.354H47.1841C46.9819 10.354 46.8174 10.1887 46.8174 9.98728V7.33248C46.8174 7.13031 46.9827 6.96576 47.1841 6.96576H47.4035C47.6057 6.96576 47.7702 7.1311 47.7702 7.33248V9.98728C47.7702 10.1895 47.6049 10.354 47.4035 10.354Z" fill="#DD7936"/>
<path d="M32.4439 20.2798C32.4345 20.2798 32.4274 20.2798 32.4227 20.2798C32.0968 20.2775 31.8335 20.011 31.8358 19.6851C31.8382 19.3599 32.1023 19.0982 32.4267 19.0982C32.4282 19.0982 32.429 19.0982 32.4298 19.0982C32.476 19.1005 37.2787 19.0942 40.0627 16.5883C42.5005 14.3943 42.5287 11.057 42.5287 11.0233C42.5287 10.6973 42.7936 10.4324 43.1195 10.4324C43.4455 10.4324 43.7104 10.6973 43.7104 11.0233C43.7104 11.1815 43.6774 14.9248 40.8534 17.4667C37.7942 20.2195 32.8616 20.2798 32.4439 20.2798Z" fill="black"/>
<path d="M16.729 20.5384C16.7384 20.5384 16.7454 20.5384 16.7501 20.5384C17.0761 20.5384 17.3409 20.2735 17.3409 19.9475C17.3409 19.6224 17.0784 19.3591 16.754 19.3567C16.7533 19.3567 16.7517 19.3567 16.7509 19.3567C16.7055 19.3583 11.902 19.3222 9.13362 16.7983C6.70997 14.5894 6.70292 11.2513 6.70292 11.2176C6.70527 10.8916 6.44199 10.6252 6.11601 10.6228C5.79004 10.6205 5.52361 10.8838 5.52126 11.2097C5.52048 11.368 5.52909 15.1112 8.33748 17.6712C11.3786 20.4443 16.3113 20.536 16.729 20.5384Z" fill="black"/>
<path d="M16.9406 55.4426C16.6169 55.4426 16.3325 55.2287 16.2408 54.9208L16.2353 54.9059C15.8224 53.6756 13.8414 47.1695 15.447 39.8288C15.5332 39.4339 15.9235 39.1839 16.3176 39.2709C16.7125 39.3571 16.9625 39.7473 16.8755 40.1414C15.3522 47.106 17.2297 53.2744 17.6215 54.4404C17.6411 54.4984 17.6575 54.5485 17.6669 54.6238C17.7155 55.025 17.4303 55.3893 17.0291 55.4379C17.0001 55.4411 16.9703 55.4426 16.9406 55.4426ZM16.2149 54.7993V54.8001C16.2157 54.8001 16.2157 54.8001 16.2149 54.7993Z" fill="black"/>
<path d="M30.7905 55.4403C30.3877 55.4074 30.0876 55.0548 30.1205 54.652C30.1268 54.576 30.1417 54.5258 30.1589 54.4671C30.5037 53.2862 32.1312 47.048 30.329 40.1501C30.2271 39.7591 30.4606 39.3594 30.8516 39.2576C31.2426 39.1557 31.6422 39.3892 31.7441 39.7802C33.6435 47.0504 31.9267 53.6318 31.5631 54.8769L31.5584 54.8926C31.4793 55.2036 31.2034 55.4293 30.8798 55.4419C30.8508 55.4434 30.821 55.4426 30.7905 55.4403ZM31.5788 54.7711V54.7703V54.7711Z" fill="black"/>
<path d="M22.1766 3.70215C22.1766 3.70215 22.5817 2.34497 23.0699 1.68911C23.7101 0.82951 24.7405 0.212041 24.7405 0.212041C24.7405 0.212041 25.2303 -0.144493 25.8666 0.0670765C26.8978 0.411073 26.6572 0.927459 26.6572 0.927459C26.6572 0.927459 25.8689 1.77217 25.5829 2.24859C24.9639 3.28215 24.9599 3.90667 25.1323 3.64025L22.1766 3.70215Z" fill="#A55B28"/>
<path d="M38.9486 29.4408C38.5803 24.8661 33.7432 20.1842 33.1939 15.9081C32.2347 8.4413 29.837 3.02826 23.6991 3.02826C17.6568 3.02826 15.5474 8.53455 14.2043 15.7209C13.4121 19.9609 8.81795 24.8661 8.45044 29.4408C7.64334 39.477 12.8573 45.3453 24.3706 45.3453C35.8847 45.3445 39.7557 39.477 38.9486 29.4408Z" fill="#458953"/>
<path d="M37.8061 29.2872C37.466 24.939 32.9909 20.4882 32.4832 16.4237C31.5962 9.32676 29.3786 4.1817 23.7007 4.1817C18.1113 4.1817 16.1602 9.41609 14.9182 16.2466C14.1855 20.2767 9.93536 24.9398 9.59528 29.2879C8.84852 38.8282 13.6715 44.4058 24.3221 44.4058C34.9719 44.405 38.5529 38.8274 37.8061 29.2872Z" fill="#DBD863"/>
<path d="M35.6183 28.3586C35.3339 24.5386 31.5914 20.6285 31.1667 17.0577C30.4247 10.8227 28.5699 6.30212 23.8214 6.30212C19.1472 6.30212 17.515 10.9002 16.476 16.9018C15.8632 20.442 12.3088 24.5386 12.0244 28.3586C11.3999 36.7399 15.4338 41.6397 24.3409 41.6397C33.2479 41.6397 36.2428 36.7399 35.6183 28.3586Z" fill="#CCCC5A"/>
<path d="M17.0157 33.5382C17.0157 33.5382 18.0423 38.409 23.4247 39.2372C28.8064 40.0655 31.9416 37.0486 32.8286 34.5647C33.881 31.6168 33.0057 25.6929 29.6433 22.0452C26.7832 18.9422 23.0008 29.4196 23.0008 29.4196L17.0157 33.5382Z" fill="#B2AF50"/>
<path d="M22.9868 17.9753C18.8024 17.958 15.7448 23.2684 15.8255 28.5624C15.9062 33.8555 18.6324 37.033 24.0329 37.0486C30.0681 37.0659 31.6023 32.6793 31.5969 28.8139C31.5906 24.9453 29.1152 18.0003 22.9868 17.9753Z" fill="#C76C2F"/>
<path d="M26.5905 18.9351C28.5879 21.3094 29.4639 24.6961 29.467 26.9951C29.4733 30.8606 27.9382 35.2471 21.903 35.2299C20.147 35.2252 18.6746 34.8851 17.4828 34.248C18.836 36.0456 21.0168 37.04 24.032 37.0486C30.0673 37.0658 31.6015 32.6793 31.596 28.8138C31.5921 25.8182 30.1064 20.9787 26.5905 18.9351Z" fill="#A55B28"/>
<path d="M20.8249 20.8056C19.4849 21.6973 18.4639 23.0568 17.9797 24.5919C17.7563 25.2987 17.649 26.0815 17.9217 26.7702C18.1944 27.459 18.9419 27.9989 19.6636 27.8312C20.1698 27.7137 20.5538 27.2898 20.7904 26.8267C21.0271 26.3643 21.1469 25.8519 21.3358 25.3684C21.6657 24.5237 22.2095 23.7628 22.903 23.1783C23.2893 22.8531 23.7492 22.5396 23.8699 22.0491C24.0517 21.3157 23.3974 20.6245 22.7729 20.3526C22.0755 20.0494 21.429 20.4036 20.8249 20.8056Z" fill="#DD7936"/>
<path d="M20.2487 11.6358C20.6792 11.2053 20.6792 10.5072 20.2487 10.0767C19.8181 9.64612 19.1201 9.64612 18.6895 10.0767C18.2589 10.5072 18.2589 11.2053 18.6895 11.6358C19.1201 12.0664 19.8181 12.0664 20.2487 11.6358Z" fill="black"/>
<path d="M19.3759 10.5014C19.3759 10.6965 19.2176 10.8548 19.0225 10.8548C18.8274 10.8548 18.6691 10.6965 18.6691 10.5014C18.6691 10.3063 18.8274 10.148 19.0225 10.148C19.2176 10.148 19.3759 10.3063 19.3759 10.5014Z" fill="white"/>
<path d="M29.822 10.8547C29.822 11.4636 29.3283 11.9572 28.7195 11.9572C28.1106 11.9572 27.6169 11.4636 27.6169 10.8547C27.6169 10.2459 28.1106 9.7522 28.7195 9.7522C29.3283 9.7522 29.822 10.2459 29.822 10.8547Z" fill="black"/>
<path d="M28.6246 10.5013C28.6246 10.6965 28.4664 10.8547 28.2712 10.8547C28.0761 10.8547 27.9178 10.6965 27.9178 10.5013C27.9178 10.3062 28.0761 10.1479 28.2712 10.1479C28.4664 10.1479 28.6246 10.3062 28.6246 10.5013Z" fill="white"/>
<path d="M18.3236 8.76026C18.3761 8.85429 18.4984 8.88642 18.6057 8.88015C18.7577 8.87153 18.9004 8.80571 19.0445 8.75635C19.2945 8.67093 19.5601 8.63097 19.825 8.64116C19.9465 8.64586 20.1016 8.64194 20.1478 8.5291C20.1784 8.45545 20.1384 8.3669 20.075 8.31832C20.0115 8.26973 19.9292 8.2525 19.8501 8.24153C19.6565 8.2141 18.029 8.23056 18.3236 8.76026Z" fill="black"/>
<path d="M29.7406 8.649C29.685 8.74146 29.5619 8.76889 29.4546 8.75948C29.3026 8.74538 29.1631 8.67486 29.0205 8.62C28.7736 8.52519 28.5096 8.47661 28.2447 8.47739C28.1233 8.47739 27.9689 8.46799 27.9258 8.35358C27.8976 8.27836 27.9407 8.19138 28.0057 8.14515C28.0708 8.09892 28.153 8.08481 28.233 8.07619C28.4281 8.0566 30.054 8.13026 29.7406 8.649Z" fill="black"/>
<path d="M23.9764 16.3728C21.6664 16.3728 21.1947 14.6254 21.1947 14.1576C21.1947 14.0801 21.2574 14.0166 21.335 14.0166C21.4125 14.0166 21.4752 14.0785 21.4752 14.1561C21.4768 14.189 21.61 16.0907 23.9757 16.0907C26.4432 16.0907 26.6352 14.5502 26.6352 14.0785C26.6352 14.0009 26.6979 13.9374 26.7754 13.9374C26.853 13.9374 26.9157 14.0001 26.9157 14.0785C26.9173 15.188 26.1446 16.3728 23.9764 16.3728Z" fill="black"/>
<path d="M28.8487 15.1763C29.4546 15.1763 29.9458 14.6851 29.9458 14.0793C29.9458 13.4734 29.4546 12.9822 28.8487 12.9822C28.2429 12.9822 27.7517 13.4734 27.7517 14.0793C27.7517 14.6851 28.2429 15.1763 28.8487 15.1763Z" fill="#DB928D"/>
<path d="M19.4708 15.1763C20.0767 15.1763 20.5678 14.6851 20.5678 14.0793C20.5678 13.4734 20.0767 12.9822 19.4708 12.9822C18.8649 12.9822 18.3738 13.4734 18.3738 14.0793C18.3738 14.6851 18.8649 15.1763 19.4708 15.1763Z" fill="#DB928D"/>
<path d="M19.4372 54.3299C19.1857 53.3653 18.0573 52.034 18.0573 52.034H14.7278C14.7176 51.9776 14.7043 51.9219 14.6871 51.8671C14.604 51.6022 14.4261 51.357 14.173 51.2426C14.1002 51.2096 14.0147 51.1885 13.9419 51.2214C13.8345 51.2708 13.8095 51.4087 13.7899 51.5254C13.7209 51.929 13.5391 52.3098 13.2782 52.6248C12.4922 53.124 11.4305 53.8934 10.7879 54.7444C10.1524 55.586 10.4322 56.6266 10.4322 56.6266L19.438 56.2191C19.4372 56.2184 19.7875 55.6714 19.4372 54.3299Z" fill="#458953"/>
<path d="M10.371 56.1298C10.371 56.1298 10.3349 56.3469 10.5912 56.4057C10.8474 56.4644 19.5147 56.0287 19.5147 56.0287C19.5147 56.0287 19.6699 56.1149 19.6894 56.3657C19.709 56.6164 19.6894 56.7794 19.6894 56.7794C19.6894 56.7794 11.4194 57.4102 10.7095 57.2919C9.99956 57.1736 10.0967 56.7434 10.0936 56.5232C10.0897 56.238 10.371 56.1298 10.371 56.1298Z" fill="#DBD863"/>
<path d="M18.4639 54.0416C18.4639 54.5721 18.0337 55.0015 17.504 55.0015C16.9735 55.0015 16.5441 54.5713 16.5441 54.0416C16.5441 53.5111 16.9743 53.0817 17.504 53.0817C18.0345 53.0809 18.4639 53.5111 18.4639 54.0416Z" fill="#DBD863"/>
<path d="M14.2082 56.3861L13.0555 54.4443L13.4889 54.1583L14.9816 56.2975L14.2082 56.3861Z" fill="#DBD863"/>
<path d="M15.4901 56.2975L14.0186 53.9154L14.6917 53.468L16.5433 56.238L15.4901 56.2975Z" fill="#DBD863"/>
<path d="M12.2196 54.6833L11.5355 53.9993C11.4791 53.9428 11.4791 53.8512 11.5355 53.7948L11.5504 53.7799C11.6068 53.7234 11.6985 53.7234 11.7549 53.7799L12.439 54.4639C12.4954 54.5204 12.4954 54.612 12.439 54.6685L12.4241 54.6833C12.3684 54.7398 12.276 54.7398 12.2196 54.6833Z" fill="black"/>
<path d="M12.7139 54.2548L12.0299 53.5707C11.9734 53.5143 11.9734 53.4226 12.0299 53.3662L12.0447 53.3513C12.1012 53.2949 12.1929 53.2949 12.2493 53.3513L12.9333 54.0353C12.9898 54.0918 12.9898 54.1834 12.9333 54.2399L12.9184 54.2548C12.862 54.3112 12.7696 54.3112 12.7139 54.2548Z" fill="black"/>
<path d="M13.2076 53.8731L12.5235 53.189C12.4671 53.1326 12.4671 53.0409 12.5235 52.9845L12.5384 52.9696C12.5948 52.9132 12.6865 52.9132 12.7429 52.9696L13.427 53.6537C13.4834 53.7101 13.4834 53.8018 13.427 53.8582L13.4121 53.8731C13.3557 53.9295 13.264 53.9295 13.2076 53.8731Z" fill="black"/>
<path d="M13.7294 53.5236L13.0454 52.8395C12.9889 52.7831 12.9889 52.6914 13.0454 52.635L13.0602 52.6201C13.1167 52.5637 13.2084 52.5637 13.2648 52.6201L13.9488 53.3042C14.0053 53.3606 14.0053 53.4523 13.9488 53.5087L13.934 53.5236C13.8775 53.5793 13.7851 53.5793 13.7294 53.5236Z" fill="black"/>
<path d="M28.2533 54.4647C28.4829 53.4946 29.5791 52.1374 29.5791 52.1374L32.9078 52.0598C32.9172 52.0034 32.9282 51.947 32.9446 51.8921C33.0214 51.6249 33.1938 51.3765 33.4438 51.2559C33.5159 51.2214 33.6013 51.1979 33.6742 51.2292C33.7831 51.2762 33.8105 51.4134 33.8332 51.5293C33.9116 51.9313 34.102 52.3074 34.37 52.6162C35.1669 53.0973 36.2467 53.8409 36.9096 54.677C37.5647 55.5029 37.3092 56.5506 37.3092 56.5506L28.2964 56.3531C28.2972 56.3531 27.9344 55.814 28.2533 54.4647Z" fill="#458953"/>
<path d="M37.3593 56.053C37.3593 56.053 37.4009 56.2693 37.1454 56.3344C36.8907 56.3994 28.2156 56.1659 28.2156 56.1659C28.2156 56.1659 28.0628 56.256 28.0487 56.5067C28.0346 56.7583 28.0581 56.9205 28.0581 56.9205C28.0581 56.9205 36.3407 57.3585 37.0475 57.2237C37.7543 57.0889 37.6469 56.6611 37.6453 56.4409C37.6438 56.1549 37.3593 56.053 37.3593 56.053Z" fill="#DBD863"/>
<path d="M29.2201 54.1536C29.2327 54.6841 29.6723 55.1034 30.2027 55.0916C30.7332 55.0791 31.1525 54.6395 31.1399 54.109C31.1274 53.5785 30.6878 53.1593 30.1573 53.171C29.6276 53.1836 29.2076 53.6231 29.2201 54.1536Z" fill="#DBD863"/>
<path d="M33.5292 56.3986L34.6364 54.4302L34.196 54.1544L32.7534 56.3281L33.5292 56.3986Z" fill="#DBD863"/>
<path d="M32.2456 56.3399L33.6616 53.9241L32.9783 53.4931L31.1909 56.3054L32.2456 56.3399Z" fill="#DBD863"/>
<path d="M35.4771 54.6497L36.1448 53.9499C36.1996 53.8927 36.1972 53.8002 36.14 53.7454L36.1244 53.7305C36.0672 53.6757 35.9747 53.678 35.9199 53.7352L35.2522 54.435C35.1974 54.4922 35.1997 54.5846 35.2569 54.6395L35.2726 54.6544C35.3306 54.71 35.4223 54.7076 35.4771 54.6497Z" fill="black"/>
<path d="M34.9741 54.2328L35.6417 53.533C35.6965 53.4758 35.6942 53.3834 35.637 53.3285L35.6213 53.3136C35.5641 53.2588 35.4717 53.2611 35.4168 53.3183L34.7492 54.0181C34.6943 54.0753 34.6967 54.1677 34.7539 54.2226L34.7696 54.2375C34.8268 54.2923 34.9184 54.2908 34.9741 54.2328Z" fill="black"/>
<path d="M34.471 53.8629L35.1386 53.1632C35.1935 53.106 35.1911 53.0135 35.1339 52.9587L35.1183 52.9438C35.0603 52.8889 34.9686 52.8913 34.9138 52.9485L34.2461 53.6482C34.1913 53.7054 34.1936 53.7979 34.2508 53.8527L34.2665 53.8676C34.3245 53.9225 34.4162 53.9209 34.471 53.8629Z" fill="black"/>
<path d="M33.9413 53.5252L34.6089 52.8255C34.6638 52.7683 34.6614 52.6758 34.6042 52.6209L34.5893 52.6061C34.5313 52.5512 34.4397 52.5536 34.3848 52.6108L33.7172 53.3105C33.6624 53.3677 33.6647 53.4602 33.7219 53.515L33.7376 53.5299C33.7948 53.5848 33.8865 53.5832 33.9413 53.5252Z" fill="black"/>
<path d="M44.8693 7.20951C44.3122 6.78402 43.5803 6.62338 42.8821 6.68529C41.9692 6.76678 41.014 7.3294 40.8377 8.22896C40.692 8.97259 41.1026 9.7029 41.5289 10.329C41.9543 10.9551 42.4316 11.6149 42.4386 12.3726L42.5703 14.6865C43.0717 13.3717 43.7684 12.1305 44.6287 11.017C45.095 10.4136 45.6317 9.79693 45.7109 9.03841C45.783 8.34102 45.4264 7.635 44.8693 7.20951Z" fill="black"/>
</svg>
