<svg width="207" height="221" viewBox="0 0 207 221" fill="none" xmlns="http://www.w3.org/2000/svg">
<g filter="url(#filter0_d)">
<path d="M69.0433 158.952C69.0433 158.952 45.7895 176.228 47.073 190.312C47.073 190.312 46.3806 200.444 55.6517 205.24C55.6517 205.24 66.3751 213.887 90.6927 177.089C90.6927 177.073 90.9123 159.206 69.0433 158.952Z" fill="url(#paint0_linear)"/>
</g>
<g filter="url(#filter1_d)">
<path d="M143.026 158.952C143.026 158.952 166.28 176.228 164.997 190.312C164.997 190.312 165.689 200.444 156.418 205.24C156.418 205.24 145.694 213.887 121.377 177.089C121.377 177.073 121.174 159.206 143.026 158.952Z" fill="url(#paint1_linear)"/>
</g>
<g filter="url(#filter2_d)">
<path d="M66.0543 107.012C66.0543 107.012 57.7289 122.362 33.0904 113.091C33.0904 113.091 20.9316 105.728 22.215 93.5693C22.215 93.5693 32.2967 86.7975 27.2474 81.4949C27.2474 81.4949 24.8156 79.823 23.3802 82.373C21.9448 84.923 22.6878 87.3041 19.5975 88.1316C14.2273 89.567 21.9279 81.0558 21.9279 81.0558C21.9279 81.0558 25.356 77.6277 20.7627 76.378C18.9051 75.8714 12.7075 81.4104 12.7075 81.4104C12.7075 81.4104 21.4551 75.1115 16.1187 72.6628C16.1187 72.6628 2.4738 75.787 4.6016 87.3379C4.6016 87.3379 4.38206 95.0553 9.07672 101.033C9.07672 101.033 9.29625 123.865 25.7107 128.762C25.7107 128.762 50.4505 136.226 69.6513 132.393C69.6513 132.393 61.7649 158.838 66.0205 161.625C66.0205 161.625 103.324 215.276 143.888 161.726C143.888 161.726 152.601 158.416 136.508 131.549C136.508 131.549 166.5 139.655 189.314 123.021C189.314 123.021 200.19 115.134 198.704 97.4195C198.704 97.4195 206.59 86.9663 200.629 78.2187C200.629 78.2187 199.143 74.8075 195.512 72.6797C195.512 72.6797 191.881 70.9741 189.331 72.6797C186.764 74.3853 195.512 80.3634 195.512 80.3634C195.512 80.3634 187.187 73.3046 185.7 75.8714C185.7 75.8714 183.353 78.8774 185.92 80.7856C185.92 80.7856 196.373 84.0617 190.615 90.4282C190.615 90.4282 184.214 88.8915 183.792 82.2886C183.792 82.2886 180.803 78.0161 178.675 84.315C178.675 84.315 178.456 92.3196 184.434 95.0891C184.434 95.0891 183.573 119.187 139.852 117.059C139.852 117.059 129.381 114.205 129.517 109.393L66.0543 107.012Z" fill="url(#paint2_linear)"/>
</g>
<g filter="url(#filter3_d)">
<path d="M87.0451 173.543C87.0451 173.543 71.0022 184.199 72.8091 187.509C72.8091 187.509 74.2952 191.984 83.6676 188.995C83.6676 188.995 87.6192 187.509 88.4467 184.52C88.4467 184.52 93.8844 181.7 96.0122 185.516C98.1569 189.333 129.111 214.528 142.604 209.716C142.604 209.716 169.928 203.906 145.07 193.639C145.087 193.639 100.065 173.543 87.0451 173.543Z" fill="url(#paint3_linear)"/>
</g>
<g filter="url(#filter4_d)">
<path d="M121.005 176.718C121.005 176.718 136.592 187.002 134.836 190.194C134.836 190.194 133.401 194.517 124.281 191.629C124.281 191.629 120.448 190.194 119.637 187.306C119.637 187.306 114.352 184.587 112.275 188.269C110.198 191.95 80.1213 216.268 66.9999 211.624C66.9999 211.624 40.4363 206.017 64.6019 196.105C64.6019 196.121 108.374 176.718 121.005 176.718Z" fill="url(#paint4_linear)"/>
</g>
<path d="M103.172 0.0266571C103.172 0.0266571 41.7366 0.887901 43.8644 59.3347C43.8644 59.3347 36.1807 117.359 103.172 117.359C103.172 117.359 169.303 125.887 167.597 58.693C167.597 58.693 174.859 3.0157 103.172 0.0266571Z" fill="url(#paint5_linear)"/>
<path d="M104.174 9.80397C104.174 9.80397 55.1168 9.80397 55.1168 65.2617C55.1168 65.2617 50.8443 108.78 104.174 107.919C104.174 107.919 156.221 109.202 156.221 67.8117C156.221 67.8285 161.76 9.80397 104.174 9.80397Z" fill="url(#paint6_radial)"/>
<path d="M66.696 43.9673C66.696 43.9673 76.5075 45.8924 77.791 37.1448" stroke="black" stroke-width="2" stroke-miterlimit="10"/>
<path d="M142.722 43.9673C142.722 43.9673 132.911 45.8924 131.628 37.1448" stroke="black" stroke-width="2" stroke-miterlimit="10"/>
<path d="M65.4293 54.4205C65.4293 54.4205 65.0072 65.2958 72.2518 65.2958C79.4964 65.2958 77.7908 53.7787 77.7908 53.7787" stroke="black" stroke-width="2" stroke-miterlimit="10"/>
<path d="M142.722 54.4205C142.722 54.4205 143.145 65.2958 135.9 65.2958C128.655 65.2958 130.361 53.7787 130.361 53.7787" stroke="black" stroke-width="2" stroke-miterlimit="10"/>
<path d="M96.1305 83.3314C96.1305 83.3314 104.135 97.0945 114.369 83.3314" stroke="black" stroke-miterlimit="10"/>
<path opacity="0.2" d="M70.597 79.0927L76.0009 70.6829" stroke="#BF3376" stroke-width="2" stroke-miterlimit="10"/>
<path opacity="0.2" d="M77.774 79.059L83.3974 70.3114" stroke="#BF3376" stroke-width="2" stroke-miterlimit="10"/>
<path opacity="0.2" d="M138.045 79.0759L132.624 70.666" stroke="#BF3376" stroke-width="2" stroke-miterlimit="10"/>
<path opacity="0.2" d="M130.867 79.0421L125.227 70.2945" stroke="#BF3376" stroke-width="2" stroke-miterlimit="10"/>
<defs>
<filter id="filter0_d" x="43.0217" y="158.952" width="51.6711" height="55.1717" filterUnits="userSpaceOnUse" color-interpolation-filters="sRGB">
<feFlood flood-opacity="0" result="BackgroundImageFix"/>
<feColorMatrix in="SourceAlpha" type="matrix" values="0 0 0 0 0 0 0 0 0 0 0 0 0 0 0 0 0 0 127 0"/>
<feOffset dy="4"/>
<feGaussianBlur stdDeviation="2"/>
<feColorMatrix type="matrix" values="0 0 0 0 0.441667 0 0 0 0 0.441667 0 0 0 0 0.441667 0 0 0 0.25 0"/>
<feBlend mode="normal" in2="BackgroundImageFix" result="effect1_dropShadow"/>
<feBlend mode="normal" in="SourceGraphic" in2="effect1_dropShadow" result="shape"/>
</filter>
<filter id="filter1_d" x="117.377" y="158.952" width="51.6711" height="55.1717" filterUnits="userSpaceOnUse" color-interpolation-filters="sRGB">
<feFlood flood-opacity="0" result="BackgroundImageFix"/>
<feColorMatrix in="SourceAlpha" type="matrix" values="0 0 0 0 0 0 0 0 0 0 0 0 0 0 0 0 0 0 127 0"/>
<feOffset dy="4"/>
<feGaussianBlur stdDeviation="2"/>
<feColorMatrix type="matrix" values="0 0 0 0 0.441667 0 0 0 0 0.441667 0 0 0 0 0.441667 0 0 0 0.25 0"/>
<feBlend mode="normal" in2="BackgroundImageFix" result="effect1_dropShadow"/>
<feBlend mode="normal" in="SourceGraphic" in2="effect1_dropShadow" result="shape"/>
</filter>
<filter id="filter2_d" x="0.376312" y="71.9217" width="206.481" height="121.578" filterUnits="userSpaceOnUse" color-interpolation-filters="sRGB">
<feFlood flood-opacity="0" result="BackgroundImageFix"/>
<feColorMatrix in="SourceAlpha" type="matrix" values="0 0 0 0 0 0 0 0 0 0 0 0 0 0 0 0 0 0 127 0"/>
<feOffset dy="4"/>
<feGaussianBlur stdDeviation="2"/>
<feColorMatrix type="matrix" values="0 0 0 0 0.441667 0 0 0 0 0.441667 0 0 0 0 0.441667 0 0 0 0.25 0"/>
<feBlend mode="normal" in2="BackgroundImageFix" result="effect1_dropShadow"/>
<feBlend mode="normal" in="SourceGraphic" in2="effect1_dropShadow" result="shape"/>
</filter>
<filter id="filter3_d" x="68.6672" y="173.543" width="90.8456" height="44.7811" filterUnits="userSpaceOnUse" color-interpolation-filters="sRGB">
<feFlood flood-opacity="0" result="BackgroundImageFix"/>
<feColorMatrix in="SourceAlpha" type="matrix" values="0 0 0 0 0 0 0 0 0 0 0 0 0 0 0 0 0 0 127 0"/>
<feOffset dy="4"/>
<feGaussianBlur stdDeviation="2"/>
<feColorMatrix type="matrix" values="0 0 0 0 0.441667 0 0 0 0 0.441667 0 0 0 0 0.441667 0 0 0 0.25 0"/>
<feBlend mode="normal" in2="BackgroundImageFix" result="effect1_dropShadow"/>
<feBlend mode="normal" in="SourceGraphic" in2="effect1_dropShadow" result="shape"/>
</filter>
<filter id="filter4_d" x="50.45" y="176.718" width="88.5241" height="43.4931" filterUnits="userSpaceOnUse" color-interpolation-filters="sRGB">
<feFlood flood-opacity="0" result="BackgroundImageFix"/>
<feColorMatrix in="SourceAlpha" type="matrix" values="0 0 0 0 0 0 0 0 0 0 0 0 0 0 0 0 0 0 127 0"/>
<feOffset dy="4"/>
<feGaussianBlur stdDeviation="2"/>
<feColorMatrix type="matrix" values="0 0 0 0 0.441667 0 0 0 0 0.441667 0 0 0 0 0.441667 0 0 0 0.25 0"/>
<feBlend mode="normal" in2="BackgroundImageFix" result="effect1_dropShadow"/>
<feBlend mode="normal" in="SourceGraphic" in2="effect1_dropShadow" result="shape"/>
</filter>
<linearGradient id="paint0_linear" x1="68.8573" y1="158.952" x2="68.8573" y2="206.124" gradientUnits="userSpaceOnUse">
<stop stop-color="#7DA9F6"/>
<stop offset="1" stop-color="#9591F4"/>
</linearGradient>
<linearGradient id="paint1_linear" x1="143.212" y1="158.952" x2="143.212" y2="206.124" gradientUnits="userSpaceOnUse">
<stop stop-color="#84A1F5"/>
<stop offset="1" stop-color="#9591F4"/>
</linearGradient>
<linearGradient id="paint2_linear" x1="103.617" y1="71.9217" x2="102.008" y2="224.105" gradientUnits="userSpaceOnUse">
<stop offset="0.439874" stop-color="#9591F4"/>
<stop offset="1" stop-color="#4BDCFC"/>
</linearGradient>
<linearGradient id="paint3_linear" x1="114.09" y1="173.543" x2="114.09" y2="210.324" gradientUnits="userSpaceOnUse">
<stop stop-color="#84A1F5"/>
<stop offset="1" stop-color="#9591F4"/>
</linearGradient>
<linearGradient id="paint4_linear" x1="94.712" y1="176.718" x2="94.712" y2="212.211" gradientUnits="userSpaceOnUse">
<stop stop-color="#7BABF6"/>
<stop offset="0.411458" stop-color="#9591F4"/>
</linearGradient>
<linearGradient id="paint5_linear" x1="100.173" y1="-51.716" x2="107.87" y2="137.259" gradientUnits="userSpaceOnUse">
<stop offset="0.106107" stop-color="#35F3FF"/>
<stop offset="1" stop-color="#AE78F2"/>
</linearGradient>
<radialGradient id="paint6_radial" cx="0" cy="0" r="1" gradientUnits="userSpaceOnUse" gradientTransform="translate(105.7 58.8677) rotate(90) scale(49.0638 50.6648)">
<stop stop-color="#FAD9C2"/>
<stop offset="1" stop-color="#FBC49F"/>
</radialGradient>
</defs>
</svg>
