<svg width="41" height="67" viewBox="0 0 41 67" fill="none" xmlns="http://www.w3.org/2000/svg">
<path d="M15.0276 31.4851C15.0276 31.4851 12.6232 28.6859 11.3631 31.6974L10.5037 34.3507C10.5037 34.3507 6.4117 33.0373 6.62098 31.5957C6.83025 30.1585 5.16051 26.8551 1.9457 29.0131C1.9457 29.0131 -1.34036 32.772 4.00282 34.5187C4.00282 34.5187 9.94711 42.1912 11.2874 41.2713C11.2918 41.2713 18.3181 37.1278 15.0276 31.4851Z" fill="url(#paint0_linear)"/>
<path d="M14.1639 47.3524C14.1639 47.3524 11.0515 52.7165 11.4255 54.4765C11.4255 54.4765 12.8993 59.7565 15.1747 60.9284C15.1747 60.9284 16.9739 63.2741 17.2852 62.6044C17.5965 61.9348 14.2752 57.886 10.8021 63.7763C10.8021 63.7763 10.3658 69.8081 18.5498 64.7801C18.5498 64.7801 21.9293 60.924 21.2926 60.0882C20.6559 59.2524 18.5498 56.0685 17.2808 55.1442C17.2808 55.1442 21.1635 51.0405 20.9943 47.3524H14.1639Z" fill="url(#paint1_linear)"/>
<path d="M24.2937 46.6802C24.2937 46.6802 21.7111 54.4986 27.5263 54.8347C27.5263 54.8347 33.7912 52.2654 35.1403 53.4947C35.1403 53.4947 36.6008 58.6244 39.3036 57.0634C39.3036 57.0634 43.6048 55.2813 37.518 47.3479C37.518 47.3479 32.0947 47.348 30.189 49.4706C30.189 49.4706 32.9407 45.871 30.189 44.2922C27.4372 42.7135 24.2937 46.6802 24.2937 46.6802Z" fill="url(#paint2_linear)"/>
<path d="M15.3038 30.1325C15.3038 30.1325 6.36289 48.9532 15.6422 50.1118C15.6422 50.1118 24.8369 51.2306 30.7857 45.2828C30.7857 45.2828 32.264 39.4279 29.392 34.8686C29.392 34.8686 28.0829 30.221 27.6644 30.1325C27.2414 30.0441 15.3038 30.1325 15.3038 30.1325Z" fill="url(#paint3_linear)"/>
<path d="M27.2725 30.336C27.2725 30.336 24.3204 32.5559 27.2725 33.9798L29.8862 34.9837C29.8862 34.9837 28.3233 38.9636 26.8895 38.6717C25.4558 38.3799 22.0406 39.8436 24.022 43.1558C24.022 43.1558 27.6064 46.6316 29.6725 41.44C29.6725 41.44 37.7273 35.9919 36.8857 34.6122C36.8902 34.6078 33.1366 27.4041 27.2725 30.336Z" fill="url(#paint4_linear)"/>
<path d="M19.5552 0.0422411C19.5552 0.0422411 0.289855 -1.70343 2.72673 17.2496C2.72673 17.2496 0.777228 34.457 21.1392 30.8543C21.1392 30.8543 41.384 32.8182 39.1861 15.6732C36.9882 -1.47186 19.5552 0.0422411 19.5552 0.0422411Z" fill="url(#paint5_linear)"/>
<path d="M19.8143 3.28117C19.8143 3.28117 4.17661 3.26348 5.97993 15.6809C5.97993 15.6809 3.84266 30.9859 19.2533 28.5272C34.6639 26.0685 33.3147 23.7646 33.9871 16.0346C33.9871 16.0391 33.0877 2.72398 19.8143 3.28117Z" fill="url(#paint6_radial)"/>
<path d="M10.8022 18.6924C11.5178 18.6924 12.0979 17.6173 12.0979 16.2912C12.0979 14.965 11.5178 13.89 10.8022 13.89C10.0866 13.89 9.50647 14.965 9.50647 16.2912C9.50647 17.6173 10.0866 18.6924 10.8022 18.6924Z" fill="black"/>
<path d="M26.2305 18.1352C26.9461 18.1352 27.5263 17.0602 27.5263 15.734C27.5263 14.4078 26.9461 13.3328 26.2305 13.3328C25.5149 13.3328 24.9348 14.4078 24.9348 15.734C24.9348 17.0602 25.5149 18.1352 26.2305 18.1352Z" fill="black"/>
<path d="M24.7923 10.5689C24.7923 10.5689 27.0721 9.98073 27.3214 11.3251" stroke="black" stroke-width="0.5" stroke-miterlimit="10"/>
<path d="M12.04 11.0067C12.04 11.0067 9.76027 10.4186 9.51093 11.7629" stroke="black" stroke-width="0.5" stroke-miterlimit="10"/>
<path d="M16.4391 25.8165C17.1375 25.8165 17.7037 24.9731 17.7037 23.9327C17.7037 22.8922 17.1375 22.0488 16.4391 22.0488C15.7407 22.0488 15.1746 22.8922 15.1746 23.9327C15.1746 24.9731 15.7407 25.8165 16.4391 25.8165Z" fill="#EDEEF0" stroke="black" stroke-width="0.5" stroke-miterlimit="10"/>
<path opacity="0.4" d="M10.8021 19.6166L9.94269 21.4607" stroke="#850F5B" stroke-width="0.5" stroke-miterlimit="10"/>
<path opacity="0.4" d="M12.9572 19.6166L12.0978 21.4607" stroke="#850F5B" stroke-width="0.5" stroke-miterlimit="10"/>
<path opacity="0.4" d="M26.0168 19.6166L26.8761 21.4607" stroke="#850F5B" stroke-width="0.5" stroke-miterlimit="10"/>
<path opacity="0.4" d="M23.8663 19.6166L24.7256 21.4607" stroke="#850F5B" stroke-width="0.5" stroke-miterlimit="10"/>
<defs>
<linearGradient id="paint0_linear" x1="8.42539" y1="28.3015" x2="8.42539" y2="41.3479" gradientUnits="userSpaceOnUse">
<stop stop-color="#3E8F63"/>
<stop offset="1" stop-color="#18B4BD"/>
</linearGradient>
<linearGradient id="paint1_linear" x1="16.0853" y1="47.3524" x2="16.0853" y2="66.7812" gradientUnits="userSpaceOnUse">
<stop stop-color="#3E8F63"/>
<stop offset="1" stop-color="#18B4BD"/>
</linearGradient>
<linearGradient id="paint2_linear" x1="32.2505" y1="43.921" x2="32.2505" y2="57.359" gradientUnits="userSpaceOnUse">
<stop stop-color="#3E8F63"/>
<stop offset="1" stop-color="#18B4BD"/>
</linearGradient>
<linearGradient id="paint3_linear" x1="21.2973" y1="30.0932" x2="21.2973" y2="50.1954" gradientUnits="userSpaceOnUse">
<stop stop-color="#3E8F63"/>
<stop offset="1" stop-color="#18B4BD"/>
</linearGradient>
<linearGradient id="paint4_linear" x1="30.1832" y1="29.6343" x2="30.1832" y2="44.2949" gradientUnits="userSpaceOnUse">
<stop stop-color="#3E8F63"/>
<stop offset="1" stop-color="#18B4BD"/>
</linearGradient>
<linearGradient id="paint5_linear" x1="20.9333" y1="0" x2="20.9333" y2="31.3502" gradientUnits="userSpaceOnUse">
<stop stop-color="#458953"/>
<stop offset="1" stop-color="#0DC0D9"/>
</linearGradient>
<radialGradient id="paint6_radial" cx="0" cy="0" r="1" gradientUnits="userSpaceOnUse" gradientTransform="translate(19.9111 16.0294) rotate(90) scale(12.7652 14.076)">
<stop stop-color="#F7E3BD"/>
<stop offset="1" stop-color="#E0B990"/>
</radialGradient>
</defs>
</svg>
