<svg width="56" height="60" viewBox="0 0 56 60" fill="none" xmlns="http://www.w3.org/2000/svg">
<path d="M32.1323 56.8461C32.1323 56.8461 34.2213 55.6236 35.7147 56.8461C35.7147 56.8461 37.6556 58.2797 36.1338 59.6818C36.1338 59.6818 30.5821 59.9496 29.7156 59.4423C28.8491 58.9351 29.4163 44.6966 29.4163 44.6966H35.0279L34.1488 56.301L32.1323 56.8461Z" fill="url(#paint0_linear)"/>
<path d="M24.5637 56.8461C24.5637 56.8461 22.4747 55.6236 20.9812 56.8461C20.9812 56.8461 19.0403 58.2797 20.5622 59.6818C20.5622 59.6818 26.1139 59.9496 26.9803 59.4423C27.8468 58.9351 27.2797 44.6966 27.2797 44.6966H21.6681L22.5472 56.301L24.5637 56.8461Z" fill="url(#paint1_linear)"/>
<path d="M10.7773 19.8443L9.23108 20.8483L13.0228 26.6877L14.5691 25.6837L10.7773 19.8443Z" fill="#DD7936"/>
<path d="M12.994 20.3342L11.8925 21.0495L13.7184 23.8614L14.8199 23.1462L12.994 20.3342Z" fill="#DD7936"/>
<path d="M10.7543 22.2255C10.1833 22.8373 3.73071 27.1241 3.73071 27.1241L5.12157 29.1716L12.2186 24.481" fill="#DD7936"/>
<path d="M1.28828 27.9958L0.186768 28.7111L2.01267 31.523L3.11419 30.8078L1.28828 27.9958Z" fill="#DD7936"/>
<path d="M2.33602 25.4014L0.646118 26.4987L4.47785 32.3997L6.16776 31.3024L2.33602 25.4014Z" fill="#DD7936"/>
<path d="M44.9197 19.8446L46.4659 20.8486L42.6742 26.688L41.128 25.684L44.9197 19.8446Z" fill="#DD7936"/>
<path d="M42.7026 20.3344L43.8041 21.0497L41.9782 23.8616L40.8767 23.1464L42.7026 20.3344Z" fill="#DD7936"/>
<path d="M44.9422 22.2257C45.5132 22.8375 51.9658 27.1243 51.9658 27.1243L50.575 29.1718L43.4779 24.4813" fill="#DD7936"/>
<path d="M54.4082 27.9958L55.5098 28.7111L53.6839 31.523L52.5823 30.8078L54.4082 27.9958Z" fill="#DD7936"/>
<path d="M53.3605 25.4015L55.0504 26.4988L51.2187 32.3998L49.5288 31.3024L53.3605 25.4015Z" fill="#DD7936"/>
<path d="M11.3296 25.8681C11.3296 26.2719 11.2562 26.6553 11.1257 27.0102C10.6607 28.2705 9.44934 29.1719 8.02585 29.1719C6.20264 29.1719 4.72205 27.6913 4.72205 25.8681C4.72205 24.0449 6.20264 22.5643 8.02585 22.5643C9.84905 22.5643 11.3296 24.0449 11.3296 25.8681Z" fill="#9080C1"/>
<path d="M20.054 33.9727C20.054 33.9727 18.1819 34.7844 16.9338 35.0903C16.6401 35.1637 16.3791 35.2086 16.1874 35.2086C16.1874 35.2086 17.0888 35.1188 16.636 35.1637C16.636 35.1637 14.8332 35.7102 13.789 35.2086C12.7449 34.7069 8.1255 30.3752 7.7013 28.9844C7.27711 27.5935 7.56893 27.981 7.56893 27.981C7.56893 27.981 7.37723 26.2434 9.03728 25.546C9.03728 25.546 10.6973 24.2693 12.5165 26.2801C12.5165 26.2801 14.9107 29.4086 15.6082 28.9844C15.6082 28.9844 18.3532 28.7519 19.3158 26.7451C19.3158 26.7451 20.2824 25.3135 22.8317 26.5901C22.8317 26.5901 25.4992 27.3243 25.1892 29.4126C25.1933 29.4126 21.2491 33.936 20.054 33.9727Z" fill="#9080C1"/>
<path d="M44.8895 26.0476C44.8895 26.4514 44.9629 26.8348 45.0935 27.1897C45.5584 28.45 46.7698 29.3514 48.1933 29.3514C50.0165 29.3514 51.4971 27.8708 51.4971 26.0476C51.4971 24.2244 50.0165 22.7438 48.1933 22.7438C46.3701 22.7438 44.8895 24.2244 44.8895 26.0476Z" fill="#8F7EBD"/>
<path d="M36.0686 34.0337C36.0686 34.0337 37.9407 34.8453 39.1888 35.1513C39.1888 35.1513 39.7435 35.2695 39.9352 35.2695C39.9352 35.2695 39.0338 35.1798 39.4866 35.2247C39.4866 35.2247 41.2443 34.9693 42.2884 34.4676C43.3326 33.9659 47.5568 31.2093 47.981 29.8185C48.5537 28.4437 48.5537 28.042 48.5537 28.042C48.5537 28.042 48.7454 26.3044 47.0853 25.6069C47.0853 25.6069 45.4252 24.3303 43.6061 26.3411C43.6061 26.3411 41.2119 29.4695 40.5144 29.0453C40.5144 29.0453 37.7694 28.8128 36.8068 26.8061C36.8068 26.8061 35.8401 25.3744 33.2909 26.6511C33.2909 26.6511 30.6234 27.3853 30.9334 29.4736C30.9293 29.4736 34.8735 33.997 36.0686 34.0337Z" fill="url(#paint2_linear)"/>
<path d="M20.621 24.6037C20.621 24.6037 26.1967 29.6124 37.6213 25.1747C37.6213 25.1747 34.2197 27.5771 36.1775 31.9251C36.1775 31.9251 41.3289 42.1057 36.8994 44.9649C32.4699 47.8241 21.445 48.852 19.1772 44.2797C16.9094 39.7074 20.621 31.5825 20.621 31.5825V25.1788V24.6037Z" fill="url(#paint3_linear)"/>
<path d="M27.2397 0.93679C27.2397 0.93679 18.7478 0.70232 14.3805 8.65268C14.3805 8.65268 4.7088 28.1753 27.2397 28.1753C27.2397 28.1753 45.8764 29.6963 42.1036 13.4439C42.1036 13.447 40.2172 0.702321 27.2397 0.93679Z" fill="url(#paint4_linear)"/>
<path d="M27.0779 3.99733C27.0779 3.99733 16.3883 3.99733 16.3883 15.4493C16.3883 26.9013 26.9035 25.8246 26.9035 25.8246C26.9035 25.8246 38.8009 27.3239 38.8009 14.9248C38.8009 2.52573 27.0779 3.99733 27.0779 3.99733Z" fill="url(#paint5_radial)"/>
<path d="M19.5448 10.4453C19.5448 10.4453 20.6405 9.71099 21.4903 9.89302" stroke="black" stroke-width="0.5" stroke-miterlimit="10"/>
<path d="M36.2516 10.6735C36.2516 10.6735 35.1558 9.93927 34.306 10.1213" stroke="black" stroke-width="0.5" stroke-miterlimit="10"/>
<path d="M20.8735 16.5724C21.6202 16.442 22.065 15.4344 21.8671 14.3219C21.6693 13.2094 20.9036 12.4133 20.157 12.5437C19.4103 12.6742 18.9655 13.6818 19.1633 14.7943C19.3612 15.9067 20.1269 16.7029 20.8735 16.5724Z" fill="black"/>
<path d="M20.9323 16.5311C21.4182 16.4462 21.7257 15.8918 21.6192 15.2927C21.5126 14.6937 21.0323 14.2769 20.5464 14.3618C20.0605 14.4467 19.753 15.0011 19.8595 15.6001C19.9661 16.1992 20.4464 16.616 20.9323 16.5311Z" fill="white"/>
<path d="M20.74 13.743C20.9738 13.743 21.1633 13.5552 21.1633 13.3234C21.1633 13.0917 20.9738 12.9039 20.74 12.9039C20.5062 12.9039 20.3167 13.0917 20.3167 13.3234C20.3167 13.5552 20.5062 13.743 20.74 13.743Z" fill="white"/>
<path d="M36.5202 14.2732C36.7181 13.1607 36.2732 12.1531 35.5266 12.0227C34.78 11.8922 34.0143 12.6883 33.8164 13.8008C33.6185 14.9133 34.0634 15.9209 34.81 16.0514C35.5567 16.1818 36.3223 15.3857 36.5202 14.2732Z" fill="black"/>
<path d="M35.8263 15.0801C35.9329 14.4811 35.6253 13.9267 35.1394 13.8418C34.6535 13.7569 34.1732 14.1737 34.0667 14.7727C33.9602 15.3717 34.2677 15.9262 34.7536 16.0111C35.2395 16.096 35.7198 15.6792 35.8263 15.0801Z" fill="white"/>
<path d="M34.9468 13.2217C35.1806 13.2217 35.3701 13.0338 35.3701 12.8021C35.3701 12.5704 35.1806 12.3825 34.9468 12.3825C34.713 12.3825 34.5234 12.5704 34.5234 12.8021C34.5234 13.0338 34.713 13.2217 34.9468 13.2217Z" fill="white"/>
<path opacity="0.2" d="M20.1237 18.7531L21.3595 17.4019" stroke="#BF3376" stroke-width="0.5" stroke-miterlimit="10"/>
<path opacity="0.2" d="M21.428 18.9632L22.7167 17.5533" stroke="#FC0079" stroke-width="0.5" stroke-miterlimit="10"/>
<path d="M25.976 20.6909C25.976 20.6909 27.8468 23.3842 29.7207 20.6909" stroke="black" stroke-width="0.5" stroke-miterlimit="10"/>
<path opacity="0.2" d="M35.7909 18.7531L34.552 17.4019" stroke="#BF3376" stroke-width="0.5" stroke-miterlimit="10"/>
<path opacity="0.2" d="M34.4836 18.9632L33.198 17.5533" stroke="#FF007A" stroke-width="0.5" stroke-miterlimit="10"/>
<defs>
<linearGradient id="paint0_linear" x1="29.234" y1="42.6828" x2="29.234" y2="63.1397" gradientUnits="userSpaceOnUse">
<stop stop-color="#8F7DBC"/>
<stop offset="1" stop-color="#9289CF"/>
</linearGradient>
<linearGradient id="paint1_linear" x1="24.9915" y1="56.1823" x2="23.7208" y2="35.5927" gradientUnits="userSpaceOnUse">
<stop stop-color="#8D73AB"/>
<stop offset="0.770833" stop-color="#9287CC"/>
</linearGradient>
<linearGradient id="paint2_linear" x1="39.7344" y1="25.2074" x2="39.7344" y2="35.2695" gradientUnits="userSpaceOnUse">
<stop stop-color="#8F7EBD"/>
<stop offset="1" stop-color="#9080C1"/>
</linearGradient>
<linearGradient id="paint3_linear" x1="28.5701" y1="24.6037" x2="36.6993" y2="48.1848" gradientUnits="userSpaceOnUse">
<stop stop-color="#8F7CBA"/>
<stop offset="1" stop-color="#9185C9"/>
</linearGradient>
<linearGradient id="paint4_linear" x1="27.4622" y1="0.933594" x2="26.2745" y2="54.4243" gradientUnits="userSpaceOnUse">
<stop stop-color="#8D72A9"/>
<stop offset="1" stop-color="#99A4FB"/>
</linearGradient>
<radialGradient id="paint5_radial" cx="0" cy="0" r="1" gradientUnits="userSpaceOnUse" gradientTransform="translate(27.5949 14.9127) rotate(-2.56042) scale(22.6857 22.4844)">
<stop stop-color="#FFF1CC"/>
<stop offset="1" stop-color="#A34D1D"/>
</radialGradient>
</defs>
</svg>
