<svg width="39" height="55" viewBox="0 0 39 55" fill="none" xmlns="http://www.w3.org/2000/svg">
<path d="M8.81395 25.9061C8.81395 25.9061 2.165 18.9691 2.31096 14.6978C2.31096 14.6978 2.26103 4.0733 4.88066 1.3538C4.88066 1.3538 7.59632 -0.209524 8.97912 0.9889C8.97912 0.9889 11.6717 1.97222 10.3619 6.37412C10.3619 6.37412 11.4528 5.82869 11.6717 6.73903C11.6717 6.73903 11.2723 8.63269 9.34402 9.17813C9.34402 9.17813 7.16227 13.6184 8.06877 14.6747C8.06877 14.6747 14.6908 23.0061 14.0724 24.5349C13.454 26.0636 13.454 26.0636 13.454 26.0636C13.454 26.0636 11.1148 27.5309 9.96244 26.7204C8.81011 25.91 9.09051 25.9945 9.09051 25.9945L8.81395 25.9061Z" fill="url(#paint0_linear)"/>
<path d="M9.42082 40.656C9.42082 40.656 12.4783 53.8271 13.8611 54.1191C15.2439 54.411 19.4653 54.7759 19.6842 54.1191C19.9032 53.4622 20.6676 51.2075 18.6279 50.3356C18.6279 50.3356 15.5819 46.5521 15.9968 43.0567C15.9968 43.0567 15.9737 39.9992 15.098 39.2002C14.226 38.4013 13.2043 36.9455 11.4604 36.7265C9.71658 36.5076 8.54889 38.4742 8.54889 38.4742" fill="url(#paint1_linear)"/>
<path d="M3.52475 35.5588C3.52475 35.5588 2.43388 48.5571 3.15984 49.575C3.15984 49.575 0.866706 49.3522 0.759155 52.8822C0.759155 52.8822 3.59773 54.7375 7.8191 53.2817C7.8191 53.2817 8.83699 41.5625 8.54507 40.8365C8.54507 40.8365 8.94454 36.6151 7.96122 35.9967C6.9779 35.3783 5.50292 34.249 4.63867 34.6485C3.77442 35.048 3.52475 35.5588 3.52475 35.5588Z" fill="url(#paint2_linear)"/>
<path d="M23.7827 27.3389C23.7827 27.3389 30.0168 33.1351 29.7249 35.1978C29.7249 35.1978 28.1731 41.6508 22.8608 42.1617C22.8608 42.1617 19.8033 41.9427 21.528 38.4012C21.528 38.4012 20.5254 38.4973 21.0017 37.4294C21.0017 37.4294 23.7097 36.5806 23.4946 35.2938C23.2795 34.007 21.9889 31.3643 21.5549 31.0225C21.5549 31.0225 20.149 30.0276 20.875 28.3299C20.8711 28.3337 21.3052 26.102 23.7827 27.3389Z" fill="url(#paint3_linear)"/>
<path d="M10.1468 20.1329C10.1468 20.1329 14.6601 26.175 23.5369 27.0469C23.5369 27.0469 21.2092 29.4476 20.9172 31.0494C20.9172 31.0494 21.5894 39.373 19.9608 41.09C19.8148 41.2436 19.6458 41.3473 19.4615 41.3819C17.2067 41.8198 19.6497 41.3473 19.6497 41.3473C19.6497 41.3473 15.8969 42.8377 14.806 42.1117C13.7152 41.3858 2.89809 41.09 2.89809 33.5162C2.89809 33.5162 5.34541 27.2659 8.18398 26.029L10.3657 19.6259" fill="url(#paint4_linear)"/>
<path d="M27.7325 6.75697C27.7325 6.75697 21.7027 3.04801 15.2085 7.01749C15.2085 7.01749 0.0212094 17.2034 16.2812 26.5912C16.2812 26.5912 29.0915 35.4638 33.2014 22.0574C33.2001 22.0597 37.1967 11.9935 27.7325 6.75697Z" fill="url(#paint5_linear)"/>
<path d="M26.3291 8.9181C26.3291 8.9181 18.6147 4.46418 13.8002 12.8031C8.98571 21.1421 17.027 24.7393 17.027 24.7393C17.027 24.7393 24.9827 30.7883 30.1953 21.7597C35.408 12.7311 26.3291 8.9181 26.3291 8.9181Z" fill="url(#paint6_radial)"/>
<path d="M18.1818 10.4744C18.1818 10.4744 19.2812 10.3963 19.818 10.883" stroke="black" stroke-width="0.5" stroke-miterlimit="10"/>
<path d="M30.1428 17.6017C30.1428 17.6017 29.6608 16.6105 28.971 16.389" stroke="black" stroke-width="0.5" stroke-miterlimit="10"/>
<path d="M16.5649 15.4899C17.1585 15.706 17.9032 15.1576 18.2281 14.2651C18.553 13.3726 18.3351 12.4739 17.7414 12.2578C17.1478 12.0416 16.4031 12.59 16.0782 13.4825C15.7533 14.375 15.9712 15.2738 16.5649 15.4899Z" fill="black"/>
<path d="M16.6245 15.4843C17.0109 15.6249 17.4659 15.3493 17.6408 14.8688C17.8158 14.3882 17.6444 13.8846 17.258 13.7439C16.8717 13.6033 16.4167 13.8789 16.2417 14.3594C16.0668 14.84 16.2381 15.3436 16.6245 15.4843Z" fill="white"/>
<path d="M17.658 13.374C17.8267 13.4714 18.0425 13.4136 18.1399 13.2449C18.2373 13.0761 18.1795 12.8604 18.0108 12.7629C17.842 12.6655 17.6263 12.7233 17.5289 12.8921C17.4314 13.0608 17.4893 13.2766 17.658 13.374Z" fill="white"/>
<path d="M28.8235 20.335C29.434 19.6074 29.5366 18.6883 29.0526 18.2822C28.5686 17.8761 27.6814 18.1368 27.0709 18.8645C26.4604 19.5921 26.3578 20.5111 26.8418 20.9172C27.3258 21.3233 28.213 21.0626 28.8235 20.335Z" fill="black"/>
<path d="M27.9837 20.6336C28.3124 20.2418 28.3235 19.7099 28.0086 19.4457C27.6936 19.1814 27.1718 19.2848 26.843 19.6766C26.5143 20.0684 26.5031 20.6002 26.8181 20.8645C27.1331 21.1288 27.6549 21.0254 27.9837 20.6336Z" fill="white"/>
<path d="M28.1302 18.9138C28.2989 19.0113 28.5147 18.9534 28.6121 18.7847C28.7095 18.616 28.6517 18.4002 28.483 18.3028C28.3142 18.2054 28.0985 18.2632 28.001 18.4319C27.9036 18.6007 27.9614 18.8164 28.1302 18.9138Z" fill="white"/>
<path opacity="0.2" d="M15.1068 16.7655L16.5668 16.2965" stroke="#BF3376" stroke-width="0.5" stroke-miterlimit="10"/>
<path opacity="0.2" d="M15.96 17.4616L17.4828 16.972" stroke="#FC0079" stroke-width="0.5" stroke-miterlimit="10"/>
<path d="M18.5157 20.6146C18.5157 20.6146 18.7336 23.3552 21.2183 22.1749" stroke="black" stroke-width="0.5" stroke-miterlimit="10"/>
<path opacity="0.2" d="M26.4134 23.2933L26.0874 21.7932" stroke="#BF3376" stroke-width="0.5" stroke-miterlimit="10"/>
<path opacity="0.2" d="M25.3817 22.9012L25.0466 21.3389" stroke="#FF007A" stroke-width="0.5" stroke-miterlimit="10"/>
<defs>
<linearGradient id="paint0_linear" x1="8.21089" y1="0.536804" x2="2.30859" y2="51.3237" gradientUnits="userSpaceOnUse">
<stop stop-color="#0EC1D5"/>
<stop offset="0.678487" stop-color="#428DFF"/>
</linearGradient>
<linearGradient id="paint1_linear" x1="14.2778" y1="36.7095" x2="14.2778" y2="54.4872" gradientUnits="userSpaceOnUse">
<stop offset="0.366006" stop-color="#0DC0D9"/>
<stop offset="1" stop-color="#19CDAC"/>
</linearGradient>
<linearGradient id="paint2_linear" x1="4.69225" y1="34.5649" x2="4.69225" y2="53.8392" gradientUnits="userSpaceOnUse">
<stop offset="0.261068" stop-color="#0DC0D9"/>
<stop offset="0.835837" stop-color="#19CDAC"/>
</linearGradient>
<linearGradient id="paint3_linear" x1="25.2008" y1="26.9654" x2="23.6012" y2="51.4685" gradientUnits="userSpaceOnUse">
<stop stop-color="#0CBFDB"/>
<stop offset="1" stop-color="#0BBEDD"/>
</linearGradient>
<linearGradient id="paint4_linear" x1="-9.84227" y1="-4.8497" x2="13.0584" y2="42.3111" gradientUnits="userSpaceOnUse">
<stop offset="0.691399" stop-color="#2EA1EE"/>
<stop offset="0.833258" stop-color="#0DC0D9"/>
</linearGradient>
<linearGradient id="paint5_linear" x1="27.8945" y1="6.84737" x2="16.426" y2="26.7114" gradientUnits="userSpaceOnUse">
<stop stop-color="#1DD1A1"/>
<stop offset="1" stop-color="#0ABDE3"/>
</linearGradient>
<radialGradient id="paint6_radial" cx="0" cy="0" r="1" gradientUnits="userSpaceOnUse" gradientTransform="translate(22.1133 17.0818) rotate(27.4166) scale(18.9048)">
<stop stop-color="#DD9B6B"/>
<stop offset="1" stop-color="#A34D1D"/>
</radialGradient>
</defs>
</svg>
